<?xml version="1.0" encoding="UTF-8"?>
<svg width="32" height="32" enable-background="new -352.037 -291.281 800.073 678.559" version="1.1" viewBox="-352.04 -291.28 32 32" xml:space="preserve" xmlns="http://www.w3.org/2000/svg" xmlns:cc="http://creativecommons.org/ns#" xmlns:dc="http://purl.org/dc/elements/1.1/" xmlns:rdf="http://www.w3.org/1999/02/22-rdf-syntax-ns#"><title>HADES BLACK on Amazon</title><metadata><rdf:RDF><cc:Work rdf:about=""><dc:format>image/svg+xml</dc:format><dc:type rdf:resource="http://purl.org/dc/dcmitype/StillImage"/><dc:title>HADES BLACK on Amazon</dc:title><dc:creator><cc:Agent><dc:title>HADES BLACK</dc:title></cc:Agent></dc:creator><dc:publisher><cc:Agent><dc:title>HADES BLACK</dc:title></cc:Agent></dc:publisher><dc:description>Vectorized service graphic by HADES BLACK. Exclusively created for "hadesblack.github.io" website and other platforms, where used by HADES BLACK.</dc:description><dc:contributor><cc:Agent><dc:title>HADES BLACK</dc:title></cc:Agent></dc:contributor><dc:subject><rdf:Bag><rdf:li>hadesblack</rdf:li></rdf:Bag></dc:subject><dc:source>hadesblack.github.io</dc:source><dc:rights><cc:Agent><dc:title>All rights reserved</dc:title></cc:Agent></dc:rights></cc:Work></rdf:RDF></metadata>
<filter id="a" color-interpolation-filters="sRGB">
	<feGaussianBlur stdDeviation="1.71"/>
</filter>
<g transform="translate(-384.03 -323.28)" display="none">
	<g display="inline" enable-background="new    " filter="url(#a)" opacity=".9">

			<linearGradient id="b" x1="46.218" x2="46.218" y1="2.4243" y2="87.922" gradientTransform="matrix(1.0059 0 0 -.9942 1.5103 94.408)" gradientUnits="userSpaceOnUse">
			<stop offset="0"/>
			<stop stop-opacity=".5882" offset="1"/>
		</linearGradient>
		<path d="m11 7h74c3.313 0 6 2.687 6 6v73c0 3.313-2.687 6-6 6h-74c-3.313 0-6-2.687-6-6v-73c0-3.313 2.687-6 6-6z" fill="url(#b)"/>
	</g>
</g>
<g transform="matrix(.039997 0 0 .039997 -337.96 -277.2)" fill="#fff">
	<path d="m261.79 134.43c-16.679-22.826-34.57-41.397-34.57-83.872v-141c0-59.759 4.331-114.62-40.186-155.73-35.041-33.34-93.25-45.103-137.77-45.103-87.066 0-184.19 32.13-204.56 138.6-2.156 11.309 6.146 17.229 13.672 18.893l88.655 9.493c8.302-0.417 14.297-8.491 15.904-16.623 7.602-36.688 38.654-54.313 73.545-54.313 18.817 0 40.186 6.808 51.324 23.507 12.822 18.589 11.101 44.138 11.101 65.602v11.819c-53.025 5.863-122.39 9.759-172.05 31.298-57.281 24.546-97.505 74.491-97.505 147.9 0 94.082 59.854 141.11 136.92 141.11 65.035 0 100.63-15.186 150.8-65.791 16.643 23.865 22.089 35.363 52.441 60.345 6.807 3.594 15.583 3.252 21.614-2.155l0.021-0.02 0.207 0.227c18.268-16.074 51.438-44.592 70.141-60.098 7.469-6.071 6.145-15.886 0.302-24.093zm-180-40.659c-14.522 25.53-37.652 41.15-63.352 41.15-35.042 0-55.618-26.476-55.618-65.641 0-77.1 69.933-91.094 136.06-91.094v19.535h0.019c0 35.269 0.852 64.637-17.114 96.05z"/>
	<g transform="matrix(4.094 0 0 4.094 105.99 -56.114)">
		<path d="m64.762 84.122c-21.39 15.782-52.41 24.179-79.125 24.179-37.427 0-71.14-13.834-96.65-36.865-2.001-1.811-0.215-4.284 2.189-2.878 27.527 16.018 61.562 25.66 96.714 25.66 23.716 0 49.781-4.917 73.764-15.096 3.618-1.53 6.65 2.39 3.108 5z"/>
		<path d="m73.663 73.956c-2.734-3.499-18.091-1.658-24.978-0.826-2.095 0.243-2.417-1.575-0.535-2.909 12.246-8.601 32.313-6.112 34.647-3.237 2.352 2.915-0.614 23.03-12.093 32.626-1.766 1.481-3.443 0.701-2.663-1.253 2.582-6.457 8.366-20.896 5.622-24.401z"/>
	</g>
</g>
</svg>
