<svg xmlns="http://www.w3.org/2000/svg" width="32" height="32" viewBox="-352 -291.3 32 32" xmlns:v="https://hadesblack.github.io"><filter  color-interpolation-filters="sRGB"><feGaussianBlur stdDeviation="1.7"/></filter><path d="M261.8 134.4c-16.7-22.8-34.6-41.4-34.6-83.9v-141c0-59.8 4.3-114.6-40.2-155.7-35-33.3-93.2-45.1-137.8-45.1-87.1 0-184.2 32.1-204.6 138.6-2.2 11.3 6.1 17.2 13.7 18.9l88.7 9.5c8.3-.4 14.3-8.5 15.9-16.6 7.6-36.7 38.7-54.3 73.5-54.3 18.8 0 40.2 6.8 51.3 23.5 12.8 18.6 11.1 44.1 11.1 65.6v11.8c-53 5.9-122.4 9.8-172 31.3-57.3 24.5-97.5 74.5-97.5 147.9 0 94.1 59.9 141.1 136.9 141.1 65 0 100.6-15.2 150.8-65.8 16.6 23.9 22.1 35.4 52.4 60.3 6.8 3.6 15.6 3.3 21.6-2.2h0l.2.2 70.1-60.1c7.5-6.1 6.1-15.9.3-24.1zm-180-40.7c-14.5 25.5-37.7 41.2-63.4 41.2-35 0-55.6-26.5-55.6-65.6 0-77.1 69.9-91.1 136.1-91.1v19.5c0 35.3.9 64.6-17.1 96.1zm289.1 194.2c-87.5 64.5-214.4 98.9-323.6 98.9-153.1 0-291-56.6-395.3-150.8-8.2-7.4-.9-17.5 9-11.8A796 796 0 0 0 56.6 329.1a787 787 0 0 0 301.7-61.7c14.8-6.3 27.2 9.8 12.7 20.4zm36.4-41.5c-11.2-14.3-74-6.8-102.2-3.4-8.6 1-9.9-6.4-2.2-11.9 50.1-35.2 132.2-25 141.7-13.2 9.6 11.9-2.5 94.2-49.5 133.4-7.2 6.1-14.1 2.9-10.9-5.1 10.6-26.4 34.2-85.5 23-99.8z" transform="matrix(.04 0 0 .04 -337.96 -277.2)" fill="#fff"/></svg>