<?xml version="1.0" encoding="UTF-8"?>
<svg version="1.1" viewBox="0 0 32 32" xml:space="preserve" xmlns="http://www.w3.org/2000/svg" xmlns:cc="http://creativecommons.org/ns#" xmlns:dc="http://purl.org/dc/elements/1.1/" xmlns:rdf="http://www.w3.org/1999/02/22-rdf-syntax-ns#"><title>HADES BLACK on Audiomack</title><metadata><rdf:RDF><cc:Work rdf:about=""><dc:format>image/svg+xml</dc:format><dc:type rdf:resource="http://purl.org/dc/dcmitype/StillImage"/><dc:title>HADES BLACK on Audiomack</dc:title><dc:creator><cc:Agent><dc:title>HADES BLACK</dc:title></cc:Agent></dc:creator><dc:publisher><cc:Agent><dc:title>HADES BLACK</dc:title></cc:Agent></dc:publisher><dc:description>Vectorized service graphic by HADES BLACK. Exclusively created for "hadesblack.github.io" website and other platforms, where used by HADES BLACK.</dc:description><dc:contributor><cc:Agent><dc:title>HADES BLACK</dc:title></cc:Agent></dc:contributor><dc:subject><rdf:Bag><rdf:li>hadesblack</rdf:li></rdf:Bag></dc:subject><dc:source>hadesblack.github.io</dc:source><dc:rights><cc:Agent><dc:title>All rights reserved</dc:title></cc:Agent></dc:rights></cc:Work></rdf:RDF></metadata><defs><clipPath id="b"><path d="m38.48 1031.7s62.98 10.39 88.93-16.73c25.977-27.105 8.953-83.191-25.512-84.125-34.468-0.925-66.324-7.292-88.941 16.727-22.617 24.02-16.547 72.278 25.524 84.128m683.66-382.76c-6.067-0.64-12.489 2.145-19.063 6.836-45.152 62.93-61.465 278.11-82.191 290.92-21.493 13.293-99.328-119.22-254.14-104.98-64.738 5.969-130.62 47.907-169.41 76.954 3.605 48.894 4.234 163.06 100.66 125.94 58.574-22.55 158.88-84.474 246.97 26.73 97.402 122.98 151.12 87.26 183.34 60.52 32.207-26.73 10.746-165.76 58.789-126.9 48.043 38.87 242.04 280.2 242.04 280.2s150.19 151.47 173.19-7.77c23-159.23 120.93-335.69 146.88-330.67 25.97 5.039 328.09 619.07 371.36 658.68 43.27 39.63 188.93 34.42 182.01-67.21-6.93-101.62-21.75-733.3-21.75-733.3s-17.09-178 10.74-82.871c11.54 39.441 23.94 75.016 39.44 116.53 74.56 238.71 201.57 646.5 264.86 856.62 14.55 50.28 27.08 93.44 36.8 126.61l0.02 0.09c3.78 15.38 7.53 27.56 11.31 38.43 5.29 17.81 8.87 29.59 9.97 32.7 2.83 7.85 10.76 13.85 21.9 18.25 11.19 7.05 23.19 7.41 36.8 7.76 35.12 3.15 80.29-1.43 120.91-13 11.83-0.47 24.7-4.26 36.87-13v-0.01s0.73-0.45 1.76-1.12c0.27-0.21 0.56-0.36 0.85-0.59 2.54-1.77 6.66-5.25 11.43-10.99 0.14-0.18 0.29-0.41 0.46-0.58 1.97-2.42 3.96-5.28 5.98-8.54 22.69-33.28 36.63-94.63 22.65-203.42-34.83-271.49-61.8-829.99-61.8-829.99s-5.36-26.715 50.6 90.91c1.95 4.098 4.45 7.629 6.74 11.387 3.03 1.996 6.42 4.855 10.62 9.91 34.57 41.223 127.5 65.43 191.95 64.94 27.16-3.29 49.91-10.12 63.5-18.706 25.43-38.714 10.42-181.58 10.42-181.58-53.61-4.961-155.81-33.808-192.03-39.136-36.25-5.36-91.28-240.63-167.78-216.56-76.51 24.055-246.99 131-246.99 145.7 0 12.805 13.4 169.1 16.89 209.44 0.26 2.785 0.46 5.375 0.67 7.945 0.08 0.746 0.16 1.613 0.16 1.613l-0.02-0.043c2.48 31.77 0.27 45.653-14.4 13.942-12.63-27.277-67.55-201.79-128.78-391.87-6.47-16.61-122.2-366.86-137.39-409.56-18.13-49.539-33.37-87.457-43.89-107.07-16.02-21.707-37.6-35.301-67.73-26.184-75.16 22.715-170.35 126.58-171.23 152.35-1.81 145.35 7.06 926.86-28.17 861.73-36.17-66.776-317.37-530.19-317.37-530.19-4.71-0.809-8.19-0.657-12.34-1.036-19.91 2.176-50.76 8.645-59.29 27.704-0.47 1.128-1.09 2.148-1.5 3.32-0.41 1.187-0.87 2.512-1.57 4.672-3.82 12.758-5.38 26.609-8.75 37.953-12.58 42.453-32.71 103.3-53.83 165.2-32.36 105.54-65.73 213.5-71.22 225.42-10.73 23.324-26.37 13.488-40.4 0.016-62.765-53.235-196.09-288.22-316.5-301.06" clip-rule="evenodd"/></clipPath><clipPath id="a"><path d="m0 0h2790v1920h-2790z"/></clipPath></defs><g transform="matrix(.1147 0 0 -.1147 -8.2571e-6 27.011)" fill="#fff"><g transform="scale(.1)" fill="#fff"><g fill="#fff"><g clip-path="url(#b)" fill="#fff"><g clip-path="url(#a)" fill="#fff"><path d="m0 0h2840v1970h-2840z" fill="#fff"/></g></g></g></g></g></svg>
