<svg xmlns="http://www.w3.org/2000/svg" viewBox="0 0 32 32" xmlns:v="https://hadesblack.github.io"><defs><clipPath id="A"><path d="M38.48 1031.7s62.98 10.4 88.93-16.73c25.977-27.105 8.953-83.19-25.512-84.125-34.468-.925-66.324-7.292-88.94 16.727S-3.6 1019.85 38.48 1031.7m683.66-382.76c-6.067-.64-12.49 2.145-19.063 6.836-45.152 62.93-61.465 278.1-82.19 290.92-21.493 13.293-99.328-119.22-254.14-104.98-64.738 5.97-130.62 47.907-169.4 76.954 3.605 48.894 4.234 163.06 100.66 125.94 58.574-22.55 158.88-84.474 246.97 26.73 97.402 122.98 151.12 87.26 183.34 60.52 32.207-26.73 10.746-165.76 58.79-126.9 48.043 38.87 242.04 280.2 242.04 280.2s150.2 151.47 173.2-7.77c23-159.23 120.93-335.7 146.88-330.67 25.97 5.04 328.1 619.07 371.36 658.68 43.27 39.63 188.93 34.42 182-67.2-6.93-101.62-21.75-733.3-21.75-733.3s-17.1-178 10.74-82.87c11.54 39.44 23.94 75.016 39.44 116.53l264.86 856.62 36.82 126.7c3.78 15.38 7.53 27.56 11.3 38.43l9.97 32.7c2.83 7.85 10.76 13.85 21.9 18.25 11.2 7.05 23.2 7.4 36.8 7.76 35.12 3.15 80.3-1.43 120.9-13 11.83-.47 24.7-4.26 36.87-13v-.01l1.76-1.12c.27-.2.56-.36.85-.6 2.54-1.77 6.66-5.25 11.43-11 .14-.18.3-.4.46-.58 1.97-2.42 3.96-5.28 5.98-8.54 22.7-33.28 36.63-94.63 22.65-203.42-34.83-271.5-61.8-830-61.8-830s-5.36-26.715 50.6 90.9c1.95 4.098 4.45 7.63 6.74 11.387 3.03 1.996 6.42 4.855 10.62 9.9 34.57 41.223 127.5 65.43 191.95 64.94 27.16-3.3 49.9-10.12 63.5-18.706 25.43-38.714 10.42-181.58 10.42-181.58-53.6-4.96-155.8-33.808-192.03-39.136-36.25-5.36-91.28-240.63-167.78-216.56-76.5 24.055-247 131-247 145.7 0 12.805 13.4 169.1 16.9 209.44l.67 7.945.16 1.613-.02-.043c2.48 31.77.27 45.653-14.4 13.942-12.63-27.277-67.55-201.8-128.78-391.87-6.47-16.6-122.2-366.86-137.4-409.56-18.13-49.54-33.37-87.457-43.9-107.07-16.02-21.707-37.6-35.3-67.73-26.184-75.16 22.715-170.35 126.58-171.23 152.35-1.8 145.35 7.06 926.86-28.17 861.73-36.17-66.776-317.37-530.2-317.37-530.2-4.7-.81-8.2-.657-12.34-1.036-19.9 2.176-50.76 8.645-59.3 27.704-.47 1.128-1.1 2.148-1.5 3.32l-1.57 4.672c-3.82 12.758-5.38 26.61-8.75 37.953-12.58 42.453-32.7 103.3-53.83 165.2l-71.22 225.42c-10.73 23.324-26.37 13.488-40.4.016-62.765-53.235-196.1-288.22-316.5-301.06" clip-rule="evenodd"/></clipPath><clipPath id="B"><path d="M0 0h2790v1920H0z"/></clipPath></defs><g clip-path="url(#A)" fill="#fff" transform="matrix(.01147 0 0 -.01147 -.000008 27.011)"><g clip-path="url(#B)"><path d="M0 0h2840v1970H0z"/></g></g></svg>