<svg xmlns="http://www.w3.org/2000/svg" viewBox="0 0 32 32" xmlns:v="https://hadesblack.github.io"><path d="M11.626 4.58s-3.73-.082-7.678 2.852c0 0-3.95 7.102-3.95 15.85 0 0 2.303 3.948 8.363 4.14 0 0 1.015-1.206 1.838-2.248-3.482-1.042-4.8-3.21-4.8-3.21s.274.192.767.466c.027 0 .055.027.1.055.082.055.165.082.247.137.686.384 1.37.686 2 .932 1.124.466 2.468.877 4.03 1.18 2.057.384 4.47.52 7.102.028 1.29-.247 2.605-.603 3.976-1.18.96-.356 2.03-.878 3.153-1.618 0 0-1.37 2.22-4.963 3.236l1.8 2.194C29.696 27.2 32 23.253 32 23.28c0-8.747-3.95-15.85-3.95-15.85-3.92-2.934-7.678-2.852-7.678-2.852l-.384.44c4.662 1.398 6.828 3.455 6.828 3.455-2.852-1.535-5.648-2.303-8.253-2.605-1.974-.22-3.867-.165-5.54.055-.165 0-.3.028-.466.055-.96.1-3.29.438-6.225 1.727-1.015.44-1.617.768-1.617.768S6.965 6.307 11.9 4.91zm-.74 10.118c1.563 0 2.824 1.344 2.797 3.016 0 1.673-1.234 3.016-2.797 3.016-1.536 0-2.797-1.344-2.797-3.016s1.234-3.016 2.797-3.016zm10.008 0c1.535 0 2.797 1.344 2.797 3.016s-1.234 3.016-2.797 3.016c-1.536 0-2.797-1.344-2.797-3.016s1.234-3.016 2.797-3.016z" fill="#fff"/></svg>