<?xml version="1.0" encoding="UTF-8"?>
<svg version="1.1" viewBox="0 0 32 32" xmlns="http://www.w3.org/2000/svg" xmlns:cc="http://creativecommons.org/ns#" xmlns:dc="http://purl.org/dc/elements/1.1/" xmlns:rdf="http://www.w3.org/1999/02/22-rdf-syntax-ns#">
<title>HADES BLACK on Discord</title>
<metadata>
<rdf:RDF>
<cc:Work rdf:about="">
<dc:format>image/svg+xml</dc:format>
<dc:type rdf:resource="http://purl.org/dc/dcmitype/StillImage"/>
<dc:title>HADES BLACK on Discord</dc:title>
<dc:creator>
<cc:Agent>
<dc:title>HADES BLACK</dc:title>
</cc:Agent>
</dc:creator>
<dc:publisher>
<cc:Agent>
<dc:title>HADES BLACK</dc:title>
</cc:Agent>
</dc:publisher>
<dc:description>Vectorized service graphic by HADES BLACK. Exclusively created for "hadesblack.github.io" website and other platforms, where used by HADES BLACK.</dc:description>
<dc:contributor>
<cc:Agent>
<dc:title>HADES BLACK</dc:title>
</cc:Agent>
</dc:contributor>
<dc:subject>
<rdf:Bag>
<rdf:li>hadesblack</rdf:li>
</rdf:Bag>
</dc:subject>
<dc:source>hadesblack.github.io</dc:source>
<dc:rights>
<cc:Agent>
<dc:title>All rights reserved</dc:title>
</cc:Agent>
</dc:rights>
</cc:Work>
</rdf:RDF>
</metadata>
<path d="m11.626 4.5794s-3.7292-0.0821-7.6777 2.8518c0 0-3.9487 7.1021-3.9487 15.849 0 0 2.3033 3.9484 8.3632 4.1404 0 0 1.0149-1.2063 1.8375-2.2483-3.4824-1.042-4.7986-3.2085-4.7986-3.2085s0.27388 0.19227 0.76745 0.46647c0.0274 0 0.055 0.0272 0.10979 0.0546 0.0823 0.0548 0.16463 0.0823 0.24689 0.1371 0.68551 0.38389 1.3707 0.68562 2.0014 0.9324 1.1242 0.46615 2.4682 0.87714 4.0311 1.1788 2.0565 0.38389 4.4696 0.52142 7.102 0.0279 1.2888-0.24678 2.6049-0.60346 3.976-1.1793 0.95972-0.35647 2.0291-0.87756 3.1534-1.6179 0 0-1.3714 2.2213-4.9635 3.2358 0.82261 1.0146 1.8102 2.1936 1.8102 2.1936 6.0599-0.19194 8.3632-4.1405 8.3632-4.1131 0-8.7471-3.9486-15.849-3.9486-15.849-3.9211-2.934-7.6777-2.8518-7.6777-2.8518l-0.38399 0.43916c4.6615 1.3984 6.8278 3.4549 6.8278 3.4549-2.8517-1.5355-5.6485-2.3033-8.2534-2.6049-1.9743-0.21937-3.8666-0.16474-5.5393 0.0546-0.16452 0-0.30141 0.0278-0.46593 0.0552-0.95972 0.10968-3.2908 0.4384-6.2248 1.7272-1.0146 0.43873-1.6174 0.76799-1.6174 0.76799s2.2483-2.1662 7.1839-3.5647zm-0.74014 10.118c1.563 0 2.8241 1.3436 2.7967 3.0162 0 1.6726-1.2337 3.0162-2.7967 3.0162-1.5356 0-2.7972-1.3436-2.7972-3.0162s1.2342-3.0162 2.7972-3.0162zm10.008 0c1.5355 0 2.7967 1.3436 2.7967 3.0162s-1.2337 3.0162-2.7967 3.0162c-1.5356 0-2.7972-1.3436-2.7972-3.0162s1.2342-3.0162 2.7972-3.0162z" fill="#fff"/>
</svg>
