<svg xmlns="http://www.w3.org/2000/svg" width="32" height="32" fill="none" xmlns:v="https://hadesblack.github.io"><path d="M13.05 2.4c-2.52 0-4.57 2.04-4.57 4.57v2.2L5.95 7.62A3.9 3.9 0 0 0 0 10.97v10.1a3.9 3.9 0 0 0 5.95 3.34l2.53-1.54v2.16c0 .86.24 1.7.7 2.43 1.34 2.14 4.16 2.78 6.3 1.44l14.38-9.02c.58-.37 1.08-.86 1.44-1.44 1.34-2.14.7-4.96-1.44-6.3L15.48 3.1c-.73-.46-1.57-.7-2.43-.7zm0 1.62c.55 0 1.1.16 1.57.45L29 13.5c1.38.87 1.8 2.68.93 4.06-.24.38-.55.7-.93.93l-14.38 9.02c-1.38.87-3.2.45-4.06-.93-.3-.47-.45-1-.45-1.57v-3.15l4.13-2.52a3.9 3.9 0 0 0 0-6.69l-4.13-2.52V6.98c0-1.63 1.32-2.95 2.95-2.95zM3.92 8.67a2.3 2.3 0 0 1 1.19.34l3.37 2.05v9.9L5.1 23.02a2.3 2.3 0 0 1-3.49-1.96v-10.1a2.3 2.3 0 0 1 2.29-2.29zm6.2 3.38l3.3 2a2.3 2.3 0 0 1 0 3.92l-3.3 2z" fill="#fff"/></svg>