<svg xmlns="http://www.w3.org/2000/svg" viewBox="0 0 32 32" xmlns:v="https://hadesblack.github.io"><path d="M3.13 32c-.24-.02-.43-.07-.6-.17-.05-.02-.15-.1-.18-.12l-.01-.01 15.4-15.4 4.97 4.98L4.5 31.63c-.34.2-.7.3-1.03.35-.12.02-.25.02-.34.01zM2 31.33a1.8 1.8 0 0 1-.21-.44 2.9 2.9 0 0 1-.14-.83c-.01-.18 0-28.16 0-28.24.03-.37.08-.6.18-.85.04-.1.14-.3.18-.35L2.04.6 17.43 16 2.05 31.38s-.02-.02-.04-.06zm18.56-12.8L18.05 16l5.06-5.06 6.18 3.52a2.7 2.7 0 0 1 .76.68c.3.4.37.85.22 1.3-.15.42-.52.83-1.05 1.15-.08.05-6.1 3.47-6.1 3.47l-2.53-2.53zM10.04 8L2.34.3s.08-.06.12-.1A1.6 1.6 0 0 1 3.6.03c.26.05.55.15.82.3.06.03 18.28 10.38 18.3 10.4l-4.97 4.97c0 0-3.47-3.46-7.7-7.7z" fill="#fff"/></svg>