<?xml version="1.0" encoding="UTF-8"?>
<svg version="1.1" viewBox="0 0 32 32" xmlns="http://www.w3.org/2000/svg" xmlns:cc="http://creativecommons.org/ns#" xmlns:dc="http://purl.org/dc/elements/1.1/" xmlns:rdf="http://www.w3.org/1999/02/22-rdf-syntax-ns#">
<title>HADES BLACK on Google Play</title>
<metadata>
<rdf:RDF>
<cc:Work rdf:about="">
<dc:format>image/svg+xml</dc:format>
<dc:type rdf:resource="http://purl.org/dc/dcmitype/StillImage"/>
<dc:title>HADES BLACK on Google Play</dc:title>
<dc:creator>
<cc:Agent>
<dc:title>HADES BLACK</dc:title>
</cc:Agent>
</dc:creator>
<dc:publisher>
<cc:Agent>
<dc:title>HADES BLACK</dc:title>
</cc:Agent>
</dc:publisher>
<dc:description>Vectorized service graphic by HADES BLACK. Exclusively created for "hadesblack.github.io" website and other platforms, where used by HADES BLACK.</dc:description>
<dc:contributor>
<cc:Agent>
<dc:title>HADES BLACK</dc:title>
</cc:Agent>
</dc:contributor>
<dc:subject>
<rdf:Bag>
<rdf:li>hadesblack</rdf:li>
</rdf:Bag>
</dc:subject>
<dc:source>hadesblack.github.io</dc:source>
<dc:rights>
<cc:Agent>
<dc:title>All rights reserved</dc:title>
</cc:Agent>
</dc:rights>
</cc:Work>
</rdf:RDF>
</metadata>
<path d="m3.1348 31.997c-0.2392-0.016-0.4336-0.069-0.6124-0.1656-0.046-0.025-0.1523-0.094-0.1786-0.1159l-0.012-0.01 7.7044-7.7049 7.7045-7.7047 2.4868 2.4867c1.3676 1.3677 2.4853 2.4879 2.4836 2.4894 0 0-18.13 10.315-18.206 10.357-0.3419 0.1883-0.7068 0.3142-1.0262 0.3541-0.1168 0.015-0.254 0.02-0.3435 0.014zm-1.1233-0.6709c-0.09-0.1382-0.1532-0.2692-0.2092-0.4375-0.081-0.2429-0.1236-0.5048-0.1353-0.831-0.01-0.1822 0-28.163 0-28.241 0.031-0.3714 0.078-0.5967 0.1777-0.8505 0.044-0.1128 0.1409-0.2985 0.1816-0.3487l0.01-0.011 2.1435 2.1428c1.179 1.1785 4.6428 4.6401 7.6976 7.6922 3.0547 3.0523 5.5548 5.5513 5.5556 5.5534 0 0-15.379 15.388-15.385 15.388 0 0-0.019-0.025-0.04-0.056zm18.559-12.803c-1.3886-1.3901-2.5249-2.5285-2.5249-2.5297 0 0 1.1375-1.1397 2.5276-2.5298l2.5278-2.5275 3.0519 1.7346c1.6786 0.9541 3.0856 1.7558 3.1267 1.7815 0.3196 0.1996 0.5857 0.4388 0.7621 0.6847 0.2953 0.412 0.3713 0.8544 0.221 1.2876-0.1474 0.4247-0.516 0.8292-1.0496 1.1517-0.078 0.047-6.1086 3.4743-6.1136 3.4743 0 0-1.1402-1.1372-2.529-2.5274zm-10.534-10.527c-4.2352-4.2321-7.7009-7.6962-7.7015-7.6979 0 0 0.078-0.061 0.1247-0.09 0.3131-0.1936 0.7097-0.254 1.1438-0.1741 0.2597 0.048 0.5521 0.1536 0.8201 0.2965 0.059 0.031 18.281 10.382 18.287 10.387 0 0-4.9678 4.973-4.9713 4.9727 0-1e-4 -3.4672-3.4628-7.7025-7.6947z" fill="#fff" stroke-width=".0040884"/>
</svg>
