<svg xmlns="http://www.w3.org/2000/svg" viewBox="0 0 32 32" fill="#fff" xmlns:v="https://hadesblack.github.io"><path d="M5.52.84a7.89 7.89 0 0 0-2.833 1.85A7.87 7.87 0 0 0 .839 5.517C.443 6.53.177 7.698.098 9.402L0 15.995l.098 6.598c.08 1.704.35 2.87.74 3.885a7.89 7.89 0 0 0 1.85 2.833c.9.9 1.78 1.437 2.833 1.85 1.015.396 2.18.66 3.885.74L16 32l6.593-.098c1.704-.08 2.87-.35 3.885-.74a7.89 7.89 0 0 0 2.833-1.849c.9-.9 1.437-1.78 1.85-2.833.396-1.015.66-2.18.74-3.885l.1-6.6-.1-6.593c-.08-1.704-.35-2.87-.74-3.885a8 8 0 0 0-1.838-2.828c-.896-.9-1.787-1.437-2.84-1.85-1.015-.396-2.177-.66-3.88-.74l-6.6-.098-6.6.1c-1.7.068-2.876.344-3.9.74zm16.942 2.135c1.562.073 2.405.333 2.973.553a4.88 4.88 0 0 1 1.838 1.197 4.9 4.9 0 0 1 1.197 1.838c.224.568.485 1.4.553 2.973l.093 6.47-.093 6.464c-.068 1.56-.33 2.405-.553 2.973a4.88 4.88 0 0 1-1.197 1.838c-.557.562-1.088.907-1.838 1.197-.568.224-1.4.485-2.973.552L16 29.126c-4.27 0-4.78-.02-6.464-.095-1.562-.067-2.405-.328-2.973-.552a4.88 4.88 0 0 1-1.838-1.197c-.562-.557-.907-1.088-1.197-1.838-.224-.568-.485-1.412-.553-2.973l-.093-6.464.093-6.47c.068-1.562.33-2.405.553-2.973a4.92 4.92 0 0 1 1.197-1.838 4.86 4.86 0 0 1 1.838-1.197c.568-.22 1.4-.48 2.973-.553L16 2.88l6.464.093zM7.786 16.006A8.22 8.22 0 0 0 16 24.219c4.53 0 8.213-3.683 8.213-8.213 0-4.536-3.672-8.22-8.213-8.22s-8.213 3.678-8.213 8.22zm13.546 0c0 2.943-2.385 5.333-5.333 5.333s-5.333-2.4-5.333-5.333c0-2.948 2.385-5.338 5.333-5.338s5.333 2.4 5.333 5.338zm5.13-8.54a1.92 1.92 0 0 1-1.917 1.916c-1.063 0-1.916-.86-1.916-1.916 0-1.062.853-1.923 1.916-1.923a1.92 1.92 0 0 1 1.917 1.923z"/></svg>