<?xml version="1.0" encoding="UTF-8"?>
<svg version="1.1" viewBox="0 0 32 32" xml:space="preserve" xmlns="http://www.w3.org/2000/svg" xmlns:cc="http://creativecommons.org/ns#" xmlns:dc="http://purl.org/dc/elements/1.1/" xmlns:rdf="http://www.w3.org/1999/02/22-rdf-syntax-ns#"><metadata><rdf:RDF><cc:Work rdf:about=""><dc:format>image/svg+xml</dc:format><dc:type rdf:resource="http://purl.org/dc/dcmitype/StillImage"/><dc:title>HADES BLACK on Instagram</dc:title><dc:creator><cc:Agent><dc:title>HADES BLACK</dc:title></cc:Agent></dc:creator><dc:publisher><cc:Agent><dc:title>HADES BLACK</dc:title></cc:Agent></dc:publisher><dc:description>Vectorized service graphic by HADES BLACK. Exclusively created for "hadesblack.github.io" website and other platforms, where used by HADES BLACK.</dc:description><dc:contributor><cc:Agent><dc:title>HADES BLACK</dc:title></cc:Agent></dc:contributor><dc:subject><rdf:Bag><rdf:li>hadesblack</rdf:li></rdf:Bag></dc:subject><dc:source>hadesblack.github.io</dc:source><dc:rights><cc:Agent><dc:title>All rights reserved</dc:title></cc:Agent></dc:rights></cc:Work></rdf:RDF></metadata><g transform="matrix(1.3333 0 0 -1.3333 0 32)"><g transform="scale(.1)" fill="#f1ffff"><path d="m41.41 233.71c-7.8907-3.09-14.57-7.191-21.25-13.871-6.6797-6.641-10.781-13.36-13.871-21.211-2.9688-7.609-4.9609-16.359-5.5508-29.141-0.57812-12.769-0.73828-16.867-0.73828-49.449 0-32.617 0.16016-36.719 0.73828-49.488 0.58985-12.781 2.6211-21.531 5.5508-29.141 3.0898-7.8907 7.1914-14.57 13.871-21.25 6.6796-6.6797 13.359-10.781 21.25-13.871 7.6093-2.9688 16.359-4.9609 29.141-5.5508 12.77-0.57812 16.871-0.73828 49.449-0.73828 32.578 0 36.68 0.16016 49.449 0.73828 12.781 0.58985 21.531 2.6211 29.141 5.5508 7.89 3.0898 14.57 7.1914 21.25 13.871 6.68 6.6796 10.781 13.359 13.871 21.25 2.969 7.6093 4.961 16.359 5.551 29.141 0.578 12.77 0.738 16.871 0.738 49.488 0 32.582-0.16 36.68-0.738 49.449-0.59 12.782-2.621 21.532-5.551 29.141-3.09 7.851-7.191 14.57-13.789 21.211-6.723 6.68-13.402 10.781-21.293 13.871-7.609 2.969-16.328 4.961-29.098 5.551-12.812 0.578-16.91 0.738-49.492 0.738-32.578 0-36.68-0.16-49.449-0.738-12.82-0.512-21.57-2.582-29.18-5.551zm127.07-16.012c11.719-0.551 18.04-2.5 22.301-4.148 5.629-2.18 9.61-4.762 13.789-8.981 4.219-4.179 6.801-8.199 8.981-13.789 1.679-4.261 3.64-10.582 4.148-22.301 0.582-12.66 0.699-16.449 0.699-48.519 0-32.031-0.16-35.859-0.699-48.48-0.508-11.711-2.469-18.039-4.148-22.301-2.18-5.6289-4.762-9.6094-8.981-13.789-4.179-4.2187-8.16-6.8008-13.789-8.9804-4.261-1.6797-10.582-3.6407-22.301-4.1407-12.621-0.5898-16.449-0.7109-48.48-0.7109-32.031 0-35.859 0.1602-48.48 0.7109-11.719 0.5-18.039 2.461-22.301 4.1407-5.629 2.1796-9.6094 4.7617-13.789 8.9804-4.2188 4.1797-6.8008 8.1602-8.9805 13.789-1.6797 4.2617-3.6406 10.59-4.1484 22.301-0.582 12.621-0.6992 16.449-0.6992 48.48 0 32.07 0.1601 35.859 0.6992 48.519 0.5078 11.719 2.4687 18.04 4.1484 22.301 2.1797 5.59 4.7617 9.61 8.9805 13.789 4.1797 4.219 8.1601 6.801 13.789 8.981 4.2617 1.648 10.582 3.597 22.301 4.148 12.621 0.582 16.449 0.699 48.48 0.699 32.031 0 35.859-0.117 48.48-0.699z"/><path d="m58.398 119.96c0-34.02 27.621-61.602 61.602-61.602 33.98 0 61.602 27.621 61.602 61.602 0 34.019-27.543 61.641-61.602 61.641-34.059 0-61.602-27.582-61.602-61.641zm101.6 0c0-22.07-17.891-40-40-40-22.109 0-40 17.93-40 40 0 22.109 17.891 40.039 40 40.039 22.109 0 40-17.93 40-40.039z"/><path d="m198.48 184.02c0-7.93-6.449-14.372-14.378-14.372-7.973 0-14.372 6.442-14.372 14.372 0 7.968 6.399 14.421 14.372 14.421 7.929 0 14.378-6.453 14.378-14.421z"/></g></g></svg>
