<?xml version="1.0" encoding="UTF-8"?>
<svg width="32" height="32" enable-background="new 36.471 38.394 437.749 439.6" version="1.1" viewBox="36.471 38.394 32 32" xmlns="http://www.w3.org/2000/svg" xmlns:cc="http://creativecommons.org/ns#" xmlns:dc="http://purl.org/dc/elements/1.1/" xmlns:rdf="http://www.w3.org/1999/02/22-rdf-syntax-ns#">
<title>HADES BLACK on iTunes</title>
<metadata>
<rdf:RDF>
<cc:Work rdf:about="">
<dc:format>image/svg+xml</dc:format>
<dc:type rdf:resource="http://purl.org/dc/dcmitype/StillImage"/>
<dc:title>HADES BLACK on Amazon</dc:title>
<dc:creator>
<cc:Agent>
<dc:title>HADES BLACK</dc:title>
</cc:Agent>
</dc:creator>
<dc:publisher>
<cc:Agent>
<dc:title>HADES BLACK</dc:title>
</cc:Agent>
</dc:publisher>
<dc:description>Vectorized service graphic by HADES BLACK. Exclusively created for "hadesblack.github.io" website and other platforms, where used by HADES BLACK.</dc:description>
<dc:contributor>
<cc:Agent>
<dc:title>HADES BLACK</dc:title>
</cc:Agent>
</dc:contributor>
<dc:subject>
<rdf:Bag>
<rdf:li>hadesblack</rdf:li>
</rdf:Bag>
</dc:subject>
<dc:source>hadesblack.github.io</dc:source>
<dc:rights>
<cc:Agent>
<dc:title>All rights reserved</dc:title>
</cc:Agent>
</dc:rights>
</cc:Work>
</rdf:RDF>
</metadata>
<path d="m43.448 66.939c-6.9295-4.9852-8.507-14.643-3.5235-21.571 4.9831-6.9282 14.641-8.5035 21.57-3.5183 6.9294 4.985 8.507 14.643 3.5239 21.571-4.9835 6.9282-14.641 8.5035-21.571 3.5183z" fill="none" stroke="#fff" stroke-miterlimit="10" stroke-width="1.0944"/>
<path d="m57.976 61.759c0.97866-0.28575 1.6696-0.97883 1.9524-1.9578l0.0834-0.28772 0.011-7.7181c8e-3 -5.78 2.9e-4 -7.7541-0.032-7.8618-0.0339-0.11423-0.0877-0.21003-0.15816-0.28575-0.10361-0.0636-0.22814-0.097-0.36926-0.0968-0.0973 0-0.43514 0.0467-0.7503 0.10375-1.3943 0.25276-9.6131 1.8825-9.7534 1.9342-0.21718 0.0799-0.43229 0.26987-0.53438 0.47147l-0.0865 0.1708s-0.0409 12.098-0.10383 12.234c-0.0957 0.20726-0.30827 0.40361-0.50424 0.46615-0.0929 0.0298-0.45986 0.11175-0.8161 0.18222-1.649 0.32673-2.2614 0.5621-2.7795 1.0685-0.29424 0.28749-0.51213 0.68004-0.60632 1.0919-0.0901 0.39372-0.06 0.98283 0.0684 1.3411 0.13446 0.37464 0.3509 0.6946 0.63388 0.94635 0.25725 0.19736 0.56092 0.34428 0.90232 0.4315 0.75483 0.19242 2.168-0.0216 2.8905-0.43769 0.30214-0.17406 0.69077-0.53896 0.89288-0.83912 0.0801-0.11889 0.20036-0.35797 0.2677-0.53175 0.23531-0.60848 0.24269-11.446 0.27275-11.583 0.051-0.23166 0.21008-0.40122 0.42921-0.45881 0.1975-0.0516 8.1113-1.6094 8.3341-1.6405 0.19596-0.0271 0.38096 0.0358 0.48201 0.15966 0.06 0.032 0.11056 0.0752 0.14602 0.12836 0.0643 0.0953 0.0682 0.28371 0.0777 3.7149 0.011 3.9493 0.0159 3.8567-0.19976 4.106-0.15692 0.1812-0.35259 0.25146-1.157 0.41483-1.2238 0.24876-1.6426 0.36692-2.1114 0.59457-0.58519 0.28473-0.91021 0.59654-1.1614 1.1145-0.1776 0.36641-0.24393 0.64102-0.24342 1.0056 1e-3 0.65224 0.22704 1.1616 0.73669 1.6604 0.047 0.0459 0.0931 0.0887 0.13959 0.12886 0.25673 0.19765 0.51856 0.31683 0.84776 0.39233 0.49648 0.1138 1.507 0.0389 2.1986-0.16322z" fill="#fff" stroke-width=".072961"/>
</svg>
