<svg xmlns="http://www.w3.org/2000/svg" width="32" height="32" viewBox="36.471 38.394 32 32" xmlns:v="https://hadesblack.github.io"><path d="M43.448 66.94a15.46 15.46 0 0 1-3.523-21.571c4.983-6.928 14.64-8.504 21.57-3.518a15.46 15.46 0 0 1 3.524 21.571c-4.983 6.928-14.64 8.504-21.57 3.518z" fill="none" stroke="#fff" stroke-miterlimit="10" stroke-width="1.094"/><path d="M57.976 61.76c.98-.286 1.67-.98 1.952-1.958l.083-.288.01-7.718-.032-7.862a.71.71 0 0 0-.158-.286c-.104-.064-.228-.097-.37-.097-.097 0-.435.047-.75.104L48.96 45.59c-.217.08-.432.27-.534.47l-.087.17-.104 12.234c-.096.207-.308.404-.504.466-.093.03-.46.112-.816.182-1.65.327-2.26.562-2.78 1.07-.294.287-.512.68-.606 1.092-.1.394-.06.983.068 1.34a2.29 2.29 0 0 0 .634.946c.257.197.56.344.902.43.755.192 2.168-.022 2.89-.438a3.15 3.15 0 0 0 .893-.839c.08-.12.2-.358.268-.532.235-.608.243-11.446.273-11.583a.59.59 0 0 1 .429-.459 961.97 961.97 0 0 1 8.334-1.641c.196-.027.38.036.482.16a.4.4 0 0 1 .146.128c.064.095.068.284.078 3.715.01 3.95.016 3.857-.2 4.106-.157.18-.353.25-1.157.415-1.224.25-1.643.367-2.11.595-.585.285-.9.597-1.16 1.114-.178.366-.244.64-.243 1.006.001.652.227 1.162.737 1.66.047.046.093.09.14.13.257.198.52.317.848.392.496.114 1.507.04 2.2-.163z" fill="#fff"/></svg>