<svg xmlns="http://www.w3.org/2000/svg" viewBox="0 0 32 32" xmlns:v="https://hadesblack.github.io"><path d="M14.1 22.94l-1.17-3.2s-1.9 2.13-4.76 2.13c-2.53 0-4.32-2.2-4.32-5.72 0-4.5 2.27-6.12 4.5-6.12 3.22 0 4.25 2.1 5.13 4.76l1.17 3.66c1.17 3.55 3.37 6.4 9.7 6.4 4.54 0 7.62-1.4 7.62-5.06 0-2.97-1.7-4.5-4.84-5.24l-2.35-.5c-1.6-.37-2.1-1.03-2.1-2.13 0-1.25 1-1.98 2.6-1.98 1.76 0 2.7.66 2.86 2.24l3.66-.44c-.3-3.3-2.57-4.65-6.3-4.65-3.3 0-6.52 1.25-6.52 5.24 0 2.5 1.2 4.07 4.25 4.8l2.5.6c1.87.44 2.5 1.2 2.5 2.27 0 1.36-1.32 1.9-3.8 1.9-3.7 0-5.24-1.94-6.12-4.62l-1.2-3.66c-1.54-4.76-4-6.52-8.87-6.52-5.4 0-8.25 3.4-8.25 9.2 0 5.57 2.86 8.58 8 8.58 4.14 0 6.12-1.94 6.12-1.94z" fill="#fff"/></svg>