<?xml version="1.0" encoding="UTF-8"?>
<svg enable-background="new 0 0 708.767 179.332" version="1.1" viewBox="0 0 32 32" xml:space="preserve" xmlns="http://www.w3.org/2000/svg" xmlns:cc="http://creativecommons.org/ns#" xmlns:dc="http://purl.org/dc/elements/1.1/" xmlns:rdf="http://www.w3.org/1999/02/22-rdf-syntax-ns#"><title>HADES BLACK on Last.fm</title><metadata><rdf:RDF><cc:Work rdf:about=""><dc:format>image/svg+xml</dc:format><dc:type rdf:resource="http://purl.org/dc/dcmitype/StillImage"/><dc:title>HADES BLACK on Amazon</dc:title><dc:creator><cc:Agent><dc:title>HADES BLACK</dc:title></cc:Agent></dc:creator><dc:publisher><cc:Agent><dc:title>HADES BLACK</dc:title></cc:Agent></dc:publisher><dc:description>Vectorized service graphic by HADES BLACK. Exclusively created for "hadesblack.github.io" website and other platforms, where used by HADES BLACK.</dc:description><dc:contributor><cc:Agent><dc:title>HADES BLACK</dc:title></cc:Agent></dc:contributor><dc:subject><rdf:Bag><rdf:li>hadesblack</rdf:li></rdf:Bag></dc:subject><dc:source>hadesblack.github.io</dc:source><dc:rights><cc:Agent><dc:title>All rights reserved</dc:title></cc:Agent></dc:rights></cc:Work></rdf:RDF></metadata>
<g transform="matrix(.14043 0 0 .14043 -8.1356 -.29426)" fill="#d51007">
	<path d="m158.43 165.5-8.354-22.708s-13.575 15.14-33.932 15.14c-18.013 0-30.802-15.662-30.802-40.721 0-32.106 16.182-43.591 32.107-43.591 22.969 0 30.277 14.878 36.543 33.934l8.354 26.103c8.351 25.318 24.013 45.678 69.17 45.678 32.37 0 54.295-9.918 54.295-36.02 0-21.143-12.009-32.107-34.458-37.328l-16.705-3.654c-11.484-2.61-14.877-7.309-14.877-15.14 0-8.875 7.046-14.096 18.533-14.096 12.529 0 19.315 4.699 20.36 15.923l26.102-3.133c-2.088-23.492-18.271-33.15-44.896-33.15-23.491 0-46.462 8.875-46.462 37.327 0 17.75 8.614 28.975 30.277 34.195l17.752 4.175c13.312 3.133 17.748 8.614 17.748 16.185 0 9.656-9.396 13.572-27.146 13.572-26.364 0-37.325-13.834-43.591-32.89l-8.614-26.101c-10.961-33.934-28.452-46.463-63.169-46.463-38.37 0-58.731 24.275-58.731 65.517 0 39.677 20.361 61.08 56.906 61.08 29.492 0 43.59-13.834 43.59-13.834z" fill="#fff"/>





</g>
</svg>
