<?xml version="1.0" encoding="UTF-8"?>
<svg enable-background="new 0 0 715.015 678.719" overflow="visible" version="1.1" viewBox="0 0 32 32" xml:space="preserve" xmlns="http://www.w3.org/2000/svg" xmlns:cc="http://creativecommons.org/ns#" xmlns:dc="http://purl.org/dc/elements/1.1/" xmlns:rdf="http://www.w3.org/1999/02/22-rdf-syntax-ns#"><title>HADES BLACK on Napster</title><metadata><rdf:RDF><cc:Work rdf:about=""><dc:format>image/svg+xml</dc:format><dc:type rdf:resource="http://purl.org/dc/dcmitype/StillImage"/><dc:title>HADES BLACK on Amazon</dc:title><dc:creator><cc:Agent><dc:title>HADES BLACK</dc:title></cc:Agent></dc:creator><dc:publisher><cc:Agent><dc:title>HADES BLACK</dc:title></cc:Agent></dc:publisher><dc:description>Vectorized service graphic by HADES BLACK. Exclusively created for "hadesblack.github.io" website and other platforms, where used by HADES BLACK.</dc:description><dc:contributor><cc:Agent><dc:title>HADES BLACK</dc:title></cc:Agent></dc:contributor><dc:subject><rdf:Bag><rdf:li>hadesblack</rdf:li></rdf:Bag></dc:subject><dc:source>hadesblack.github.io</dc:source><dc:rights><cc:Agent><dc:title>All rights reserved</dc:title></cc:Agent></dc:rights></cc:Work></rdf:RDF></metadata>
<g transform="matrix(.044754 0 0 .044754 3.3854e-5 .81221)">
	<path d="m357.51 0c-65.092 0.046-140.07 25.45-218.6 101.52 0 0-29.473-9.8242-73.684-9.8242l2.4551 98.244s-152.28 110.53 0 230.88c34.387 260.35 289.83 257.9 289.83 257.9s255.44 2.4556 289.83-257.9c152.28-120.35 0-230.88 0-230.88l2.4551-98.246c-44.211 0-73.684 9.8242-73.684 9.8242-78.525-76.07-153.5-101.47-218.6-101.52zm-4.248 57.244c1.4114 0.0053 2.8281 0.02608 4.248 0.06445 90.879-2.456 164.56 63.861 164.56 63.861l-29.473 17.193c-73.684-34.386-135.09-31.93-135.09-31.93s-61.404-2.4563-135.09 31.93l-29.477-17.193s71.401-64.26 160.32-63.926zm-231.54 95.855s58.948 17.194 100.7 54.037c0 0 127.72-98.247 270.18 0 41.756-36.843 100.7-54.035 100.7-54.035v250.53c-34.385 230.88-235.79 221.05-235.79 221.05s-201.41 9.8243-235.79-221.05z" fill="#fff"/>
</g>


<g transform="matrix(.044754 0 0 .044754 3.3854e-5 .81221)" fill="#fff">
	<path d="m342.97 465.51s5.732-79.009-85.964-81.465l-81.054-2e-3s-5.731 79.006 85.966 81.465z"/>
	<path d="m372.24 465.51s-5.73-79.009 85.967-81.465l81.052-2e-3s5.732 79.006-85.964 81.465z"/>
</g>
<g transform="matrix(.044754 0 0 .044754 3.3854e-5 .81221)">
	<path d="m428.74 496.96s-19.648 24.561-71.228 41.753c-51.58-17.192-68.772-41.753-68.772-41.753z" fill="#fff"/>
</g>
<g transform="matrix(.044754 0 0 .044754 3.3854e-5 .81221)">
	<path d="m357.51 595.21c63.86-4.912 68.772-22.104 68.772-22.104-4.912-12.28-17.192-19.651-17.192-19.651-24.563 9.827-51.58 7.371-51.58 7.371s-27.018 2.456-51.58-7.371c0 0-12.28 7.371-17.192 19.651 0-1e-3 4.912 17.191 68.772 22.104z" fill="#fff"/>
</g>
</svg>
