<svg xmlns="http://www.w3.org/2000/svg" overflow="visible" viewBox="0 0 32 32" fill="#fff" xmlns:v="https://hadesblack.github.io"><path d="M16 .812c-2.913.002-6.27 1.14-9.783 4.543 0 0-1.32-.44-3.298-.44l.1 4.397s-6.815 4.947 0 10.333C4.568 31.297 16 31.188 16 31.188s11.432.1 12.97-11.542c6.815-5.386 0-10.333 0-10.333l.1-4.397c-1.98 0-3.298.44-3.298.44C22.27 1.95 18.914.814 16 .812zm-.2 2.562l.2.003c4.067-.1 7.365 2.858 7.365 2.858l-1.32.77C18.748 5.466 16 5.575 16 5.575s-2.748-.1-6.046 1.43l-1.32-.77S11.83 3.36 15.8 3.374zm-10.362 4.3s2.638.77 4.507 2.418c0 0 5.716-4.397 12.092 0 1.87-1.65 4.507-2.418 4.507-2.418v11.212C25.014 29.2 16 28.77 16 28.77s-9.014.44-10.553-9.893zm9.912 13.972S15.606 18.1 11.502 18H7.875s-.256 3.536 3.847 3.646zm1.3 0S16.403 18.1 20.507 18h3.627s.257 3.536-3.847 3.646zm2.528 1.407s-.88 1.1-3.188 1.87c-2.308-.77-3.078-1.87-3.078-1.87zM16 27.45c2.858-.22 3.078-1 3.078-1-.22-.55-.77-.88-.77-.88-1.1.44-2.308.33-2.308.33s-1.2.1-2.308-.33c0 0-.55.33-.77.88 0 0 .22.77 3.078 1z"/></svg>