<svg xmlns="http://www.w3.org/2000/svg" viewBox="0 0 32 32" xmlns:v="https://hadesblack.github.io"><defs><style>  .a{fill:#fff;}</style></defs><path d="m29.483 3.373a2.547 2.547 0 0 0-1.28 0.316 0.164 0.164 0 0 0-0.025 0.007 2.686 2.686 0 0 0-0.378 0.269 0.231 0.231 0 0 1-0.051 0.038c-0.005 0.007-0.009 0.013-0.013 0.019-0.137 0.108-0.275 0.219-0.416 0.333a0.022 0.022 0 0 0-0.013 0.019l-1.472 1.184c-0.149 0.116-0.296 0.234-0.442 0.352a0.029 0.029 0 0 0-0.013 0.006h-0.006c-0.035 0.031-0.073 0.064-0.115 0.096a2.103 2.103 0 0 0-0.39 0.403 1.616 1.616 0 0 0-0.186 0.314 1.234 1.234 0 0 0-0.07 0.166 0.158 0.158 0 0 1-0.007 0.019l-3.481 2.452c0 0.002-0.002 0.004-0.007 0.006-0.105-0.08-0.207-0.154-0.307-0.224a0.431 0.431 0 0 0-0.141-0.051l-6.806-1.011a0.072 0.072 0 0 1-0.003-0.007l-0.007-0.006c-0.065-0.197-0.139-0.391-0.224-0.582a6.167 6.167 0 0 0-0.358-0.678c-0.082-0.057-0.125-0.088-0.128-0.09-0.046-0.028-0.092-0.058-0.141-0.09-0.13-0.082-0.262-0.161-0.397-0.237a0.048 0.048 0 0 0-0.013-0.006 0.919 0.919 0 0 0-0.205-0.102c-0.015-0.004-0.03-0.009-0.045-0.013h-0.006l-0.013-0.006 0.077-0.224 0.333-0.128a2.16 2.16 0 0 0 0.051-0.224 4.653 4.652 0 0 0 0.083-0.602l-0.096-0.141a2.921 2.921 0 0 0 0.045-0.512 1.368 1.368 0 0 0-0.23-0.128 1.116 1.116 0 0 0-0.333-0.474 1.441 1.441 0 0 0-1.888 0 1.104 1.104 0 0 0-0.378 0.73v0.006a0.175 0.175 0 0 1-0.032 0.007 0.546 0.546 0 0 0-0.243 0.186v0.006a4.946 4.946 0 0 0-0.032 0.518c0.007 0.144 0.015 0.257 0.026 0.339l0.032 0.058 0.007 0.007a0.47 0.47 0 0 0 0.269 0.154 0.364 0.364 0 0 0 0.051 0.173 0.063 0.063 0 0 0-0.013 0c-0.158 0.046-0.321 0.091-0.486 0.134-0.117 0.034-0.234 0.066-0.352 0.096a2.134 2.134 0 0 0-0.333 0.135l-0.013 0.006-0.294 0.768c-0.044 0.159-0.091 0.317-0.141 0.474-0.015 0.056-0.03 0.112-0.045 0.166-0.027 0.245-0.071 0.55-0.134 0.915a1.724 1.724 0 0 0 0.051 0.454 1.642 1.642 0 0 0 0.32 0.623c-0.011 0.007-0.007 0.004-0.019 0.011-0.281 0.183-0.562 0.37-0.845 0.563-0.149 0.103-0.301 0.208-0.454 0.314-0.357 0.257-0.716 0.521-1.075 0.794-0.164 0.126-0.328 0.252-0.493 0.378-0.12 0.097-0.242 0.193-0.365 0.288a0.356 0.356 0 0 0-0.128 0.224c-0.066 0.527-0.121 1.069-0.166 1.626-0.033 0.399-0.061 0.807-0.083 1.223-0.016 0.386-0.031 0.788-0.045 1.204-0.006 0.297-0.012 0.6-0.019 0.909-0.957 0.85-1.808 1.646-2.553 2.387-0.498 0.497-0.948 0.968-1.35 1.414a5.568 5.568 0 0 0-0.141 1.568c-0.093 0.12-0.185 0.245-0.275 0.378a0.019 0.019 0 0 1-0.006 0.013c-0.405 0.61-0.608 1.357-0.608 2.24a4.107 4.107 0 0 0 0.608 2.259 0.025 0.025 0 0 1 0 0.013c0.378 0.593 0.826 0.93 1.344 1.011l0.224 0.019h0.013a0.105 0.105 0 0 0 0.032 0 0.027 0.027 0 0 0 0.019 0c0.003 0.002 0.005 0.002 0.006 0 0.092 0.003 0.225 0.001 0.397-0.006H25.535a0.116 0.116 0 0 0 0.077-0.019 3.83 3.83 0 0 0 0.582-0.378h0.007a7.659 7.659 0 0 0 2.221-2.592 10.87 10.87 0 0 0 0.819-1.99 10.491 10.491 0 0 0 0.288-1.171 13.723 13.723 0 0 0 0.237-2.759c-0.003-0.177-0.009-0.354-0.019-0.531l0.941-0.672a0.324 0.324 0 0 0 0.141-0.237v-0.006a0.252 0.252 0 0 0 0-0.09v-0.006a1.534 1.534 0 0 0-0.109-0.307c-0.033-0.072-0.065-0.144-0.096-0.218v0.007c-0.027-0.067-0.055-0.136-0.083-0.205h-0.006c-0.043-0.101-0.09-0.2-0.141-0.295-0.05-0.093-0.102-0.185-0.154-0.275-0.039-0.065-0.08-0.129-0.122-0.192a4.722 4.722 0 0 0-0.589-0.762 3.505 3.505 0 0 0-0.339-0.307 3.088 3.088 0 0 0-1.03-0.563 0.028 0.028 0 0 1-0.013 0c-0.008-0.002-0.016-0.004-0.025-0.006a17.727 17.727 0 0 0-2.189-0.327c-0.458-0.04-0.953-0.07-1.485-0.09l-0.038-0.666a0.071 0.071 0 0 0-0.007-0.019 0.316 0.316 0 0 0-0.019-0.102c-0.009-0.018-0.02-0.037-0.032-0.058a0.391 0.391 0 0 0-0.038-0.045l-0.007-0.006a0.316 0.316 0 0 0-0.211-0.109l-0.774-0.096c-0.01-0.14-0.027-0.281-0.051-0.422a6.151 6.151 0 0 0-0.192-0.845c-0.109-0.358-0.188-0.595-0.237-0.71 0.147-0.076 0.294-0.153 0.442-0.23 0.471-0.25 0.943-0.501 1.414-0.755 0.542-0.29 1.086-0.58 1.632-0.87a0.023 0.023 0 0 0 0.019 0.007 1.916 1.916 0 0 0 0.295 0.006 2.069 2.069 0 0 0 0.678-0.134c0.005 0 0.007-0.002 0.006-0.006a0.445 0.445 0 0 1 0.058-0.019 0.009 0.009 0 0 0 0.007-0.006l0.007-0.006 2.924-1.248a0.012 0.012 0 0 0 0.013-0.006 2.501 2.501 0 0 0 0.864-0.525 2.587 2.587 0 0 0 0.378-0.429v-0.006c0.005 0.001 0.007-0.002 0.006-0.006a2.403 2.403 0 0 0 0.416-1.306 2.46 2.46 0 0 0-0.397-1.44 0.055 0.055 0 0 0-0.013-0.013 0.044 0.044 0 0 0-0.019-0.026 2.575 2.575 0 0 0-0.256-0.333c-0.002 0-0.004-0.003-0.006-0.006h-0.007l-0.007-0.006a2.547 2.547 0 0 0-1.811-0.809zm0.019 0.507a2.114 2.114 0 0 1 0.02 0.001 2.014 2.014 0 0 1 1.414 0.659 2.749 2.749 0 0 1 0.236 0.3l-0.006-0.006a1.94 1.939 0 0 1 0.32 1.158 1.872 1.872 0 0 1-0.634 1.383 1.962 1.962 0 0 1-0.704 0.429c0 0.001-0.002 0.001-0.006 0 0 0.003-0.002 0.005-0.007 0.006a2.013 2.013 0 0 1-0.729 0.09 1.974 1.974 0 0 1-1.018-0.32 0.135 0.135 0 0 0-0.019-0.006c-0.02-0.016-0.042-0.033-0.064-0.051a0.216 0.216 0 0 0-0.045-0.026 2.509 2.509 0 0 1-0.275-0.256 2.408 2.408 0 0 1-0.243-0.314 1.974 1.974 0 0 1-0.243-0.55l0.006-0.006a2.401 2.401 0 0 1-0.057-0.423c-0.005-0.134-0.007-0.217-0.006-0.249a1.437 1.437 0 0 0-0.179 0.768l-2.227 1.53a1.891 1.891 0 0 1-0.038-0.288 1.951 1.951 0 0 1 0.006-0.288 1.276 1.276 0 0 1 0.045-0.23v-0.013h0.007v-0.006c0.001 0 0.001-0.002 0-0.006a1.992 1.992 0 0 1 0.083-0.218 1.797 1.797 0 0 1 0.243-0.365 0.258 0.258 0 0 0 0.039-0.039l0.55-0.467c0.596-0.515 1.221-1.029 1.875-1.543l0.448-0.339a2.114 2.114 0 0 1 1.209-0.315zm0.135 0.321a1.618 1.618 0 0 0-1.689 1.562 1.716 1.716 0 0 0 0.051 0.461 1.582 1.582 0 0 0 0.198 0.461c0.004 0.004 0.006 0.006 0.006 0.007 0.004 0.004 0.006 0.006 0.007 0.006a1.749 1.749 0 0 0 0.185 0.23v0.007c0.021 0.022 0.042 0.044 0.064 0.064a1.655 1.655 0 0 0 0.378 0.281 1.636 1.636 0 0 0 0.698 0.186h0.007a1.561 1.561 0 0 0 1.177-0.429 1.088 1.088 0 0 0 0.365-0.512l-1.913 0.563A1.266 1.266 0 0 1 28.864 6.928l2.374-1.12c0.003 0.018 0.003 0.003 0-0.045a0.727 0.727 0 0 0-0.134-0.486l-2.477 1.434a1.219 1.219 0 0 1-0.275-0.493l1.83-1.69a0.835 0.835 0 0 1 0.403 0.09c0.023 0.009 0.044 0.018 0.064 0.026a1.3 1.3 0 0 0-0.448-0.32c-0.034-0.014-0.071-0.027-0.109-0.039a1.739 1.739 0 0 0-0.454-0.083zm-18.32 0.143a4.503 4.503 0 0 1 1.259 0.177 0.437 0.437 0 0 1 0.039 0.077 1.14 1.14 0 0 1-0.058 0.518 0.186 0.186 0 0 1-0.051 0.083 0.59 0.59 0 0 1-0.224-0.006c0.004-0.001 0.004-0.005 0-0.013l-0.045-0.128c0-0.001-0.002-0.004-0.007-0.006l-0.025-0.07v-0.006a0.11 0.11 0 0 0-0.102-0.077c-0.08-0.011-0.164-0.019-0.25-0.026a0.145 0.145 0 0 0-0.128 0.077l-0.071 0.09a0.047 0.047 0 0 1-0.006 0.013l-0.045 0.051a0.278 0.278 0 0 1-0.173 0.051 1.784 1.784 0 0 1-0.595-0.051c-0.033-0.014-0.058-0.112-0.077-0.294a2.442 2.442 0 0 1 0.013-0.384c0.015-0.009 0.03-0.018 0.045-0.026v-0.006a0.085 0.085 0 0 0 0.026-0.013 0.116 0.116 0 0 0 0.026-0.006 4.503 4.503 0 0 1 0.45-0.023zm0.636 0.791a0.425 0.425 0 0 1 0.111 0.02 0.053 0.053 0 0 1 0.007 0.026c0.009 0.02 0.018 0.04 0.026 0.058a0.403 0.403 0 0 1 0.013 0.064c0.003 0.011 0.01 0.028 0.019 0.051a0.154 0.154 0 0 1 0.006 0.039l0.007 0.013c0.022 0.006 0.043 0.012 0.064 0.019 0.018 0.004 0.037 0.009 0.058 0.013a0.166 0.166 0 0 0 0.019 0.013 0.122 0.122 0 0 1 0.032 0.013 0.046 0.046 0 0 1 0.026 0.038c-0.009 0.052-0.015 0.091-0.019 0.115a0.642 0.642 0 0 1-0.025 0.077 0.082 0.082 0 0 1-0.013 0.032c-0.016 0.052-0.033 0.101-0.051 0.147l-0.025 0.071a0.09 0.09 0 0 1-0.038 0.045 0.443 0.443 0 0 1-0.115 0.064 0.729 0.729 0 0 1-0.173 0.039c-0.014 0.003-0.029 0.005-0.045 0.006a0.314 0.314 0 0 1-0.045 0 0.54 0.54 0 0 1-0.083 0 0.253 0.253 0 0 1-0.045-0.006l-0.141-0.039c-0.041-0.019-0.083-0.041-0.128-0.064a0.415 0.415 0 0 1-0.115-0.096 1.16 1.16 0 0 1-0.045-0.141c-0.007-0.018-0.013-0.037-0.019-0.058-0.007-0.028-0.013-0.056-0.019-0.083a0.075 0.075 0 0 1-0.007-0.032l-0.006-0.006v-0.006a0.022 0.022 0 0 0 0-0.013 0.34 0.34 0 0 1 0.006-0.038c0.007-0.017 0.013-0.035 0.019-0.051 0.009-0.018 0.041-0.031 0.096-0.039l0.019-0.006a0.871 0.871 0 0 0 0.102-0.006c0.052-0.007 0.107-0.016 0.166-0.026a0.51 0.51 0 0 0 0.16-0.045 0.013 0.013 0 0 0 0.006-0.006c0.012-0.013 0.022-0.026 0.032-0.038 0.01-0.017 0.021-0.034 0.032-0.051a0.418 0.418 0 0 0 0.032-0.058 0.21 0.21 0 0 0 0.032-0.038 0.059 0.059 0 0 0 0.007-0.013 0.067 0.067 0 0 0 0.019 0 0.425 0.425 0 0 1 0.043 0zm-1.675 1.434c0.016 0.024 0.03 0.045 0.045 0.064a1.834 1.834 0 0 0 0.179 0.192c0.057 0.048 0.114 0.093 0.173 0.134a1.851 1.851 0 0 0 0.422 0.23 1.628 1.628 0 0 0 0.653 0.122 0.946 0.946 0 0 0 0.627-0.218l0.141-0.275a1.731 1.731 0 0 1 0.397 0.147 4.85 4.85 0 0 0 0.019 0.64l0.073 0.353-0.009-0.001a2.892 2.892 0 0 0-1.318 0.224c-0.109 0.049-0.218 0.098-0.327 0.147-0.194 0.096-0.39 0.192-0.589 0.288-0.17 0.086-0.34 0.172-0.512 0.256-0.012 0.006-0.187 0.106-0.214 0.121C9.943 8.831 9.802 8.598 9.575 8.233l0.422 0.262a4.194 4.194 0 0 0-0.007-0.711c-0.02-0.152-0.041-0.312-0.064-0.48a3.143 3.143 0 0 0-0.173-0.659zm14.437 0.883a2.393 2.393 0 0 0-0.006 0.269 2.286 2.286 0 0 0 0.064 0.397 1.875 1.875 0 0 0 0.179 0.429v0.007l-6.086 3.7c-0.004-0.011-0.008-0.024-0.013-0.039a0.914 0.914 0 0 1-0.051-0.23c-0.001-0.044-0.001-0.089 0-0.134 0.004-0.017 0.009-0.037 0.013-0.058a0.705 0.705 0 0 1 0.16-0.339 0.844 0.844 0 0 1 0.154-0.128c0.004-0.002 0.006-0.004 0.007-0.006zm-11.673 1.079 7.507 1.085c0.046 0.029 0.088 0.059 0.128 0.09l-0.928 0.647-4.14-0.563a0.822 0.822 0 0 0-0.256 0.058 0.813 0.813 0 0 0-0.314 0.243 7.362 7.362 0 0 1 0.256 1.095c0.026 0.17 0.045 0.324 0.058 0.461 0.014 0.119 0.023 0.226 0.026 0.32 0.012 0.176 0.016 0.385 0.013 0.627a0.388 0.388 0 0 1-0.007 0.045l-1.811-0.23h-0.019c-0.008-0.167-0.021-0.334-0.038-0.499-0.002-0.018-0.004-0.037-0.007-0.058-0.014-0.125-0.031-0.251-0.051-0.378-0.012-0.097-0.027-0.195-0.045-0.294-0.03-0.167-0.064-0.334-0.102-0.499-0.015-0.059-0.029-0.119-0.045-0.179a12.522 12.522 0 0 0-0.557-1.709c-0.002-0.041 0.003-0.076 0.012-0.108 0.085-0.042 0.17-0.084 0.257-0.123 0.021-0.01 0.042-0.019 0.063-0.028zm0.807 0.496a0.223 0.223 0 0 0-0.16 0.077 0.286 0.286 0 0 0-0.064 0.186 0.273 0.273 0 0 0 0.077 0.179 0.204 0.204 0 0 0 0.16 0.07 0.175 0.175 0 0 0 0.064-0.013 0.208 0.208 0 0 0 0.096-0.064 0.234 0.234 0 0 0 0.058-0.16 0.047 0.047 0 0 0 0-0.026 0.233 0.233 0 0 0-0.071-0.173 0.209 0.209 0 0 0-0.16-0.077zm2.221 1.28 3.142 0.422-0.64 0.442c-0.086 0.117-0.291 0.708-0.614 1.773l-1.792-0.205a0.698 0.698 0 0 0 0.051-0.096 2.303 2.303 0 0 0 0.237-1.216 2.048 2.048 0 0 0-0.441-1.101 0.185 0.185 0 0 1 0.058-0.019zm-1.856 0.032a0.205 0.205 0 0 0-0.134 0.058 0.073 0.073 0 0 1-0.019 0.019 0.274 0.274 0 0 0-0.064 0.179c0 0.005 0 0.01 0 0.013a0.259 0.259 0 0 0 0.07 0.166 0.205 0.205 0 0 0 0.166 0.071 0.102 0.102 0 0 0 0.032 0 0.189 0.189 0 0 0 0.122-0.077 0.233 0.233 0 0 0 0.064-0.179 0.257 0.257 0 0 0-0.07-0.179c-0.006-0.006-0.012-0.012-0.019-0.019a0.226 0.226 0 0 0-0.147-0.051zm0.193 1.44a0.194 0.194 0 0 0-0.007 0 0.21 0.21 0 0 0-0.102 0.032 0.27 0.27 0 0 0-0.058 0.045 0.293 0.293 0 0 0-0.032 0.294 0.226 0.226 0 0 0 0.045 0.064 0.121 0.121 0 0 0 0.019 0.019 0.166 0.166 0 0 0 0.032 0.026 0.18 0.18 0 0 0 0.109 0.026 0.191 0.191 0 0 0 0.16-0.077 0.226 0.226 0 0 0 0.058-0.179 0.248 0.248 0 0 0-0.07-0.179 0.194 0.194 0 0 0-0.153-0.071zm7.954 0c0.01 0.024 0.018 0.048 0.026 0.07a5.573 5.573 0 0 1 0.243 0.73c0.022 0.086 0.041 0.172 0.058 0.256 0.012 0.05 0.022 0.101 0.032 0.154 0.015 0.078 0.032 0.208 0.051 0.39 0.008 0.058 0.015 0.12 0.019 0.186l-1.107-0.141 0.032-0.102c0.012-0.037 0.023-0.075 0.032-0.115a1.589 1.589 0 0 0 0.038-0.224 0.062 0.062 0 0 0 0.007-0.026 2.718 2.718 0 0 0 0.019-0.365 3.151 3.151 0 0 0-0.051-0.499zm-1.056 0.557a2.281 2.281 0 0 1 0.013 0.282 1.747 1.747 0 0 1-0.025 0.326v0.013c-0.008 0.065-0.019 0.129-0.032 0.192v-0.006c-0.006 0.023-0.016 0.06-0.032 0.109a0.047 0.047 0 0 0-0.006 0.019l-0.013 0.032a0.249 0.249 0 0 1-0.019 0.051 0.018 0.018 0 0 1 0 0.013l-1.318-0.173v-0.045a0.482 0.482 0 0 0 0.026-0.07zm-7.897 0.57 10.444 1.267 0.019 0.422-0.627-0.013a0.457 0.457 0 0 0-0.39 0.198l-0.333 0.41-4.576-0.474v0c-0.002 0-0.004-0.002-0.007-0.006-0.011-0.012-0.024-0.025-0.038-0.039l-0.013-0.013a3.002 3.002 0 0 0-0.307-0.269c-0.082-0.066-0.17-0.13-0.262-0.192a4.555 4.555 0 0 0-0.518-0.288 0.097 0.097 0 0 0-0.025-0.013 6.159 6.159 0 0 0-1.414-0.365c-0.134-0.019-0.275-0.036-0.422-0.051h-0.007c-0.229-0.03-0.472-0.056-0.729-0.077a0.014 0.014 0 0 1-0.013 0h-0.006c-0.1-0.007-0.224-0.015-0.371-0.026-0.121-0.008-0.257-0.016-0.409-0.026zm-1.357 0.896c0.193 0.014 0.382 0.027 0.569 0.039 0.209 0.016 0.416 0.031 0.621 0.045 0.305 0.021 0.606 0.04 0.902 0.058a0.21 0.21 0 0 0 0.051 0.007c0.067 0.005 0.133 0.009 0.198 0.013 0.348 0.025 0.668 0.061 0.96 0.109a6.51 6.51 0 0 1 1.075 0.249c0.101 0.036 0.195 0.072 0.281 0.109 0.094 0.057 0.184 0.114 0.269 0.173a4.489 4.489 0 0 1 0.365 0.301c0.099 0.096 0.193 0.196 0.282 0.301a3.303 3.303 0 0 1 0.205 0.275 4.433 4.433 0 0 1 0.41 0.71c0.033 0.075 0.063 0.15 0.09 0.224 0.042 0.104 0.084 0.232 0.128 0.384l-5.152-0.448c-0.234-0.803-0.588-1.381-1.062-1.735a1.945 1.945 0 0 0-0.473-0.262c-0.207 0.051-0.433 0.117-0.678 0.198-1.03 0.346-2.385 0.967-4.064 1.863-0.272 0.147-0.554 0.301-0.845 0.461 0.218-0.158 0.433-0.311 0.646-0.461a21.673 21.673 0 0 1 3.309-1.908c0.433-0.192 0.857-0.361 1.273-0.506 0.218-0.072 0.431-0.138 0.64-0.198zm11.992 1.325c0.017 0.003 0.034 0.005 0.051 0.006h0.026c0.022 0 0.044 0 0.064 0 1.607 0.072 2.879 0.213 3.814 0.423a2.619 2.619 0 0 1 0.717 0.365 3.653 3.653 0 0 1 0.954 1.05 7.08 7.08 0 0 1 0.512 0.941l-4.134-0.397a2.8 2.8 0 0 0-0.787-1.594 3.572 3.572 0 0 0-1.094-0.743 0.639 0.639 0 0 1-0.071-0.032 0.226 0.226 0 0 1-0.051-0.019zm-5.676 0.186 4.115 0.403a4.536 4.536 0 0 1 0.582 0.205 3.25 3.25 0 0 1 1.216 0.877l-0.006-0.006c0.429 0.538 0.602 1.242 0.518 2.112l-6.649-0.608c-0.001-0.132-0.003-0.266-0.007-0.403l0.845-0.819a0.155 0.155 0 0 0 0.051-0.083v-0.026a0.027 0.027 0 0 0 0-0.019 0.025 0.025 0 0 0 0-0.019 0.072 0.072 0 0 0 0-0.026 4.721 4.721 0 0 0-0.134-0.486c-0.015-0.052-0.032-0.105-0.051-0.16a4.438 4.438 0 0 0-0.48-0.941zm-6.508 1.511c0.023 0.038 0.044 0.074 0.064 0.109a4.416 4.416 0 0 1 0.621 2.106c0.007 0.127 0.009 0.255 0.007 0.384 0.001 0.095-0.001 0.191-0.007 0.288a5.555 5.555 0 0 1-0.371 1.773 4.18 4.18 0 0 1-0.32 0.659 2.345 2.345 0 0 1-0.141 0.218 1.286 1.286 0 0 1-0.083 0.128 1.436 1.436 0 0 1-0.102 0.128c-0.521 0.675-1.119 1.016-1.792 1.024h-0.013c-0.66-0.001-1.215-0.325-1.664-0.973a0.508 0.508 0 0 1-0.032-0.051c-0.029-0.039-0.059-0.082-0.09-0.128a4.393 4.393 0 0 1-0.601-1.927c-0.007-0.103-0.013-0.207-0.019-0.314 0-0.073 0-0.147 0-0.224l0.409-0.288c-0.005 0.162-0.005 0.32 0 0.474 0.006 0.101 0.015 0.199 0.026 0.294l0.832 0.032a4.376 4.376 0 0 0 0.134 0.589l-0.857-0.026c0.029 0.11 0.06 0.216 0.096 0.32l0.883 0.026a3.294 3.294 0 0 0 0.198 0.397 1.998 1.998 0 0 0 0.768 0.775 1.227 1.227 0 0 0 0.141 0.07c-0.453 0.1-0.818 0.083-1.094-0.051 0.423 0.311 0.913 0.358 1.472 0.141h0.007a1.238 1.238 0 0 0 0.154-0.083 0.967 0.967 0 0 0 0.109-0.077 0.018 0.018 0 0 0 0.013-0.007 2.564 2.564 0 0 0 0.602-0.634 4.22 4.22 0 0 0 0.742-2.266 0.124 0.124 0 0 1 0-0.013c0.006-0.1 0.008-0.198 0.006-0.294 0.001-0.123-0.003-0.245-0.013-0.365a3.627 3.627 0 0 0-0.493-1.632c-0.04-0.068-0.083-0.134-0.128-0.198zm7.167 0.73a0.262 0.262 0 0 0-0.256 0.256 0.242 0.242 0 0 0 0.077 0.179 0.256 0.256 0 0 0 0.435-0.179 0.253 0.253 0 0 0-0.077-0.179 0.258 0.258 0 0 0-0.179-0.077zm-5.561 0.16 4.307 0.275v1.286l-1.229-0.077a0.094 0.094 0 0 0-0.07 0.026 0.104 0.104 0 0 0-0.038 0.064l-0.025 0.41a0.015 0.015 0 0 1 0 0.013 0.134 0.134 0 0 0 0.026 0.064 0.1 0.1 0 0 0 0.071 0.032l1.248 0.083a15.299 15.299 0 0 1-0.192 1.869 0.014 0.014 0 0 1-0.013 0l-1.216-0.071a0.124 0.124 0 0 0-0.07 0.019 0.107 0.107 0 0 0-0.032 0.058l-0.083 0.41a0.079 0.079 0 0 0 0.006 0.051 0.076 0.076 0 0 0 0.032 0.045 0.093 0.093 0 0 0 0.051 0.026l1.21 0.07c-0.021 0.102-0.042 0.204-0.064 0.307a9.822 9.822 0 0 1-0.461 1.543c-0.007-0.002-0.015-0.004-0.025-0.007l-1.274-0.057a0.123 0.123 0 0 0-0.057 0.013 0.182 0.182 0 0 0-0.038 0.045l-0.173 0.403a0.115 0.115 0 0 0-0.006 0.064 0.104 0.104 0 0 0 0.096 0.077l1.235 0.064a0.375 0.375 0 0 1-0.032 0.064c-0.125 0.278-0.264 0.551-0.416 0.819a6.41 6.41 0 0 1-0.537 0.813 0.134 0.134 0 0 0-0.064-0.019l-1.306-0.019a0.088 0.088 0 0 0-0.038 0.013 0.105 0.105 0 0 0-0.038 0.026l-0.326 0.397a0.113 0.113 0 0 0-0.019 0.07 0.102 0.102 0 0 0 0.032 0.07 0.081 0.081 0 0 0 0.064 0.026l1.177 0.019a5.133 5.133 0 0 1-0.55 0.474 5.437 5.437 0 0 1-0.877 0.525H9.376a7.54 7.54 0 0 0 1.913-1.978 11.633 11.633 0 0 0 1.491-3.117c0.04-0.125 0.079-0.254 0.115-0.384a14.762 14.762 0 0 0 0.499-2.906 0.886 0.886 0 0 0 0.006-0.102c0.015-0.187 0.025-0.377 0.032-0.57 0.023-0.438 0.034-0.879 0.032-1.325zm7.304 0.025a0.237 0.237 0 0 0-0.009 0 0.255 0.255 0 0 0-0.179 0.07 0.272 0.272 0 0 0-0.077 0.179 0.25 0.25 0 0 0 0.077 0.179 0.253 0.253 0 0 0 0.179 0.077 0.233 0.233 0 0 0 0.179-0.077 0.233 0.233 0 0 0 0.077-0.179 0.253 0.253 0 0 0-0.077-0.179 0.237 0.237 0 0 0-0.17-0.071zm1.735 0.173a0.243 0.243 0 0 0-0.003 0 0.267 0.267 0 0 0-0.186 0.07 0.255 0.255 0 0 0-0.07 0.179 0.237 0.237 0 0 0 0.07 0.179 0.256 0.256 0 0 0 0.186 0.077 0.22 0.22 0 0 0 0.173-0.077h0.007a0.225 0.225 0 0 0 0.07-0.179 0.237 0.237 0 0 0-0.077-0.179h0.007a0.243 0.243 0 0 0-0.176-0.071zm1.558 0.16a0.268 0.268 0 0 0-0.179 0.077 0.25 0.25 0 0 0-0.077 0.179 0.238 0.238 0 0 0 0.077 0.179 0.25 0.25 0 0 0 0.179 0.077 0.233 0.233 0 0 0 0.179-0.077 0.236 0.236 0 0 0 0.077-0.179 0.25 0.25 0 0 0-0.076-0.179 0.25 0.25 0 0 0-0.179-0.077zm1.536 0.711 3.564 0.32c0.023 0.202 0.038 0.405 0.045 0.608 0.003 0.031 0.005 0.061 0.006 0.09v0.007c0.002 0.074 0.002 0.146 0 0.217l-1.145-0.07a0.097 0.097 0 0 0-0.064 0.019 0.094 0.094 0 0 0-0.032 0.058 0.377 0.377 0 0 1-0.007 0.038v0.007c-0.007 0.122-0.015 0.244-0.025 0.365a0.093 0.093 0 0 0 0.026 0.071 0.075 0.075 0 0 0 0.058 0.032l1.184 0.077a11.297 11.297 0 0 1-0.218 1.812 0.083 0.083 0 0 0-0.013-0.007l-1.274-0.07a0.101 0.101 0 0 0-0.057 0.019 0.104 0.104 0 0 0-0.038 0.045c-0.006 0.034-0.012 0.066-0.019 0.096h-0.007c-0.024 0.104-0.049 0.207-0.076 0.307a0.1 0.1 0 0 0 0 0.051 0.078 0.078 0 0 0 0.032 0.045 0.07 0.07 0 0 0 0.051 0.019l1.267 0.07a9.846 9.846 0 0 1-0.563 1.632c-0.006-0.001-0.014-0.003-0.025-0.006l-1.312-0.057a0.131 0.131 0 0 0-0.058 0.006 0.128 0.128 0 0 0-0.032 0.045c-0.011 0.026-0.024 0.051-0.038 0.077v0.007a0.094 0.094 0 0 0-0.013 0.032 0.155 0.155 0 0 1-0.019 0.032c-0.038 0.083-0.079 0.166-0.122 0.249a0.121 0.121 0 0 0-0.007 0.058 0.127 0.127 0 0 0 0.032 0.051 0.112 0.112 0 0 0 0.058 0.026l1.261 0.058-0.064 0.128c-0.091 0.171-0.187 0.339-0.288 0.506a6.871 6.871 0 0 1-0.608 0.845 0.092 0.092 0 0 0-0.058-0.019l-1.293-0.019a0.111 0.111 0 0 0-0.045 0.007 0.259 0.259 0 0 0-0.032 0.026c-0.07 0.095-0.144 0.186-0.224 0.275a0.036 0.036 0 0 1-0.007 0.013h-0.007a1.077 1.077 0 0 1-0.096 0.109 0.117 0.117 0 0 0-0.019 0.071 0.077 0.077 0 0 0 0.026 0.058 0.081 0.081 0 0 0 0.064 0.026l1.171 0.019a7.104 7.104 0 0 1-1.056 0.838h-3.481l0.531-0.486 0.544-0.582a8.829 8.829 0 0 0 1.222-1.875c0.033-0.068 0.064-0.136 0.096-0.205a11.296 11.296 0 0 0 0.781-2.189c0.022-0.074 0.041-0.148 0.058-0.224a13.472 13.472 0 0 0 0.378-2.778 0.174 0.174 0 0 0 0-0.045c0.011-0.309 0.006-0.618-0.013-0.928zM6.58 20.542a3.741 3.741 0 0 0 0.16 1.133c-0.331 0.221-0.801 0.535-1.408 0.941-0.291 0.201-0.616 0.423-0.973 0.666-0.05-0.077-0.101-0.15-0.154-0.218a1.905 1.905 0 0 0-0.537-0.48zm-3.507 2.464a1.57 1.57 0 0 1 0.205 0.173 0.149 0.149 0 0 0 0.013 0.019 1.988 1.988 0 0 1 0.243 0.326 3.056 3.056 0 0 1 0.403 1.799 3.539 3.539 0 0 1-0.243 1.139 2.43 2.43 0 0 1-0.205 0.422 1.038 1.038 0 0 1-0.09 0.141 0.478 0.478 0 0 1-0.057 0.083c-0.35 0.493-0.756 0.74-1.216 0.742a0.013 0.013 0 0 1-0.013 0c-0.424 0.002-0.783-0.205-1.075-0.621-0.024-0.038-0.05-0.078-0.077-0.122a2.845 2.845 0 0 1-0.39-1.242c-0.003-0.065-0.005-0.131-0.006-0.198-0.003-0.112-0.001-0.227 0.006-0.346a4.35 4.35 0 0 1 0.071-0.602 0.019 0.019 0 0 0 0.006-0.007l0.32-0.23a3.278 3.278 0 0 0-0.147 0.813c-0.003 0.117-0.003 0.231 0 0.339 0.004 0.066 0.009 0.13 0.013 0.192l0.544 0.019a2.699 2.699 0 0 0 0.09 0.384l-0.563-0.019c0.022 0.073 0.045 0.144 0.071 0.211l0.569 0.013a2.467 2.467 0 0 0 0.128 0.256 1.236 1.236 0 0 0 0.589 0.55 1.076 1.076 0 0 1-0.71-0.032 0.966 0.966 0 0 0 0.966 0.096 0.803 0.803 0 0 0 0.096-0.057 0.617 0.617 0 0 0 0.083-0.058 1.614 1.614 0 0 0 0.391-0.41 2.708 2.708 0 0 0 0.48-1.478v-0.007a2.544 2.544 0 0 0-0.32-1.485 1.282 1.282 0 0 0-0.557-0.537zm3.059 0.128c0.004 0.002 0.006 0.004 0.006 0.006l0.013-0.006a1.355 1.355 0 0 0 0.102 0.166l0.07 0.077a0.888 0.888 0 0 0 0.134 0.115l-0.973 0.48-0.064-0.403zm2.387 1.158a0.836 0.836 0 0 1 0.64 0.295 0.036 0.036 0 0 1 0.013 0.013 1.199 1.199 0 0 1 0.166 0.243 2.094 2.094 0 0 1 0.237 1.184c-0.003 0.047-0.007 0.094-0.013 0.141a2.67 2.67 0 0 1-0.224 0.838 2.107 2.107 0 0 1-0.166 0.32c-0.024 0.035-0.049 0.069-0.077 0.102a0.32 0.32 0 0 1-0.045 0.058 0.329 0.329 0 0 1-0.051 0.064c-0.265 0.323-0.557 0.485-0.877 0.486h-0.006a0.892 0.892 0 0 1-0.774-0.461c-0.003-0.007-0.007-0.016-0.013-0.025-0.012-0.018-0.025-0.04-0.038-0.064a2.018 2.018 0 0 1-0.237-0.915c0.001-0.048 0.001-0.097 0-0.147 0.005-0.083 0.011-0.169 0.019-0.256 0.006-0.046 0.013-0.093 0.019-0.141 0.016-0.104 0.035-0.206 0.058-0.307a2.486 2.486 0 0 1 0.435-0.877 1.437 1.437 0 0 1 0.608-0.493 2.16 2.16 0 0 0 0.23-0.051c0.034-0.002 0.066-0.004 0.096-0.007zm-0.122 0.499c-0.243 0.004-0.467 0.139-0.672 0.403a2.018 2.018 0 0 0-0.173 0.288 2.078 2.078 0 0 0-0.173 0.55c-0.004 0.041-0.008 0.081-0.013 0.122-0.008 0.076-0.012 0.148-0.013 0.218-0.001 0.042-0.001 0.083 0 0.122l0.352 0.013a1.819 1.819 0 0 0 0.038 0.25l-0.358-0.013c0.011 0.046 0.022 0.091 0.032 0.134l0.371 0.006a1.084 1.084 0 0 0 0.077 0.167 0.781 0.781 0 0 0 0.307 0.333 0.208 0.208 0 0 0 0.058 0.026 0.474 0.474 0 0 1-0.064 0.013 0.64 0.64 0 0 1-0.397-0.032 0.597 0.597 0 0 0 0.615 0.058 0.293 0.293 0 0 0 0.07-0.038 0.147 0.147 0 0 0 0.045-0.025 0.006 0.006 0 0 0 0.005-0.002 0.006 0.006 0 0 0 0.001-0.001 0.006 0.006 0 0 0 0.001-0.004 1.121 1.121 0 0 0 0.269-0.262 1.879 1.879 0 0 0 0.365-0.96 1.116 1.116 0 0 0 0.006-0.122 1.511 1.511 0 0 0-0.166-0.838 0.713 0.713 0 0 0-0.416-0.378c-0.032-0.007-0.066-0.014-0.102-0.019-0.02-0.001-0.041-0.003-0.064-0.007zm-2.95 0.218c0.029 0 0.056 0 0.083 0a0.688 0.688 0 0 1 0.525 0.237l0.007 0.006a1.112 1.112 0 0 1 0.141 0.198 1.753 1.753 0 0 1 0.218 0.973 1.059 1.059 0 0 1-0.013 0.109 2.082 2.082 0 0 1-0.166 0.685 1.487 1.487 0 0 1-0.128 0.256 0.839 0.839 0 0 1-0.064 0.09 0.274 0.274 0 0 1-0.032 0.045c-0.013 0.021-0.026 0.04-0.038 0.058a0.926 0.926 0 0 1-0.71 0.397h-0.006a0.752 0.752 0 0 1-0.64-0.378 0.051 0.051 0 0 0-0.013-0.019c-0.008-0.018-0.016-0.037-0.026-0.057a1.655 1.655 0 0 1-0.211-0.749c0-0.038 0-0.078 0-0.122 0-0.065 0.002-0.134 0.007-0.205 0.005-0.037 0.009-0.073 0.013-0.109a2.398 2.398 0 0 1 0.045-0.25 2.011 2.011 0 0 1 0.333-0.723 1.148 1.148 0 0 1 0.493-0.397c0.058-0.011 0.119-0.026 0.185-0.045zm-0.013 0.403a0.69 0.69 0 0 0-0.537 0.326 1.728 1.728 0 0 0-0.141 0.237 1.693 1.693 0 0 0-0.128 0.448c-0.004 0.034-0.009 0.065-0.013 0.096-0.003 0.063-0.005 0.122-0.006 0.179 0.002 0.035 0.004 0.069 0.006 0.102l0.288 0.006a1.228 1.228 0 0 0 0.039 0.205l-0.294-0.006c0.008 0.037 0.017 0.073 0.026 0.109l0.301 0.007c0.021 0.049 0.042 0.094 0.064 0.134a0.706 0.706 0 0 0 0.256 0.275c0.018 0.007 0.035 0.014 0.051 0.019a0.312 0.312 0 0 1-0.051 0.006 0.507 0.507 0 0 1-0.327-0.025 0.496 0.496 0 0 0 0.506 0.051 0.28 0.28 0 0 0 0.051-0.032 0.414 0.414 0 0 0 0.045-0.019 0.007 0.007 0 0 0 0-0.006 0.881 0.881 0 0 0 0.211-0.218 1.479 1.479 0 0 0 0.282-0.787 0.491 0.491 0 0 0 0.006-0.096 1.268 1.268 0 0 0-0.147-0.685 0.614 0.614 0 0 0-0.352-0.307 0.65 0.65 0 0 0-0.083-0.013c-0.015-0.002-0.032-0.004-0.051-0.006z" style="fill:#fff;stroke-width:0.133"/></svg>