<?xml version="1.0" encoding="UTF-8"?>
<svg version="1.1" viewBox="0 0 32 32" xmlns="http://www.w3.org/2000/svg" xmlns:cc="http://creativecommons.org/ns#" xmlns:dc="http://purl.org/dc/elements/1.1/" xmlns:rdf="http://www.w3.org/1999/02/22-rdf-syntax-ns#">
<title>HADES BLACK on Newgrounds</title>
<metadata>
<rdf:RDF>
<cc:Work rdf:about="">
<dc:format>image/svg+xml</dc:format>
<dc:type rdf:resource="http://purl.org/dc/dcmitype/StillImage"/>
<dc:title>HADES BLACK on Newgrounds</dc:title>
<dc:creator>
<cc:Agent>
<dc:title>HADES BLACK</dc:title>
</cc:Agent>
</dc:creator>
<dc:publisher>
<cc:Agent>
<dc:title>HADES BLACK</dc:title>
</cc:Agent>
</dc:publisher>
<dc:description>Vectorized service graphic by HADES BLACK. Exclusively created for "hadesblack.github.io" website and other platforms, where used by HADES BLACK.</dc:description>
<dc:contributor>
<cc:Agent>
<dc:title>HADES BLACK</dc:title>
</cc:Agent>
</dc:contributor>
<dc:subject>
<rdf:Bag>
<rdf:li>hadesblack</rdf:li>
</rdf:Bag>
</dc:subject>
<dc:source>hadesblack.github.io</dc:source>
<dc:rights>
<cc:Agent>
<dc:title>All rights reserved</dc:title>
</cc:Agent>
</dc:rights>
</cc:Work>
</rdf:RDF>
</metadata>
<path d="M2 28.63c-.22-.02-.43-.1-.65-.23-.2-.12-.4-.3-.57-.53-.1-.12-.1-.15-.23-.34a3.9 3.9 0 0 1-.55-1.79 7.3 7.3 0 0 1 0-.82 4.5 4.5 0 0 1 .2-1.01c.04-.13.13-.34.17-.42a4.7 4.7 0 0 1 .19-.32l.32-.45c0-.01.01-.1.01-.24 0-.43.04-.85.12-1.22l.03-.1c.01-.04.33-.4.7-.77l1.77-1.75c.02-.02.06-.05.08-.07a45.3 45.3 0 0 1 .97-.88l.14-.12.15-.13c.04-.03.08-.07.08-.1s.01-.2.01-.5l.1-2.38c0-.05.01-.15.02-.23l.1-1c0-.04.01-.12.02-.18s.01-.14.02-.17.02-.17.04-.3c.03-.25.04-.3.1-.37.01-.02.1-.1.2-.17l.74-.57 1.43-1.04.72-.48c.14-.1.2-.14.2-.15s-.03-.06-.06-.1a1.9 1.9 0 0 1-.2-.39c-.08-.25-.1-.48-.06-.7l.1-.66c.02-.13.03-.2.08-.35l.06-.22c.06-.22.06-.22.2-.55l.1-.27.07-.16c.02-.02.12-.07.2-.1a6.3 6.3 0 0 1 .47-.13c.03-.01.08-.02.12-.03l.27-.07c.05-.01.1-.03.1-.03.01 0 0-.02 0-.03-.01-.01-.02-.05-.02-.08l-.01-.05-.08-.03c-.1-.04-.2-.12-.2-.17-.03-.06-.04-.2-.04-.43 0-.2.01-.38.03-.46.02-.06.13-.14.25-.2.02-.01.03-.01.03-.07a1.1 1.1 0 0 1 .19-.47c.2-.26.45-.43.75-.5.08-.02.12-.02.3-.03.27-.01.4.01.57.07.2.07.35.17.5.34a1.1 1.1 0 0 1 .24.33l.04.08.1.04c.14.07.13.06.12.22 0 .08-.01.18-.02.23-.02.14-.02.15.03.23l.05.06-.02.15a4.6 4.6 0 0 1-.09.53c-.04.16-.02.14-.2.2l-.16.07c-.02.02-.1.2-.08.22 0 0 .02.01.03.01.05.01.13.05.17.08l.18.1.5.3c.03.02.06.06.08.1a8.9 8.9 0 0 1 .28.51 5.3 5.3 0 0 1 .19.48l.1.23c.01.01.08.02.18.03l.22.03.4.06c.05.01.13.02.2.03l2.37.35c.05.01.13.02.2.03l.16.02c.03.01.12.02.2.03l1.27.2c.01 0 .1.02.2.03l1.4.2c.1.01.14.03.25.1.2.14.23.16.25.16.01 0 .04-.02.06-.04l3.33-2.34c.1-.07.1-.06.16-.23.05-.12.07-.16.14-.26.13-.2.3-.38.5-.52L26.9 4.7l.95-.78c.1-.07.28-.2.3-.2l.06-.04c.16-.12.52-.24.82-.3.26-.04.7-.02 1 .04.6.13 1.1.47 1.5.98.12.16.26.42.33.6.16.43.2.9.12 1.37-.12.7-.53 1.28-1.2 1.7-.07.04-.33.17-.38.2l-.72.3-.28.12c-.02.01-.1.05-.2.08l-1.78.76c-.05.03-.22.1-.36.12-.18.04-.3.06-.52.05h-.2l-3.4 1.8c-.04.02-.07.04-.07.05s0 .03.01.04c.05.12.2.54.25.77a5.4 5.4 0 0 1 .18.91c.01.06.02.14.02.18l.01.07.1.01.5.06c.24.03.25.03.3.06.07.04.12.12.15.2s.03.16.05.44c.01.26.02.3.04.33.01.01.05.01.22.01l.4.01.37.02.44.04c.04.01.14.01.22.02l.17.01c.01 0 .07.01.14.02l.84.1.42.07c.04.01.14.03.24.05.22.05.3.07.44.13a2.8 2.8 0 0 1 .56.29c.15.1.22.16.33.26l.18.17c.27.25.58.67.86 1.16a6.7 6.7 0 0 1 .29.59 3.8 3.8 0 0 0 .09.21c.08.17.13.33.13.4 0 .1-.04.2-.1.25-.02.02-.24.18-.5.37-.53.38-.5.34-.48.46a17.7 17.7 0 0 1 .01 1l-.07 1.04c-.05.56-.16 1.22-.3 1.73a11 11 0 0 1-.61 1.81l-.07.15c-.05.12-.28.57-.37.74-.5.9-1.15 1.67-1.96 2.32a4.6 4.6 0 0 1-.69.48l-.1.06H13.85c-6.46 0-11.78 0-11.82-.01zm11.87-.6a5 5 0 0 0 1.14-.79c.1-.08.14-.13.14-.14H15c-.1 0-.35 0-.6 0-.4-.01-.44-.01-.47-.02-.07-.04-.06-.1.04-.23l.28-.34c.01-.01.12-.01.66-.01a19.4 19.4 0 0 1 .71.01l.06.01.05-.07a7.6 7.6 0 0 0 .53-.82l.2-.4.18-.35c.01-.02.02-.05.02-.05s-.04-.01-.1-.01c-.06 0-.17 0-.25-.01-.07 0-.22-.01-.3-.02l-.56-.03c-.04-.01-.08-.05-.1-.08-.01-.03.01-.06.06-.2l.06-.14c.06-.14.08-.16.12-.17a5.2 5.2 0 0 1 .62.02 10.8 10.8 0 0 0 .7.02c.02 0 .03-.02.04-.06l.05-.13a10.7 10.7 0 0 0 .35-1.19l.07-.3c.02-.08.03-.15.03-.16 0-.02.03-.02-.37-.04-.1 0-.18-.01-.18-.01s-.1-.01-.18-.01a2.5 2.5 0 0 1-.5-.05c-.04-.02-.06-.07-.05-.1.01-.04.03-.16.06-.32s.04-.16.2-.16l.6.04c.05 0 .2.01.32.02.26.01.24.02.25-.07 0-.03.01-.1.02-.14a15.2 15.2 0 0 0 .14-1.41c0-.1.01-.2.01-.2.01-.03-.01-.04-.1-.04-.05 0-.16-.01-.25-.02l-.75-.05c-.1 0-.17-.01-.18-.02-.04-.02-.06-.05-.07-.07 0-.01 0-.12.01-.23l.02-.22c0-.01.01-.04.03-.05l.03-.03h.08c.1.01.44.03.6.04a11 11 0 0 0 .53.03h.07V18h-.07c-.04 0-.1-.01-.15-.01-.04-.01-.13-.01-.2-.01s-.2-.01-.3-.02-.23-.02-.3-.02-.17-.01-.23-.01c-.06-.01-.18-.01-.26-.02s-.2-.01-.3-.02c-.08-.01-.28-.02-.45-.03l-.4-.03c-.06-.01-.2-.01-.28-.02s-.23-.01-.3-.02c-.07-.01-.2-.01-.28-.02l-.6-.04c-.13-.01-.16-.01-.16 0 0 .01-.01.06-.01.1 0 .13 0 .18-.02.54-.01.17-.01.38-.01.48s-.01.26-.01.35c-.01.1-.02.25-.02.36a10.7 10.7 0 0 1-.05.59 15 15 0 0 1-.1.76l-.08.5c-.01.04-.02.1-.02.12-.01.08-.07.34-.1.5l-.05.2c-.01.03-.03.1-.04.16l-.04.16a18.7 18.7 0 0 1-.36 1.1c-.32.85-.72 1.64-1.22 2.4-.13.2-.24.35-.4.57-.4.52-.86.97-1.36 1.34a1.7 1.7 0 0 0-.12.09c-.01.01-.02.02-.03.02-.02 0-.03.01-.02.02h4.36l.13-.06zm11.7-.01a7.1 7.1 0 0 0 .8-.63c.1-.1.14-.13.12-.13a94.5 94.5 0 0 1-1.16-.02c-.05-.01-.08-.04-.08-.08s.02-.07.14-.2l.16-.2c.05-.06.07-.1.1-.1h.66l.68.02c.02.01.05.01.05.01.01-.01.24-.3.34-.46a8.5 8.5 0 0 0 .38-.61c.18-.3.22-.38.22-.4 0-.01-.02-.01-.04-.01s-.16-.01-.3-.01c-.14-.01-.4-.02-.56-.03-.38-.02-.38-.02-.4-.05-.04-.04-.04-.07.08-.3.06-.12.1-.22.12-.23.01-.01.03-.02.17-.02.1 0 .26.01.38.01l.77.04h.08v-.05c.03-.07.2-.47.23-.58.14-.4.28-.84.3-.95l.01-.04h-.05c-.02 0-.15-.01-.27-.01l-.85-.05c-.13-.01-.17-.02-.18-.07-.01-.03.04-.23.08-.37.01-.04.02-.08.02-.1s.01-.02.02-.03c.02-.02.03-.02.2-.02.1 0 .3.01.4.02s.3.02.4.02.22.01.25.02c.08.01.1 0 .1-.07.01-.03.02-.1.02-.13a12.8 12.8 0 0 0 .16-1.37c.01-.2.01-.2 0-.22 0 0-.04-.01-.08-.01a19.4 19.4 0 0 1-.76-.05c-.1-.01-.2-.01-.25-.01-.1 0-.13-.01-.16-.05-.02-.03-.02-.03-.01-.15.03-.38.03-.36.1-.38.04-.01.05-.01.17 0 .07.01.16.01.2.02s.15.01.25.02c.32.02.55.04.55.03s.01-.03-.01-.35a5.4 5.4 0 0 0-.04-.54c-.01-.02-.01-.03-.06-.03-.03 0-.1-.01-.15-.01-.05-.01-.16-.02-.24-.02s-.2-.02-.25-.02l-.73-.07c-.06-.01-.15-.01-.18-.02s-.1-.01-.15-.01l-.6-.05c-.07-.01-.15-.01-.18-.01s-.08 0-.12-.01c-.03 0-.1-.01-.18-.02l-.56-.05c-.12-.01-.14-.01-.15 0s-.01.04 0 .14a8.9 8.9 0 0 1 .01.78c-.01.05-.01.18-.02.3a13.4 13.4 0 0 1-.08.93c0 .01-.01.07-.02.14-.04.3-.13.83-.2 1.16-.05.24-.06.3-.1.43l-.05.18a13.3 13.3 0 0 1-.7 1.98l-.05.1c-.03.07-.32.64-.35.68-.01.01-.03.05-.05.1-.1.2-.33.54-.48.75a6.5 6.5 0 0 1-.71.86c-.26.28-.37.4-.67.65-.03.03-.07.06-.07.08s-.02.02-.03.03-.02.01-.02.02a26.9 26.9 0 0 0 1.73.01h1.73l.1-.07zm-20.1.02c.2-.07.38-.22.54-.44.08-.1.18-.3.23-.4.1-.24.16-.58.16-.87s-.05-.53-.16-.75c-.1-.2-.2-.35-.34-.44-.12-.08-.2-.1-.33-.1a.8.8 0 0 0-.42.08c-.17.1-.3.2-.44.43-.1.17-.2.32-.25.5a2 2 0 0 0-.08.31 3.5 3.5 0 0 0-.03.54c.02.38.14.7.37.96.07.08.2.16.3.2.04.01.08.02.2.01s.17-.01.22-.02zm-.35-.4c-.03-.01-.12-.04-.12-.05 0 0 .06-.01.14-.01.15 0 .17-.01.1-.05-.1-.05-.17-.16-.25-.3l-.04-.08h-.3l-.01-.05c-.01-.02-.01-.05-.01-.05s.07-.01.14-.01c.15-.01.14.01.12-.1-.02-.1-.01-.1-.15-.1-.1 0-.13 0-.14-.02-.03-.04 0-.4.04-.57.08-.3.25-.58.46-.7.13-.08.22-.1.4-.1.1.01.13.02.22.1.17.13.3.4.33.7.02.23-.01.52-.1.75-.06.18-.24.44-.37.54-.05.04-.13.08-.15.08-.01 0-.04.01-.07.02-.04.01-.07.02-.14.02-.05 0-.1 0-.1 0zm3.15.4c.2-.04.4-.16.6-.35.16-.16.23-.25.3-.37a2.7 2.7 0 0 0 .38-1.21c.03-.4-.01-.7-.13-1.04-.05-.13-.16-.33-.27-.47-.06-.07-.16-.15-.25-.2-.14-.07-.2-.08-.37-.1-.12 0-.13 0-.24.03-.22.06-.38.16-.55.32a2.4 2.4 0 0 0-.6 1.06c-.05.2-.1.58-.1.72 0 .22.03.43.07.6.04.2.16.47.23.55.01.01.03.04.05.07.07.1.24.25.36.32.03.02.12.05.18.06.07.02.28.02.36 0zm-.35-.54c-.02-.01-.05-.02-.07-.03l-.04-.02.17-.01c.22-.01.23-.01.15-.05-.06-.03-.15-.1-.2-.2s-.08-.1-.13-.23l-.03-.07H7.6c-.1 0-.18 0-.2-.01-.01-.01-.03-.1-.03-.12 0-.01.03-.01.17-.01.1 0 .17 0 .17-.01a2.7 2.7 0 0 0-.04-.23c0-.01-.03-.02-.17-.02h-.17l-.01-.02c-.01-.03 0-.26.02-.4.06-.5.36-1.02.7-1.2.1-.05.17-.07.3-.07.2 0 .32.05.45.16.16.15.26.37.32.66.03.15.03.44 0 .6a3.4 3.4 0 0 1-.11.45c-.03.1-.13.28-.18.35-.12.17-.27.33-.4.4-.13.06-.2.08-.34.08-.1 0-.14 0-.17-.01zm-5.63.35c.48-.1.9-.44 1.23-1.05.2-.37.3-.72.37-1.25a4.1 4.1 0 0 0 0-.84c-.03-.25-.07-.44-.14-.62-.1-.32-.25-.57-.44-.8-.08-.1-.25-.25-.28-.25-.01 0-.1.05-.18.12a3.1 3.1 0 0 1-.18.12c-.01.02.01.04.04.05.16.08.37.3.48.5.2.36.3.7.32 1.15.02.38-.03.8-.15 1.16l-.04.1c-.01.01-.02.05-.03.07-.04.1-.15.3-.22.4-.1.14-.1.15-.2.26-.16.18-.33.3-.48.36-.17.06-.23.07-.38.07-.13 0-.14 0-.24-.03-.12-.04-.2-.08-.22-.1-.01-.02-.01-.02.1.01a1.3 1.3 0 0 0 .39 0c.04-.01.08-.01.1-.01.02 0 .05-.02.03-.03a1.7 1.7 0 0 1-.22-.14c-.15-.12-.34-.37-.43-.57-.02-.06-.04-.07-.05-.08-.01 0-.14-.01-.28-.02l-.27-.02c-.02-.01-.06-.16-.05-.18 0-.01.04-.01.26-.01h.27c.01 0 .01-.02-.01-.07-.01-.04-.03-.12-.05-.18a1 1 0 0 0-.03-.12s-.1-.01-.2-.01-.2-.01-.25-.01-.08-.01-.08-.01c-.03-.03-.03-.47-.01-.7a3.5 3.5 0 0 1 .11-.58c.01-.03.01-.04 0-.04s-.02.01-.03.02-.04.03-.07.05c-.16.1-.2.13-.2.17a4.5 4.5 0 0 0-.07.75 2.9 2.9 0 0 0 .1.91c.13.5.4.96.72 1.2.1.08.26.16.38.2.16.05.38.06.55.03zm3.42-4l.66-.32c.02-.01.04-.02.04-.03s-.03-.03-.06-.06c-.06-.05-.14-.15-.2-.23-.02-.04-.04-.06-.05-.06s-.1.04-.2.1l-.34.2c-.1.06-.15.1-.16.1s0 .05.01.1.02.12.03.17c.02.1.02.1.03.1 0 0 .1-.05.24-.1zm4.28-.23c.25-.06.33-.08.48-.15.5-.22.94-.66 1.33-1.3.1-.18.27-.5.33-.67.2-.48.3-1 .36-1.56.03-.3.03-.86 0-1.1a5 5 0 0 0-.33-1.36c-.08-.2-.3-.63-.34-.63-.01 0-.05.03-.1.06l-.1.08c-.15.1-.3.22-.3.23s.02.04.04.07c.2.3.36.65.45 1.02.1.33.12.63.13 1.1.01.54-.08 1.1-.24 1.58-.1.3-.12.33-.23.56-.1.18-.2.38-.33.53l-.07.1c-.12.16-.38.4-.52.5-.1.07-.22.13-.3.15-.3.1-.38.1-.6.1-.23 0-.4-.04-.6-.15-.1-.05-.15-.08-.14-.1 0 0 .03 0 .06.01.13.05.23.06.43.06.17 0 .2 0 .3-.02.06-.01.13-.02.15-.03s.04-.01.04-.02c0-.01-.03-.02-.07-.04-.18-.07-.43-.28-.64-.55a4.1 4.1 0 0 1-.18-.27s-.02-.03-.04-.07a2.8 2.8 0 0 1-.09-.18c-.03-.06-.06-.12-.06-.13s-.12-.01-.42-.02c-.23 0-.42-.01-.44-.01-.02 0-.03-.02-.06-.1-.04-.14-.06-.2-.05-.2h.3c.43.02.54.02.55 0 0-.01-.01-.06-.03-.12a4.4 4.4 0 0 1-.09-.37l-.02-.08-.12-.01c-.06 0-.24-.01-.4-.01s-.28-.01-.3-.01-.02-.01-.03-.02c-.01-.04-.03-.2-.03-.46 0-.15-.01-.28-.01-.28s-.02.01-.03.02-.1.07-.2.13l-.17.12c-.01.01-.01.3.01.48.05.53.14.97.3 1.37a4.5 4.5 0 0 0 .45.83c.1.12.27.34.34.4a1.9 1.9 0 0 0 .96.51c.1.02.12.02.37.02.14 0 .25-.01.28-.01zm-5.6-.37l1.98-1.34c.4-.26.35-.2.3-.37a4.4 4.4 0 0 1-.1-.73c0-.12-.01-.25-.02-.25s-.14.1-.55.38l-2.26 1.58c-.04.02-.07.05-.07.06s.04.03.08.06c.16.1.33.28.48.5.08.12.1.14.1.14 0 0 .03-.01.05-.03zm20.4-4.36s.01-.16.01-.35a3 3 0 0 0-.06-.72c-.08-.4-.26-.8-.47-1.04-.08-.1-.3-.3-.36-.36l-.08-.07c-.03-.03-.23-.16-.32-.22-.15-.1-.38-.2-.58-.3a4.7 4.7 0 0 0-.35-.11c-.05-.01-.17-.03-.28-.04l-.8-.08c-.07-.01-.18-.02-.23-.02l-1.38-.13c-.03 0-.1-.01-.18-.02l-.72-.07c-.06-.01-.16-.02-.23-.02-.16-.02-.37-.03-.37-.03 0 0 .01.02.02.04l.1.16c.2.36.36.73.5 1.17.04.15.05.28.03.32-.02.04-.06.08-.45.45l-.4.37-.04.04v.2c0 .16.01.2.02.2.01 0 .04.01.08.01s.12.01.18.01c.06.01.17.02.24.02l.96.1c.03 0 .1.01.2.02l.5.05c.08.01.2.02.25.02s.17.02.25.02.2.02.3.03.17.02.2.02.13.01.2.02l1.05.1c.06.01.17.02.25.02s.17.02.2.02.12.01.2.02.18.02.25.02l.75.07c.08.01.2.02.26.02s.15.01.18.02c.07.01.14.01.15 0zm-.83-.32c-.1-.07-.15-.13-.16-.23 0-.05 0-.07.02-.1.03-.06.07-.1.1-.13.02-.02.05-.02.12-.02.08 0 .1 0 .13.02.05.03.1.1.12.16.02.05.02.05 0 .1-.02.1-.07.16-.14.2-.04.02-.17.03-.2.01zm-1.57-.17a.3.3 0 0 1-.14-.14c-.02-.05-.02-.15 0-.2.02-.05.07-.1.1-.13.03-.02.05-.02.13-.02.1 0 .13.01.18.05.07.06.1.17.08.26-.03.12-.13.18-.25.18-.03 0-.07-.01-.1-.01zm-1.7-.16c-.05-.02-.14-.1-.16-.13-.03-.06-.03-.17-.01-.22s.08-.1.12-.13c.05-.03.2-.03.24 0 .04.02.1.1.12.15.04.1 0 .2-.1.28-.07.05-.15.07-.23.05zm-1.75-.2c-.12-.04-.18-.15-.17-.26.01-.1.1-.2.16-.2.06-.02.16-.01.2.01s.1.08.13.13.02.15 0 .2c-.02.05-.1.12-.15.13-.05.01-.12.01-.16 0zm11.22-.14c.01-.01-.01-.04-.1-.2a7.9 7.9 0 0 0-.55-.93c-.23-.33-.52-.63-.82-.84-.23-.17-.58-.33-.8-.38l-.2-.04c-.02 0-.06-.01-.1-.02a8 8 0 0 0-.34-.06l-.17-.03c-.03-.01-.08-.01-.1-.02s-.13-.02-.23-.03l-.25-.03c-.04 0-.1-.01-.15-.02s-.15-.02-.25-.03l-.25-.03c-.04-.01-.12-.01-.18-.01s-.14-.01-.18-.01-.12-.01-.17-.01l-.98-.05c-.1 0-.2-.01-.22-.01-.04-.01-.07-.01-.07 0 0 0 .02.02.05.03.3.12.63.32.87.5.56.44.9 1 1.04 1.72.03.15.01.13.2.15.07.01.16.02.2.02.05.01.16.02.24.02l.48.05c.02 0 .1.01.18.02l.5.05c.16.02.3.03.78.07.08.01.2.02.24.02.05.01.14.01.2.02l1.1.1c.01.01.02.01.02 0zM6.4 16.75l.14-.08c.02-.01.07-.04.1-.06s.14-.07.24-.12l.25-.14c.05-.02.1-.05.1-.05.01 0 .08-.04.16-.08a3.1 3.1 0 0 0 .17-.09c.01-.01.08-.04.14-.08a7.5 7.5 0 0 0 .16-.08 24.2 24.2 0 0 1 1.18-.58s.05-.02.1-.05l.1-.05s.03-.01.07-.03l.22-.1c.02-.01.06-.03.1-.04a36.8 36.8 0 0 1 .54-.23c.27-.1.7-.27 1-.37a4 4 0 0 1 .56-.15c.08 0 .36.15.54.3.1.1.27.25.37.38.24.3.46.76.6 1.2.01.05.03.1.03.1.01.01.13.02.28.04.04 0 .14.01.22.02l.55.05.53.05c.08.01.18.02.23.02s.15.01.23.02.22.02.3.03.23.02.32.03.2.02.27.02.16.01.2.02l1.08.1c.06.01.16.01.22.02.07.01.2.02.27.02s.2.02.25.02.12.01.14.01c.05 0 .05-.01.03-.06-.01-.02-.03-.1-.06-.16-.05-.15-.14-.38-.2-.5-.12-.23-.36-.62-.5-.8a4.4 4.4 0 0 0-.58-.58c-.3-.23-.4-.28-.6-.36-.12-.04-.32-.1-.35-.1-.01 0-.07-.02-.13-.03-.1-.03-.2-.05-.5-.1-.04-.01-.1-.01-.1-.01s-.04 0-.06-.01-.07-.01-.1-.02c-.05 0-.1-.01-.13-.02-.1-.02-.62-.07-.9-.08l-1.53-.1a8.6 8.6 0 0 0-.56-.03c-.08 0-.1 0-.24.04-.2.06-.5.16-.74.25l-.25.1-.27.1a12 12 0 0 0-.43.19l-.32.15c-.1.05-.58.3-.77.4-.3.16-.73.4-1.03.6l-.63.4c-.03.02-.07.04-.08.05a7.5 7.5 0 0 1-.17.11 13.5 13.5 0 0 0-.5.34 6.7 6.7 0 0 1-.21.15c-.22.15-.24.18-.04.07zm16.16-1.64l.26-.32c.06-.1.15-.15.26-.2.06-.02.08-.02.42-.01h.35l.01-.02v-.06c0-.02-.01-.1-.01-.2l-.01-.15h-.03c-.02 0-.05-.01-.1-.01-.03-.01-.1-.01-.15-.02s-.14-.02-.2-.02-.16-.02-.23-.03-.17-.02-.22-.03-.18-.02-.27-.03l-.23-.03c-.04-.01-.1-.01-.14-.02s-.13-.01-.2-.02-.17-.02-.24-.03-.17-.02-.22-.03-.14-.02-.18-.02l-1.07-.13c-.04-.01-.12-.02-.18-.02l-.38-.05c-.06-.01-.18-.02-.27-.03l-.27-.03c-.06-.01-.15-.02-.22-.03s-.17-.02-.23-.03a3.6 3.6 0 0 0-.19-.02c-.04 0-.15-.02-.23-.03l-.27-.03c-.07-.01-.13-.02-.13-.02s-.05-.01-.1-.01-.14-.02-.2-.02-.17-.02-.23-.03-.16-.02-.23-.03l-.4-.05c-.03 0-.1-.01-.15-.02s-.17-.02-.26-.03l-.23-.03c-.04-.01-.1-.01-.15-.02s-.15-.02-.23-.03l-.23-.03c-.05-.01-.13-.02-.18-.02s-.18-.02-.27-.03l-.23-.03c-.04-.01-.1-.01-.14-.02s-.13-.01-.2-.02-.17-.02-.23-.03-.16-.02-.23-.03-.18-.02-.27-.03-.2-.03-.26-.03-.12-.01-.14-.01h-.04v.22c0 .17 0 .22.01.22s.13.01.27.02l.34.02c.05 0 .15.01.23.02s.2.01.25.02.14.01.2.02.17.02.25.03l.3.04a8.7 8.7 0 0 1 .49.08l.18.04c.05.01.1.03.13.03s.06.01.08.02c.2.06.43.13.53.17a3.9 3.9 0 0 1 .62.34 3.5 3.5 0 0 1 .53.41c.05.05.1.1.12.1s.08.01.15.02.14.01.15.02.08.01.16.02l.62.06c.07.01.2.02.28.03s.16.02.18.02.1.01.18.02.2.02.27.03.17.02.23.02.14.02.18.02.12.01.18.02c.05 0 .15.02.22.02l.45.05.9.1c.07.01.2.02.25.03.2.02.18.03.26-.06zm.2-1.56c0-.01 0-.01-.03-.3-.04-.3-.06-.4-.1-.62-.05-.2-.1-.37-.14-.5-.02-.04-.03-.08-.03-.08 0-.01-.1-.27-.1-.28s-.02 0-.24.1l-.35.18v.06c0 .03.01.1.02.17.02.12.02.5 0 .6-.01.03-.01.1-.02.13-.01.08-.05.24-.08.32-.01.03-.02.06-.01.06s.06.02.13.02l.37.05c.06.01.15.02.22.03s.16.02.2.03c.1.02.16.02.17.01zm-1.6-.2c.01-.01.02-.03.02-.06s.02-.08.03-.12a1.4 1.4 0 0 0 .06-.33c.02-.16.02-.3.01-.42-.01-.06-.01-.07-.02-.07s-.02 0-.02.01a8.6 8.6 0 0 1-.42.22l-.94.5c-.01.01-.02.03-.02.05-.02.06-.04.06.3.1l.2.03c.04.01.1.02.17.02s.17.02.25.03c.4.05.36.05.37.03zm-3.24-.42c.02 0 .02-.02.03-.04.01-.02.02-.05.02-.07s.02-.07.04-.12.04-.12.05-.17l.07-.24a8 8 0 0 1 .38-1.08c.02-.03.05-.05.1-.1l.52-.35c.02-.01.04-.02.04-.03 0 0-.02-.01-.04-.01s-.07-.01-.1-.02-.13-.02-.2-.03l-.92-.12c-.05-.01-.16-.02-.24-.03l-.2-.03c-.03-.01-.1-.01-.13-.02-.07-.01-.16-.02-.38-.05l-.44-.06a9.8 9.8 0 0 1-.24-.03c-.12-.02-.23-.02-.25-.01s0 .03.04.08c.26.38.4.76.4 1.14 0 .38-.08.72-.24 1.07-.02.05-.04.1-.04.1s.04.01.08.01.1.01.15.02l.44.05c.03 0 .1.01.12.01s.14.02.24.03l.28.03c.06.01.15.02.2.02l.2.03c.01 0 .02 0 .03 0zm-2.56-.33c0-.07 0-.57-.01-.6 0-.02-.01-.1-.01-.2a6.8 6.8 0 0 0-.07-.63 6.8 6.8 0 0 0-.2-.92c-.06-.2-.06-.17.03-.26s.23-.16.34-.2c.1-.02.13-.02.32.01l.24.03c.05.01.1.01.14.02s.12.02.2.03l.24.03 2.06.28c.03.01.1.02.17.02s.15.02.2.03l.64.1c.04.01.1.01.1 0 .01 0 .1-.06.18-.12l.35-.25a26.5 26.5 0 0 1 .38-.27c.02-.01.01-.03-.06-.07-.05-.03-.07-.04-.17-.05-.06-.01-.12-.02-.12-.02s-.05-.01-.1-.01-.15-.02-.24-.03l-.22-.03c-.06-.01-.27-.04-.55-.08l-1.1-.16c-.05-.01-.14-.02-.2-.03s-.14-.02-.2-.03-.1-.02-.15-.02c-.04 0-.1-.01-.17-.02s-.14-.02-.2-.03-.14-.02-.2-.03-.13-.02-.2-.03-.15-.02-.2-.03-.13-.02-.16-.02-.1-.01-.16-.02-.14-.02-.2-.03-.14-.02-.2-.03l-.35-.05c-.04 0-.08-.01-.1-.01s-.05-.01-.1-.01-.12-.02-.18-.02-.14-.02-.2-.03l-.38-.05c-.05-.01-.12-.02-.16-.02-.04-.01-.1-.02-.16-.02s-.14-.02-.2-.03-.13-.02-.15-.02c-.03-.01-.08-.01-.12-.02-.04 0-.12-.02-.17-.02s-.14-.02-.2-.03-.14-.02-.2-.03c-.33-.05-.44-.04-.52.04-.03.03-.03.04-.03.1-.01.07 0 .12.06.25.1.23.3.86.4 1.2l.05.17a6.6 6.6 0 0 1 .12.51l.06.3c.01.04.03.13.04.2.03.18.05.3.08.67.01.08.02.2.02.26.01.07.02.12.02.12s.14.03.46.07c.06.01.18.02.26.03l.25.03c.06.01.17.02.25.03l.26.03c.06.01.14.02.17.02s.07.01.1.01c.05 0 .05 0 .05-.02zm-1.06-.33c-.04-.02-.08-.06-.1-.1-.02-.04-.03-.06-.03-.12-.01-.1.01-.15.08-.2.05-.05.06-.05.12-.05.1-.01.2.04.23.16.02.05.02.15-.01.22-.02.05-.03.06-.07.1s-.06.04-.12.04c-.04 0-.07 0-.1-.01zm-.2-1.45c-.1-.05-.17-.2-.13-.3.02-.05.08-.15.1-.16s.15-.02.2-.01c.03.01.05.02.08.06.06.07.07.1.07.2 0 .1-.05.2-.14.23-.05.02-.13.02-.18 0zm-.33-1.3c-.06-.02-.14-.1-.16-.15-.02-.07-.02-.17.01-.22.03-.06.05-.08.1-.1.1-.04.2-.02.26.04s.07.1.06.2-.01.12-.06.18-.14.08-.2.07zm5.13 2.68a33.6 33.6 0 0 1 .37-.23l4.65-2.82c.07-.04.52-.32.56-.34.02-.02.07-.04.1-.06.15-.08.32-.2.33-.2s0-.02-.01-.05c-.06-.1-.13-.27-.17-.42-.03-.1-.05-.37-.05-.5v-.1s-.12.08-.28.2l-4.78 3.3c-.01.01-.08.05-.15.1l-.3.2c-.1.06-.18.13-.2.15-.06.06-.13.17-.16.26-.03.08-.03.08-.03.24 0 .12 0 .17.02.22.03.12.04.13.1.08zM10.1 8.95a47.6 47.6 0 0 1 1.41-.7 3.8 3.8 0 0 0 .19-.09c.08-.04.3-.12.5-.16s.3-.05.55-.06c.22 0 .25-.01.25-.02s-.01-.04-.01-.07c-.06-.24-.08-.5-.08-.73v-.17l-.04-.02c-.1-.05-.3-.1-.34-.1-.02 0-.03.01-.07.08-.08.16-.1.17-.16.22-.1.08-.25.14-.4.17-.08.01-.27.01-.37 0-.3-.04-.55-.13-.8-.3-.2-.13-.3-.23-.4-.35-.07-.08-.07-.08-.1-.08-.02 0-.08.01-.14.02l-.17.03c-.03 0-.08.01-.1.01s-.05.01-.05.02.02.07.04.14a3.1 3.1 0 0 1 .13.55c.01.05.03.23.06.42.01.07.01.18.01.36 0 .28-.01.36-.02.36s-.18-.1-.3-.2c-.03-.02-.06-.04-.06-.04-.02-.01-.01.02.02.06.03.05.07.1.24.4l.15.25c.02.03.04.03.07 0zM25.14 7.9l.8-.55c.04-.03.1-.06.12-.08.04-.03.26-.18.57-.4l.28-.2.34-.24c0-.01.01-.06.01-.12 0-.12.02-.23.06-.37.03-.1.1-.25.1-.25s.02.16.01.18v.13c.04.46.17.76.48 1.14l.08.1c.03.03.2.17.27.23.23.17.55.3.8.36.16.03.2.03.44.03.28 0 .34-.01.62-.1.12-.03.3-.13.46-.23.6-.4.92-1 .9-1.72a1.8 1.8 0 0 0-.09-.56c-.1-.27-.2-.46-.4-.7-.18-.2-.4-.38-.62-.5-.15-.08-.2-.1-.33-.13-.2-.06-.3-.07-.56-.08-.26-.01-.44.01-.64.07-.22.06-.46.17-.55.24-.03.02-.16.12-.3.23l-.3.24-.45.36-.53.43-.28.24-.33.28-.67.58s-.02.04-.05.07c-.08.1-.16.2-.2.3a2.5 2.5 0 0 0-.13.37 1.8 1.8 0 0 0 .03.68c.01 0 .05-.03.1-.06zm4.24-.46c-.33-.05-.6-.16-.8-.34-.27-.22-.47-.5-.55-.76-.14-.42-.12-.87.05-1.23.12-.25.34-.5.56-.65.3-.2.56-.27.93-.27a1.5 1.5 0 0 1 .43.05c.08.02.28.1.4.2.1.07.22.17.2.18l-.05-.02c-.1-.06-.3-.1-.38-.08a16.2 16.2 0 0 0-.62.56 10.5 10.5 0 0 1-.19.18l-.58.54a27.2 27.2 0 0 1-.23.21l-.2.2c-.02.02-.01.06.03.16.05.13.2.34.22.34.01 0 .06-.03.1-.06l.58-.34a11.1 11.1 0 0 1 .17-.1l1.55-.9c.05-.03.07-.03.1.02.06.1.1.22.1.37 0 .07 0 .1-.01.1-.01.01-.02.02-.03.02s-.1.04-.4.2l-1.9.9c-.03.01-.01.03.05.06.1.06.2.1.23.1.02 0 .06-.01.1-.02l1.63-.48c.04-.01.08-.03.1-.03.05-.02.08-.02.08 0 0 .02-.05.13-.1.18-.07.1-.18.22-.3.32-.23.2-.44.32-.72.38-.1.02-.12.03-.34.03h-.25zM11.96 6.07c.1-.02.18-.07.22-.1s.12-.27.14-.4c.01-.07.01-.07-.01-.08-.01-.01-.04-.02-.06-.03-.12-.04-.1-.04-.14-.13-.02-.05-.03-.1-.03-.1-.01-.04-.02-.05-.1-.05-.1-.01-.1 0-.14.05-.05.08-.1.14-.12.15-.04.02-.18.05-.3.06-.14.01-.2.03-.22.04-.01.01-.02.03-.03.06-.01.04-.01.05.02.17.04.17.06.22.1.26s.15.1.26.14c.07.03.1.03.2.03.08 0 .14 0 .2-.02zm.56-.9c.02-.02.03-.05.06-.15.03-.13.04-.23.04-.33-.01-.13-.02-.16-.08-.2-.03-.01-.06-.02-.1-.03s-.08-.02-.12-.03c-.07-.02-.17-.03-.46-.08-.1-.01-.16-.02-.55-.02-.44 0-.44 0-.48.02-.08.04-.07.03-.08.28 0 .2 0 .23.02.3.02.1.04.13.08.14.02 0 .06.01.1.02.06.01.1.02.3.02h.24l.05-.03c.06-.03.1-.07.16-.16.04-.07.07-.08.14-.08.1 0 .3.03.32.04.01.01.03.04.04.07.05.15.08.2.1.22.01 0 .05.01.1.01.08 0 .1 0 .1-.02z" fill="#fff"/>
</svg>
