<?xml version="1.0" encoding="UTF-8"?>
<svg version="1.1" viewBox="0 0 32 32" xmlns="http://www.w3.org/2000/svg" xmlns:cc="http://creativecommons.org/ns#" xmlns:dc="http://purl.org/dc/elements/1.1/" xmlns:rdf="http://www.w3.org/1999/02/22-rdf-syntax-ns#">
<title>HADES BLACK on Patreon</title>
<metadata>
<rdf:RDF>
<cc:Work rdf:about="">
<dc:format>image/svg+xml</dc:format>
<dc:type rdf:resource="http://purl.org/dc/dcmitype/StillImage"/>
<dc:title>HADES BLACK on Amazon</dc:title>
<dc:creator>
<cc:Agent>
<dc:title>HADES BLACK</dc:title>
</cc:Agent>
</dc:creator>
<dc:publisher>
<cc:Agent>
<dc:title>HADES BLACK</dc:title>
</cc:Agent>
</dc:publisher>
<dc:description>Vectorized service graphic by HADES BLACK. Exclusively created for "hadesblack.github.io" website and other platforms, where used by HADES BLACK.</dc:description>
<dc:contributor>
<cc:Agent>
<dc:title>HADES BLACK</dc:title>
</cc:Agent>
</dc:contributor>
<dc:subject>
<rdf:Bag>
<rdf:li>hadesblack</rdf:li>
</rdf:Bag>
</dc:subject>
<dc:source>hadesblack.github.io</dc:source>
<dc:rights>
<cc:Agent>
<dc:title>All rights reserved</dc:title>
</cc:Agent>
</dc:rights>
</cc:Work>
</rdf:RDF>
</metadata>
<g transform="translate(-333.3 -465.16)">
<path d="m349.3 465.16c-8.8366 0-16 7.1634-16 16v15.985h3.7142v-15.985c0-6.7849 5.5009-12.286 12.286-12.286 6.7849 0 12.286 5.5009 12.286 12.286 0 6.5941-5.1963 11.974-11.717 12.271-2.0718-0.017-3.8381-0.35321-4.6118-0.82929v-5.2804c1.1547 0.75601 2.5357 1.1968 4.0189 1.1968 4.0568 0 7.3453-3.2884 7.3453-7.3452s-3.2884-7.3471-7.3453-7.3471-7.3453 3.2903-7.3453 7.3471v15.972h6.6988c0.22227 9e-3 0.44592 0.0148 0.67044 0.0148 8.8366 0 16-7.1633 16-16s-7.1634-16-16-16zm-0.51529 28.273h1.0564c-0.17955 8e-3 -0.35968 0.0129-0.54115 0.0129-0.17239 0-0.34463-6e-3 -0.51529-0.0129z" fill="#fff"/>
</g>
</svg>
