<svg xmlns="http://www.w3.org/2000/svg" fill-rule="evenodd" stroke-linejoin="round" stroke-miterlimit="1.4142" viewBox="0 0 32 32" xmlns:v="https://hadesblack.github.io"><path d="M32 16.23a3.5 3.5 0 0 0-3.5-3.5c-.95 0-1.8.37-2.44.97-2.4-1.72-5.7-2.84-9.38-2.98l1.6-7.5 5.22 1.12a2.5 2.5 0 0 0 2.5 2.38 2.5 2.5 0 0 0 2.49-2.5 2.5 2.5 0 0 0-2.49-2.49 2.5 2.5 0 0 0-2.24 1.41L17.95 1.9c-.17-.03-.34 0-.46.1-.14.1-.23.23-.26.4l-1.78 8.37c-3.73.1-7.08 1.23-9.52 2.98-.63-.6-1.5-.97-2.44-.97a3.5 3.5 0 0 0-1.43 6.68 6.3 6.3 0 0 0-.09 1.06c0 5.4 6.28 9.78 14.02 9.78s14.02-4.36 14.02-9.78c0-.34-.03-.72-.1-1.06 1.2-.55 2.06-1.78 2.06-3.2zm-24.03 2.5a2.5 2.5 0 0 1 2.5-2.49 2.5 2.5 0 0 1 2.49 2.49 2.5 2.5 0 0 1-2.49 2.5c-1.38.03-2.5-1.12-2.5-2.5zm13.96 6.62c-1.72 1.72-5 1.84-5.94 1.84-.97 0-4.24-.14-5.94-1.84-.26-.26-.26-.66 0-.92s.66-.26.92 0c1.1 1.1 3.38 1.46 5.02 1.46s3.96-.37 5.02-1.46c.26-.26.66-.26.92 0a.7.7 0 0 1 0 .92zm-.46-4.1a2.5 2.5 0 0 1-2.49-2.49 2.5 2.5 0 0 1 2.49-2.49 2.5 2.5 0 0 1 2.5 2.49c0 1.35-1.12 2.5-2.5 2.5z" fill="#fff" fill-rule="nonzero"/></svg>