<?xml version="1.0" encoding="UTF-8"?>
<svg width="32" height="32" enable-background="new 10.667 3.69 192 192" version="1.1" viewBox="10.667 3.69 32 32" xml:space="preserve" xmlns="http://www.w3.org/2000/svg" xmlns:cc="http://creativecommons.org/ns#" xmlns:dc="http://purl.org/dc/elements/1.1/" xmlns:rdf="http://www.w3.org/1999/02/22-rdf-syntax-ns#"><title>HADES BLACK on SoundClick</title><metadata><rdf:RDF><cc:Work rdf:about=""><dc:format>image/svg+xml</dc:format><dc:type rdf:resource="http://purl.org/dc/dcmitype/StillImage"/><dc:title>HADES BLACK on SoundClick</dc:title><dc:creator><cc:Agent><dc:title>HADES BLACK</dc:title></cc:Agent></dc:creator><dc:publisher><cc:Agent><dc:title>HADES BLACK</dc:title></cc:Agent></dc:publisher><dc:description>Vectorized service graphic by HADES BLACK. Exclusively created for "hadesblack.github.io" website and other platforms, where used by HADES BLACK.</dc:description><dc:contributor><cc:Agent><dc:title>HADES BLACK</dc:title></cc:Agent></dc:contributor><dc:subject><rdf:Bag><rdf:li>hadesblack</rdf:li></rdf:Bag></dc:subject><dc:source>hadesblack.github.io</dc:source><dc:rights><cc:Agent><dc:title>All rights reserved</dc:title></cc:Agent></dc:rights></cc:Work></rdf:RDF></metadata>

<g transform="matrix(.1682 0 0 .1682 8.7285 2.8696)" fill="#fff">
	<path d="m79.883 127.83c0-3.32-0.815-6.006-2.441-8.057-1.628-2.051-3.842-3.727-6.641-5.029-2.8-1.303-5.942-2.359-9.424-3.174-3.483-0.814-7.146-1.611-10.986-2.393-5.078-1.107-9.929-2.426-14.551-3.955-4.624-1.529-8.691-3.646-12.207-6.348-3.516-2.701-6.315-6.136-8.398-10.303-2.084-4.166-3.125-9.375-3.125-15.625 0-6.9 1.204-12.906 3.613-18.018 2.408-5.11 5.679-9.341 9.814-12.695 4.134-3.353 8.984-5.859 14.551-7.52s11.832-2.49 18.799-2.49c6.966 0 13.965 0.684 20.996 2.051s13.086 3.125 18.164 5.273v20.508c-6.771-2.669-13.266-4.605-19.482-5.811-6.218-1.204-12.061-1.807-17.529-1.807-7.878 0-13.95 1.433-18.213 4.297-4.265 2.866-6.396 7.163-6.396 12.891 0 3.32 0.699 6.055 2.1 8.203 1.399 2.148 3.304 3.923 5.713 5.322 2.408 1.401 5.176 2.524 8.301 3.369 3.125 0.847 6.445 1.628 9.961 2.344 5.533 1.172 10.823 2.524 15.869 4.053 5.044 1.53 9.521 3.662 13.428 6.396 3.906 2.735 6.998 6.299 9.277 10.694 2.278 4.395 3.418 10.01 3.418 16.846 0 7.031-1.303 13.119-3.906 18.262-2.604 5.143-6.299 9.391-11.084 12.744s-10.596 5.844-17.432 7.471c-6.836 1.626-14.323 2.441-22.461 2.441-7.097 0-14.079-0.701-20.947-2.1-6.87-1.4-12.583-3.369-17.139-5.908v-20.215c6.445 2.799 12.728 4.834 18.848 6.104 6.119 1.27 12.435 1.904 18.945 1.904 3.775 0 7.486-0.309 11.133-0.928 3.646-0.619 6.917-1.676 9.814-3.174 2.896-1.498 5.225-3.531 6.982-6.104s2.636-5.744 2.636-9.519z" fill="#fff"/>
</g>
<g transform="matrix(.1682 0 0 .1682 8.7285 2.8696)" fill="#fff">
	<path d="m172.87 52.442c-6.511 0-12.517 1.074-18.018 3.223-5.502 2.148-10.222 5.273-14.16 9.375-3.939 4.102-7.016 9.165-9.229 15.186-2.214 6.022-3.32 12.907-3.32 20.654 0 7.683 1.009 14.438 3.027 20.264 2.018 5.827 4.915 10.693 8.691 14.6 3.775 3.906 8.382 6.853 13.818 8.838 5.436 1.986 11.604 2.979 18.506 2.979 4.947 0 9.993-0.391 15.137-1.172 5.143-0.781 9.961-1.92 14.453-3.418v20.605c-4.558 1.303-9.473 2.327-14.746 3.076-5.273 0.748-10.742 1.123-16.406 1.123-11.068 0-20.801-1.579-29.199-4.736s-15.414-7.617-21.045-13.379c-5.632-5.762-9.863-12.662-12.695-20.703-2.832-8.04-4.248-16.91-4.248-26.611 0-9.961 1.514-19.205 4.541-27.734 3.027-8.528 7.389-15.918 13.086-22.168 5.696-6.25 12.825-11.165 21.387-14.746 8.561-3.58 18.245-5.403 29.053-5.469 5.533 0 10.774 0.375 15.723 1.123 4.947 0.749 9.407 1.807 13.379 3.174v20.313c-5.209-1.626-10.059-2.767-14.551-3.418-4.493-0.652-8.887-0.979-13.184-0.979z" fill="#fff"/>
</g>
</svg>
