<svg xmlns="http://www.w3.org/2000/svg" viewBox="10.67 3.69 32 32" fill="#fff" xmlns:v="https://hadesblack.github.io"><path d="M22.16 24.37c0-.56-.14-1-.4-1.36a2.8 2.8 0 0 0-1.12-.85 7.5 7.5 0 0 0-1.6-.53l-1.85-.4a24.2 24.2 0 0 1-2.45-.67 6.9 6.9 0 0 1-2.05-1.07c-.6-.45-1.06-1.03-1.4-1.73a6 6 0 0 1-.53-2.63c0-1.16.2-2.17.6-3.03a6 6 0 0 1 1.65-2.14 6.7 6.7 0 0 1 2.45-1.26 11.9 11.9 0 0 1 3.16-.42c1.16 0 2.35.12 3.53.34s2.2.53 3.06.9v3.45c-1.14-.45-2.23-.77-3.28-.98a15 15 0 0 0-2.95-.3c-1.33 0-2.35.24-3.06.72s-1.08 1.2-1.08 2.17c0 .56.12 1.02.35 1.38a2.8 2.8 0 0 0 .96.9c.4.24.87.42 1.4.57l1.68.4 2.67.68a7.9 7.9 0 0 1 2.26 1.08 4.9 4.9 0 0 1 1.56 1.8c.38.74.57 1.68.57 2.83a6.7 6.7 0 0 1-.66 3.07c-.44.87-1.06 1.58-1.86 2.14s-1.78.98-2.93 1.26a16.3 16.3 0 0 1-3.78.41 17.6 17.6 0 0 1-3.52-.35c-1.16-.24-2.12-.57-2.88-1v-3.4c1.08.47 2.14.8 3.17 1.03s2.1.32 3.2.32c.63 0 1.26-.05 1.87-.16a5.6 5.6 0 0 0 1.65-.53 3 3 0 0 0 1.17-1.03c.3-.43.44-.97.44-1.6zM37.8 11.7a8.3 8.3 0 0 0-3.03.54 6.6 6.6 0 0 0-2.38 1.58c-.66.68-1.18 1.54-1.55 2.55s-.56 2.17-.56 3.47a10.4 10.4 0 0 0 .51 3.41 6.7 6.7 0 0 0 1.46 2.46 6.1 6.1 0 0 0 2.32 1.49c.9.33 1.95.5 3.1.5.83 0 1.68-.07 2.55-.2a14.6 14.6 0 0 0 2.43-.57v3.47a18.5 18.5 0 0 1-2.48.52c-.9.13-1.8.2-2.76.2a13.9 13.9 0 0 1-4.91-.8 9.6 9.6 0 0 1-3.54-2.25c-.94-.97-1.66-2.13-2.14-3.48a13.4 13.4 0 0 1-.71-4.48c0-1.68.25-3.23.76-4.66s1.24-2.68 2.2-3.73a10 10 0 0 1 3.6-2.48 13 13 0 0 1 4.9-.92 17.7 17.7 0 0 1 2.64.19 13.3 13.3 0 0 1 2.25.53v3.42a15.5 15.5 0 0 0-2.45-.57c-.75-.1-1.5-.16-2.22-.16z"/></svg>