<svg xmlns="http://www.w3.org/2000/svg" viewBox="-1.59 -1.59 3.005 3.007" xmlns:v="https://hadesblack.github.io"><path d="M-1.557.04l-.034.18.022.164c.018.012.023.007.024 0h0 0L-1.52.22-1.545.053zm.124-.09c-.02-.012-.024-.007-.025 0 0 0-.03.27-.03.27l.03.264c.02.012.024.007.025 0L-1.4.22zm.466-.25c-.012 0-.022.01-.023.023l-.024.497.024.32c.001.013.01.022.023.022s.022-.01.023-.022h0l.027-.32-.027-.497C-.945-.29-.955-.3-.967-.3zm-.24.173c-.01 0-.017.007-.018.017l-.027.33.027.318c.001.01.008.017.018.017s.017-.007.018-.017l.03-.318-.03-.33c-.001-.01-.008-.017-.018-.017zm.486.69c.015 0 .027-.012.028-.028L-.672.22-.695-.44C-.695-.457-.707-.47-.722-.47S-.75-.457-.75-.44l-.02.66.02.316c0 .015.013.028.028.028zm.502.001c.02 0 .038-.017.038-.038h0 0L-.167.22-.183-.543c0-.02-.017-.038-.038-.038s-.038.017-.038.038L-.274.22-.26.527c0 .02.017.038.038.038zM-.474.564C-.456.564-.44.55-.44.53h0l.02-.31-.02-.666c0-.018-.015-.033-.033-.033s-.033.014-.033.033L-.524.22l.017.31c0 .018.015.033.033.033zM-1.088.56c.01 0 .02-.01.02-.02l.028-.32-.028-.305c-.001-.01-.01-.02-.02-.02s-.02.01-.02.02l-.025.305.025.32c.001.01.01.02.02.02zm-.24-.018c.008 0 .014-.006.015-.015l.032-.31-.032-.32c-.001-.01-.007-.015-.015-.015s-.014.006-.015.015c0 0-.028.32-.028.32l.028.31c.001.01.007.015.015.015zm.98-1c-.02 0-.035.016-.036.035L-.4.22l.016.31c0 .02.016.035.036.035S-.313.55-.312.53h0l.018-.31-.018-.642c0-.02-.016-.035-.036-.035zM-.845.564c.014 0 .025-.01.025-.025l.025-.32-.025-.61C-.82-.404-.832-.415-.845-.415s-.025.01-.025.025l-.022.61.022.32c.001.014.012.025.025.025zm.277-.03h0l.02-.314-.02-.684C-.57-.48-.582-.494-.6-.494s-.03.013-.03.03l-.02.684.02.314c0 .017.014.03.03.03s.03-.013.03-.03zm1.614-.708a.37.37 0 0 0-.143.029C.873-.478.594-.74.253-.74a.66.66 0 0 0-.237.044c-.028.01-.035.022-.036.043V.522c0 .023.018.04.04.044.001 0 1.02.001 1.025.001a.37.37 0 0 0 .37-.37.37.37 0 0 0-.37-.37zm-1.14-.48c-.022 0-.04.018-.04.04L-.152.22l.017.302c0 .022.02.04.04.04s.04-.018.04-.04h0L-.036.22-.054-.612c0-.022-.02-.04-.04-.04z" fill="#fff"/></svg>