<?xml version="1.0" encoding="UTF-8"?>
<svg width="32" height="32" version="1.0" viewBox="-1.5902 -1.5902 3.0052 3.0066" xmlns="http://www.w3.org/2000/svg" xmlns:cc="http://creativecommons.org/ns#" xmlns:dc="http://purl.org/dc/elements/1.1/" xmlns:rdf="http://www.w3.org/1999/02/22-rdf-syntax-ns#">
<title>HADES BLACK on SoundCloud</title>
<metadata>
<rdf:RDF>
<cc:Work rdf:about="">
<dc:format>image/svg+xml</dc:format>
<dc:type rdf:resource="http://purl.org/dc/dcmitype/StillImage"/>
<dc:title>HADES BLACK on SoundCloud</dc:title>
<dc:creator>
<cc:Agent>
<dc:title>HADES BLACK</dc:title>
</cc:Agent>
</dc:creator>
<dc:publisher>
<cc:Agent>
<dc:title>HADES BLACK</dc:title>
</cc:Agent>
</dc:publisher>
<dc:description>Vectorized service graphic by HADES BLACK. Exclusively created for "hadesblack.github.io" website and other platforms, where used by HADES BLACK.</dc:description>
<dc:contributor>
<cc:Agent>
<dc:title>HADES BLACK</dc:title>
</cc:Agent>
</dc:contributor>
<dc:subject>
<rdf:Bag>
<rdf:li>hadesblack</rdf:li>
</rdf:Bag>
</dc:subject>
<dc:source>hadesblack.github.io</dc:source>
<dc:rights>
<cc:Agent>
<dc:title>All rights reserved</dc:title>
</cc:Agent>
</dc:rights>
</cc:Work>
</rdf:RDF>
</metadata>
<path d="m-1.5569 0.041177c-0.0063 0-0.01125 0.0049-0.01206 0.01177l-0.02199 0.16701 0.02199 0.16413c8.1e-4 0.0069 0.0058 0.01174 0.01206 0.01174 0.0061 0 0.01103-0.0048 0.012-0.01167v-3.3e-5 3.3e-5l0.02606-0.1642-0.02606-0.16704c-9.37e-4 -0.0069-0.0059-0.01174-0.012-0.01174zm0.12365-0.09125c-1e-3 -0.0072-0.0062-0.01213-0.01251-0.01213-0.0064 0-0.01164 0.0051-0.01251 0.01213 0 6.5e-5 -0.02955 0.27003-0.02955 0.27003l0.02955 0.26404c8.41e-4 0.0071 0.0061 0.01219 0.01251 0.01219 0.0063 0 0.01145-5e-3 0.01248-0.01213l0.03363-0.26411zm0.46575-0.24907c-0.01212 0-0.02215 0.0099-0.02273 0.02254l-0.02354 0.49679 0.02354 0.32105c6.14e-4 0.01255 0.01061 0.02244 0.02273 0.02244 0.01206 0 0.02205-0.0099 0.02276-0.0225v9.7e-5l0.02661-0.32108-0.02661-0.49679c-7.1e-4 -0.01261-0.0107-0.02254-0.02276-0.02254zm-0.24106 0.17267c-0.0093 0-0.01691 0.0074-0.01766 0.01736l-0.02652 0.32917 0.02652 0.31846c7.11e-4 0.0099 0.0083 0.0173 0.01766 0.0173 0.0092 0 0.01681-0.0074 0.01762-0.0173l0.03014-0.31846-0.03014-0.32923c-8.09e-4 -0.0099-0.0084-0.0173-0.01762-0.0173zm0.48602 0.69012c0.01504 0 0.02726-0.01213 0.02787-0.02765l0.02309-0.31565-0.02305-0.6614c-6.15e-4 -0.01552-0.01284-0.02765-0.02787-0.02765-0.01517 0-0.02742 0.01216-0.0279 0.02768 0 3.2e-5 -0.02047 0.66134-0.02047 0.66134l0.02047 0.31578c4.86e-4 0.01539 0.01274 0.02755 0.02787 0.02755zm0.50151 0.0015c0.02069 0 0.03777-0.01704 0.03815-0.03799v2.26e-4 -2.26e-4l0.0161-0.3066-0.0161-0.76387c-3.56e-4 -0.02092-0.01746-0.03799-0.03815-0.03799-0.02074 0-0.03783 0.01704-0.03816 0.03803l-0.01439 0.76358c0 4.85e-4 0.01439 0.30705 0.01439 0.30705 3.23e-4 0.02076 0.01746 0.0378 0.03816 0.0378zm-0.25266-0.0012c0.01801 0 0.03253-0.01445 0.03301-0.03288v2.27e-4l0.0196-0.31086-0.01963-0.66619c-4.85e-4 -0.01843-0.015-0.03285-0.03301-0.03285-0.01814 0-0.03266 0.01442-0.03305 0.03285l-0.01743 0.66622 0.01746 0.3108c3.88e-4 0.01824 0.01491 0.03269 0.03305 0.03269zm-0.61481-0.0029c0.0107 0 0.01937-0.0086 0.02018-0.01985l0.02839-0.32111-0.02839-0.30547c-7.77e-4 -0.01129-0.0094-0.01979-0.02018-0.01979-0.01087 0-0.01953 0.0086-0.02021 0.01992l-0.02499 0.30534 0.02499 0.32108c7.13e-4 0.01132 0.0093 0.01989 0.02021 0.01989zm-0.23915-0.01759c0.0078 0 0.01416-0.0062 0.01507-0.01471l0.03188-0.30873-0.03185-0.32037c-9.37e-4 -0.0086-0.0073-0.01474-0.0151-0.01474-0.0079 0-0.01426 0.0062-0.01507 0.01474 0 3.3e-5 -0.02807 0.32037-0.02807 0.32037l0.02807 0.30867c7.77e-4 0.0086 0.0071 0.01478 0.01507 0.01478zm0.9798-1.0003c-0.01956 0-0.03524 0.01555-0.03563 0.03547l-0.01591 0.64187 0.01591 0.30886c3.88e-4 0.01966 0.01604 0.03521 0.03563 0.03521 0.01953 0 0.03512-0.01552 0.03557-0.03544v2.59e-4l0.01785-0.30886-0.01785-0.64197c-4.53e-4 -0.01985-0.01604-0.03541-0.03557-0.03541zm-0.49763 1.0212c0.01352 0 0.02467-0.01103 0.02532-0.02509l0.02483-0.31892-0.02483-0.61041c-6.79e-4 -0.0141-0.0118-0.02509-0.02532-0.02509-0.01365 0-0.02477 0.01103-0.02535 0.02509 0 3.3e-5 -0.02199 0.61041-0.02199 0.61041l0.02202 0.31904c5.51e-4 0.01394 0.01167 0.02496 0.02532 0.02496zm0.2773-0.0301v-1.62e-4l0.02134-0.31364-0.02134-0.68368c-5.17e-4 -0.01697-0.0139-0.0303-0.03043-0.0303-0.01662 0-0.03001 0.01329-0.03046 0.0303l-0.01895 0.68365 0.01898 0.31381c4.53e-4 0.01681 0.01384 0.0301 0.03044 0.0301 0.01656 0 0.02988-0.01329 0.03043-0.0302zm1.6141-0.7079c-0.05067 0-0.09901 0.01025-0.14305 0.02871-0.02942-0.3333-0.30892-0.59476-0.64986-0.59476-0.08342 0-0.16474 0.01643-0.23656 0.0442-0.02791 0.0108-0.03534 0.02192-0.0356 0.04349v1.1737c2.91e-4 0.02263 0.01785 0.04149 0.03993 0.04372 9.37e-4 9.7e-5 1.0185 6.14e-4 1.0251 6.14e-4 0.20423 0 0.36981-0.16558 0.36981-0.36984 0-0.20426-0.16555-0.36987-0.36978-0.36987zm-1.1407-0.47941c-0.02221 0-0.04045 0.01824-0.04077 0.04064l-0.01668 0.8331 0.01672 0.30236c2.91e-4 0.02209 0.01853 0.04029 0.04074 0.04029 0.02215 0 0.04039-0.0182 0.04071-0.04061v3.55e-4l0.01814-0.30239-0.01814-0.83316c-3.23e-4 -0.02234-0.01856-0.04058-0.04071-0.04058z" fill="#fff" stroke-width=".032335"/>
</svg>
