<?xml version="1.0" encoding="UTF-8"?>
<svg version="1.1" viewBox="0 0 32 32" xmlns="http://www.w3.org/2000/svg" xmlns:cc="http://creativecommons.org/ns#" xmlns:dc="http://purl.org/dc/elements/1.1/" xmlns:rdf="http://www.w3.org/1999/02/22-rdf-syntax-ns#">
<title>HADES BLACK on Spotify</title>
<metadata>
<rdf:RDF>
<cc:Work rdf:about="">
<dc:format>image/svg+xml</dc:format>
<dc:type rdf:resource="http://purl.org/dc/dcmitype/StillImage"/>
<dc:title>HADES BLACK on Amazon</dc:title>
<dc:creator>
<cc:Agent>
<dc:title>HADES BLACK</dc:title>
</cc:Agent>
</dc:creator>
<dc:publisher>
<cc:Agent>
<dc:title>HADES BLACK</dc:title>
</cc:Agent>
</dc:publisher>
<dc:description>Vectorized service graphic by HADES BLACK. Exclusively created for "hadesblack.github.io" website and other platforms, where used by HADES BLACK.</dc:description>
<dc:contributor>
<cc:Agent>
<dc:title>HADES BLACK</dc:title>
</cc:Agent>
</dc:contributor>
<dc:subject>
<rdf:Bag>
<rdf:li>hadesblack</rdf:li>
</rdf:Bag>
</dc:subject>
<dc:source>hadesblack.github.io</dc:source>
<dc:rights>
<cc:Agent>
<dc:title>All rights reserved</dc:title>
</cc:Agent>
</dc:rights>
</cc:Work>
</rdf:RDF>
</metadata>
<path d="m16 0c-8.8363 0-16 7.1636-16 16 0 8.8369 7.1636 16 16 16 8.8373 0 16-7.163 16-16 0-8.836-7.1628-15.999-16-15.999zm7.3375 23.077c-0.28659 0.47002-0.9018 0.61905-1.3718 0.33054-3.7566-2.2947-8.4857-2.8144-14.055-1.5419-0.53669 0.12228-1.0717-0.21399-1.1939-0.75088-0.12285-0.53689 0.21208-1.0719 0.7501-1.1942 6.0948-1.3925 11.323-0.79292 15.54 1.7845 0.47001 0.28851 0.61903 0.90182 0.33053 1.3718zm1.9584-4.3566c-0.3611 0.58695-1.1292 0.77228-1.7157 0.41117-4.3008-2.6436-10.857-3.4092-15.944-1.865-0.65973 0.19928-1.3565-0.17253-1.5568-0.83113-0.1987-0.65974 0.17329-1.3552 0.83187-1.5558 5.8107-1.7631 13.034-0.90908 17.973 2.126 0.58655 0.36111 0.77188 1.1292 0.41078 1.715zm0.16813-4.5366c-5.1567-3.0629-13.665-3.3446-18.588-1.8503-0.7906 0.23979-1.6267-0.20654-1.8663-0.99716-0.23959-0.79101 0.20634-1.6265 0.99752-1.8669 5.6517-1.7158 15.047-1.3843 20.984 2.1403 0.71265 0.42206 0.94574 1.3405 0.5235 2.0507-0.42033 0.71114-1.3412 0.94558-2.0501 0.52332z" fill="#fff" stroke-width=".19106"/>
</svg>
