<svg xmlns="http://www.w3.org/2000/svg" viewBox="0 0 32 32" xmlns:v="https://hadesblack.github.io"><path d="M16 0a16 16 0 1 0 0 32 16 16 0 0 0 0-32zm7.34 23.08a1 1 0 0 1-1.37.33c-3.76-2.3-8.5-2.8-14.05-1.54a1 1 0 0 1-1.19-.75 1 1 0 0 1 .75-1.19c6.1-1.4 11.32-.8 15.54 1.78a1 1 0 0 1 .33 1.37zm1.96-4.36c-.36.6-1.13.77-1.72.4-4.3-2.64-10.86-3.4-15.94-1.86-.66.2-1.36-.17-1.56-.83s.17-1.36.83-1.56c5.8-1.76 13.03-.9 17.97 2.13.6.36.77 1.13.4 1.72zm.17-4.54c-5.16-3.06-13.66-3.34-18.6-1.85a1.5 1.5 0 0 1-1.87-1 1.5 1.5 0 0 1 1-1.87C11.66 7.75 21.05 8.1 27 11.6a1.5 1.5 0 0 1 .52 2.05 1.5 1.5 0 0 1-2.05.52z" fill="#fff"/></svg>