<?xml version="1.0" encoding="UTF-8"?>
<svg version="1.1" viewBox="0 0 32 32" xmlns="http://www.w3.org/2000/svg" xmlns:cc="http://creativecommons.org/ns#" xmlns:dc="http://purl.org/dc/elements/1.1/" xmlns:rdf="http://www.w3.org/1999/02/22-rdf-syntax-ns#">
<title>HADES BLACK on Steam</title>
<metadata>
<rdf:RDF>
<cc:Work rdf:about="">
<dc:format>image/svg+xml</dc:format>
<dc:type rdf:resource="http://purl.org/dc/dcmitype/StillImage"/>
<dc:title>HADES BLACK on Amazon</dc:title>
<dc:creator>
<cc:Agent>
<dc:title>HADES BLACK</dc:title>
</cc:Agent>
</dc:creator>
<dc:publisher>
<cc:Agent>
<dc:title>HADES BLACK</dc:title>
</cc:Agent>
</dc:publisher>
<dc:description>Vectorized service graphic by HADES BLACK. Exclusively created for "hadesblack.github.io" website and other platforms, where used by HADES BLACK.</dc:description>
<dc:contributor>
<cc:Agent>
<dc:title>HADES BLACK</dc:title>
</cc:Agent>
</dc:contributor>
<dc:subject>
<rdf:Bag>
<rdf:li>hadesblack</rdf:li>
</rdf:Bag>
</dc:subject>
<dc:source>hadesblack.github.io</dc:source>
<dc:rights>
<cc:Agent>
<dc:title>All rights reserved</dc:title>
</cc:Agent>
</dc:rights>
</cc:Work>
</rdf:RDF>
</metadata>
<path d="m15.983 1.5001e-4c-8.4885 0-15.434 6.5962-15.983 14.937 2e-3 4e-3 5e-3 8e-3 7e-3 0.0118v-2e-3l8.6062 3.5392c0.23414-0.15382 0.48369-0.28689 0.75-0.39539 0.60411-0.24858 1.2413-0.35984 1.8762-0.331l3.9194-5.6875c-1e-3 -0.0253-1e-3 -0.0522-1e-3 -0.0791 3e-5 -3.3566 2.7291-6.0872 6.0837-6.0872 3.356 0 6.0837 2.7306 6.0837 6.0872 0 3.3563-2.7277 6.0893-6.0837 6.0893-0.0453 0-0.0921-1e-3 -0.13748-3e-3l-5.6079 4.0032c0.0165 0.61804-0.0976 1.2375-0.34237 1.8281-0.9404 2.2592-3.547 3.3346-5.8077 2.3911-1.3817-0.57544-2.3183-1.7717-2.6238-3.1355l-6.0633-2.4992c1.9996 6.56 8.1033 11.333 15.324 11.333 8.8458 0 16.017-7.1636 16.017-16 0-8.8365-7.1712-16-16.017-16zm-15.345 20.602c-0.44843 7.5985-0.22422 3.7993 0 0zm20.603-12.665c-2.2341 0-4.0531 1.8203-4.0531 4.0555 0 2.237 1.819 4.0566 4.0531 4.0566 2.2355 0 4.0545-1.8196 4.0545-4.0566 0-2.2352-1.819-4.0555-4.0545-4.0555zm7e-3 1.0016c1.6814 0 3.0451 1.3649 3.0451 3.0477 0 1.683-1.3636 3.0467-3.0451 3.0467-1.6801 0-3.044-1.3637-3.044-3.0467 0-1.6828 1.3639-3.0477 3.044-3.0477zm-10.158 9.834c-0.42814-3e-3 -0.85015 0.0743-1.2451 0.22397l2.0475 0.84737c1.2866 0.53563 1.8955 2.0133 1.3587 3.3002-0.53508 1.2855-2.0121 1.8953-3.2994 1.3597l-1.9804-0.82c0.35072 0.73202 0.95869 1.346 1.764 1.681 1.7455 0.72654 3.7536-0.10151 4.4814-1.8471 0.35196-0.84326 0.35322-1.7771 5e-3 -2.6231-0.34782-0.84601-1.0042-1.5081-1.8501-1.8597-0.41953-0.17442-0.85379-0.2589-1.2819-0.26233z" fill="#fff" stroke-width=".13741"/>
</svg>
