<svg xmlns="http://www.w3.org/2000/svg" viewBox="0 0 32 32" xmlns:v="https://hadesblack.github.io"><path d="M15.983 0C7.495 0 .55 6.596 0 14.937l.007.01 8.606 3.54a4.36 4.36 0 0 1 .75-.395c.604-.25 1.24-.36 1.876-.33l3.92-5.687c-.001-.025-.001-.052-.001-.08 0-3.357 2.73-6.087 6.084-6.087s6.084 2.73 6.084 6.087-2.728 6.09-6.084 6.09c-.045 0-.092-.001-.137-.003l-5.608 4.003a4.45 4.45 0 0 1-.342 1.828c-.94 2.26-3.547 3.335-5.808 2.39-1.382-.575-2.318-1.772-2.624-3.136l-6.063-2.5C2.66 27.227 8.762 32 15.983 32 24.83 32 32 24.837 32 16S24.83 0 15.983 0zM.638 20.602c-.448 7.598-.224 3.8 0 0zM21.24 7.937a4.06 4.06 0 0 0-4.053 4.056 4.06 4.06 0 0 0 4.053 4.057 4.06 4.06 0 0 0 4.055-4.057 4.06 4.06 0 0 0-4.055-4.056zm.007 1.002c1.68 0 3.045 1.365 3.045 3.048s-1.364 3.047-3.045 3.047-3.044-1.364-3.044-3.047 1.364-3.048 3.044-3.048zM11.1 18.773c-.428-.003-.85.074-1.245.224l2.047.847c1.287.536 1.896 2.013 1.36 3.3s-2.012 1.895-3.3 1.36l-1.98-.82c.35.732.96 1.346 1.764 1.68a3.43 3.43 0 0 0 4.481-1.847c.352-.843.353-1.777.005-2.623a3.4 3.4 0 0 0-1.85-1.86c-.42-.174-.854-.26-1.282-.262z" fill="#fff"/></svg>