<?xml version="1.0" encoding="UTF-8"?>
<svg width="32" height="32" version="1.1" viewBox="0 0 8.4667 8.4667" xmlns="http://www.w3.org/2000/svg" xmlns:cc="http://creativecommons.org/ns#" xmlns:dc="http://purl.org/dc/elements/1.1/" xmlns:rdf="http://www.w3.org/1999/02/22-rdf-syntax-ns#">
<title>HADES BLACK on TIDAL</title>
<defs>
<clipPath id="a">
<path d="m0 0h612v792h-612z"/>
</clipPath>
</defs>
<metadata>
<rdf:RDF>
<cc:Work rdf:about="">
<dc:format>image/svg+xml</dc:format>
<dc:type rdf:resource="http://purl.org/dc/dcmitype/StillImage"/>
<dc:title>HADES BLACK on Amazon</dc:title>
<dc:creator>
<cc:Agent>
<dc:title>HADES BLACK</dc:title>
</cc:Agent>
</dc:creator>
<dc:publisher>
<cc:Agent>
<dc:title>HADES BLACK</dc:title>
</cc:Agent>
</dc:publisher>
<dc:description>Vectorized service graphic by HADES BLACK. Exclusively created for "hadesblack.github.io" website and other platforms, where used by HADES BLACK.</dc:description>
<dc:contributor>
<cc:Agent>
<dc:title>HADES BLACK</dc:title>
</cc:Agent>
</dc:contributor>
<dc:subject>
<rdf:Bag>
<rdf:li>hadesblack</rdf:li>
</rdf:Bag>
</dc:subject>
<dc:source>hadesblack.github.io</dc:source>
<dc:rights>
<cc:Agent>
<dc:title>All rights reserved</dc:title>
</cc:Agent>
</dc:rights>
</cc:Work>
</rdf:RDF>
</metadata>
<g transform="translate(-74.099 -176.84)">
<g transform="matrix(.84578 0 0 .84578 12.304 27.701)" fill="#fff">
<g transform="matrix(.35278 0 0 -.35278 37.122 357.59)">
<g clip-path="url(#a)" fill="#fff"></g>
</g>
<g transform="matrix(.35278 0 0 -.35278 79.736 179.67)">
<path d="m0 0-4.729-4.73-4.73 4.73 4.73 4.728z" fill="#fff"/>
</g>
<g transform="matrix(.35278 0 0 -.35278 79.736 183.01)">
<path d="m0 0-4.729-4.73-4.73 4.73 4.73 4.73z" fill="#fff"/>
</g>
<g transform="matrix(.35278 0 0 -.35278 76.399 179.67)">
<path d="m0 0-4.73-4.73-4.729 4.73 4.729 4.729z" fill="#fff"/>
</g>
<g transform="matrix(.35278 0 0 -.35278 83.073 179.67)">
<path d="m0 0-4.729-4.73-4.73 4.73 4.73 4.729z" fill="#fff"/>
</g>
</g>
</g>
</svg>
