<svg xmlns="http://www.w3.org/2000/svg" viewBox="0 0 32 32" xmlns:v="https://hadesblack.github.io"><path d="M10.07 29.02c12.08 0 18.68-10 18.68-18.68 0-.28-.01-.57-.02-.85 1.28-.93 2.4-2.08 3.28-3.4a13.1 13.1 0 0 1-3.77 1.03 6.6 6.6 0 0 0 2.89-3.63c-1.27.75-2.67 1.3-4.17 1.6C25.76 3.8 24.06 3 22.17 3c-3.63 0-6.57 2.94-6.57 6.57 0 .52.06 1.02.17 1.5-5.46-.27-10.3-2.9-13.54-6.86-.56.97-.9 2.1-.9 3.3 0 2.28 1.16 4.3 2.92 5.47a6.5 6.5 0 0 1-2.97-.82c0 .03 0 .05 0 .08 0 3.18 2.26 5.84 5.27 6.44-.55.15-1.13.23-1.73.23-.42 0-.83-.04-1.23-.12.84 2.6 3.26 4.5 6.13 4.56-2.25 1.76-5.08 2.8-8.16 2.8-.53 0-1.05-.03-1.57-.1a18.6 18.6 0 0 0 10.07 2.95" fill="#fff"/></svg>