<?xml version="1.0" encoding="UTF-8"?>
<svg version="1.1" viewBox="0 0 32 32" xmlns="http://www.w3.org/2000/svg" xmlns:cc="http://creativecommons.org/ns#" xmlns:dc="http://purl.org/dc/elements/1.1/" xmlns:rdf="http://www.w3.org/1999/02/22-rdf-syntax-ns#">
<title>HADES BLACK on YouTube</title>
<metadata>
<rdf:RDF>
<cc:Work rdf:about="">
<dc:format>image/svg+xml</dc:format>
<dc:type rdf:resource="http://purl.org/dc/dcmitype/StillImage"/>
<dc:title>HADES BLACK on Amazon</dc:title>
<dc:creator>
<cc:Agent>
<dc:title>HADES BLACK</dc:title>
</cc:Agent>
</dc:creator>
<dc:publisher>
<cc:Agent>
<dc:title>HADES BLACK</dc:title>
</cc:Agent>
</dc:publisher>
<dc:description>Vectorized service graphic by HADES BLACK. Exclusively created for "hadesblack.github.io" website and other platforms, where used by HADES BLACK.</dc:description>
<dc:contributor>
<cc:Agent>
<dc:title>HADES BLACK</dc:title>
</cc:Agent>
</dc:contributor>
<dc:subject>
<rdf:Bag>
<rdf:li>hadesblack</rdf:li>
</rdf:Bag>
</dc:subject>
<dc:source>hadesblack.github.io</dc:source>
<dc:rights>
<cc:Agent>
<dc:title>All rights reserved</dc:title>
</cc:Agent>
</dc:rights>
</cc:Work>
</rdf:RDF>
</metadata>
<path d="m15.984 4.7946s-9.9943 0.020599-12.478 0.69785a4.0225 4.0225 0 0 0-2.8323 2.8319c-0.75113 4.4124-1.0426 11.136 0.02044 15.372a4.0225 4.0225 0 0 0 2.8323 2.8323c2.4833 0.67725 12.478 0.67701 12.478 0.67701s9.9947 2.4e-4 12.478-0.67701a4.0225 4.0225 0 0 0 2.8323-2.8323c0.79218-4.4186 1.0361-11.138-0.020839-15.392a4.0225 4.0225 0 0 0-2.8319-2.8319c-2.4833-0.67725-12.478-0.67741-12.478-0.67741zm-3.181 6.4029 8.2913 4.8024-8.2913 4.8024z" fill="#fff" stroke-width=".20523"/>
</svg>
