<?xml version="1.0" encoding="UTF-8"?>
<svg version="1.1" viewBox="0 0 128 128" xmlns="http://www.w3.org/2000/svg" xmlns:cc="http://creativecommons.org/ns#" xmlns:dc="http://purl.org/dc/elements/1.1/" xmlns:rdf="http://www.w3.org/1999/02/22-rdf-syntax-ns#">
<title>HADES BLACK Download Button</title>
<metadata>
<rdf:RDF>
<cc:Work rdf:about="">
<dc:format>image/svg+xml</dc:format>
<dc:type rdf:resource="http://purl.org/dc/dcmitype/StillImage"/>
<dc:title>HADES BLACK Download Button</dc:title>
</cc:Work>
</rdf:RDF>
</metadata>
<path d="m30.288 107.67c-0.9856-0.07-1.7499-0.2636-2.4734-0.6256-1.8156-0.9083-2.9549-2.7362-3.2758-5.2553-0.061-0.4753-0.084-0.8868-0.084-1.4922 0-0.7529 0.039-1.2975 0.1393-1.9141 0.2685-1.6519 1.0026-3.1228 2.0143-4.0359 0.3735-0.3371 0.7573-0.5963 1.2309-0.8312 0.6665-0.3306 1.3425-0.5165 2.1988-0.6045 0.2543-0.026 1.1003-0.026 1.3672 1e-4 1.1908 0.1169 2.1891 0.4838 3.0481 1.1204 0.7239 0.5364 1.2623 1.1967 1.6943 2.0777 0.577 1.1766 0.858 2.5387 0.8589 4.1641 0 2.2544-0.5639 4.1139-1.6382 5.3899-0.9711 1.1534-2.2403 1.8009-3.8772 1.9779-0.2158 0.023-1.0121 0.042-1.2031 0.029zm1.1061-1.6609c1.0686-0.161 1.8966-0.6582 2.5456-1.5283 0.6021-0.8074 0.9427-1.843 1.07-3.2542 0.028-0.3084 0.028-1.5512 0-1.8672-0.1251-1.4167-0.4936-2.5304-1.1087-3.3503-0.1563-0.2084-0.4546-0.5219-0.6362-0.6685-0.5235-0.4229-1.183-0.6974-1.9063-0.7937-0.2619-0.035-0.7352-0.047-1.0062-0.025-0.866 0.069-1.521 0.3095-2.0953 0.7685-0.5823 0.4655-1.0155 1.0689-1.3172 1.8346-0.2624 0.6661-0.4181 1.3896-0.4976 2.3125-0.026 0.3055-0.027 1.39 0 1.7031 0.086 1.0275 0.2625 1.7845 0.5833 2.4983 0.4283 0.9532 1.1831 1.7256 2.0445 2.0919 0.3918 0.1667 0.8701 0.2811 1.3125 0.314 0.2143 0.016 0.8089 0 1.0123-0.036zm52.91 1.6609c-0.9855-0.07-1.7499-0.2636-2.4734-0.6256-1.8155-0.9083-2.9549-2.7362-3.2758-5.2553-0.06-0.4753-0.084-0.8868-0.084-1.4922 0-0.7529 0.039-1.2975 0.1393-1.9141 0.2685-1.6519 1.0026-3.1228 2.0143-4.0359 0.3735-0.3371 0.7573-0.5963 1.231-0.8312 0.6665-0.3306 1.3425-0.5165 2.1987-0.6045 0.2543-0.026 1.1003-0.026 1.3672 1e-4 1.1909 0.1169 2.1891 0.4838 3.0482 1.1204 0.7238 0.5364 1.2622 1.1967 1.6943 2.0777 0.577 1.1766 0.8579 2.5387 0.8588 4.1641 0 2.2544-0.5639 4.1139-1.6381 5.3899-0.9712 1.1534-2.2404 1.8009-3.8773 1.9779-0.2157 0.023-1.0121 0.042-1.2031 0.029zm1.1061-1.6609c1.0686-0.161 1.8967-0.6582 2.5456-1.5283 0.6022-0.8074 0.9427-1.843 1.07-3.2542 0.028-0.3084 0.028-1.5512 0-1.8672-0.1251-1.4167-0.4936-2.5304-1.1087-3.3503-0.1563-0.2084-0.4546-0.5219-0.6362-0.6685-0.5235-0.4229-1.1829-0.6974-1.9062-0.7937-0.2619-0.035-0.7353-0.047-1.0063-0.025-0.866 0.069-1.5209 0.3095-2.0953 0.7685-0.5823 0.4655-1.0155 1.0689-1.3172 1.8346-0.2624 0.6661-0.4181 1.3896-0.4976 2.3125-0.026 0.3055-0.027 1.39 0 1.7031 0.086 1.0275 0.2626 1.7845 0.5833 2.4983 0.4284 0.9532 1.1832 1.7256 2.0445 2.0919 0.3919 0.1667 0.8701 0.2811 1.3125 0.314 0.2143 0.016 0.8089 0 1.0123-0.036zm-73.403-5.7278v-7.1016l1.8477 2e-4c2.1549 1e-4 2.5749 0.012 3.3476 0.095 0.9717 0.104 1.8238 0.3434 2.5905 0.7276 1.0304 0.5163 1.9298 1.3908 2.5207 2.4508 0.4941 0.8864 0.7695 1.8682 0.8678 3.0938 0.028 0.3424 0.023 1.1899-0.01 1.5208-0.1153 1.2306-0.4409 2.2536-1.0287 3.2317-0.2802 0.4663-0.5715 0.8396-0.9456 1.2117-0.4659 0.4634-0.8793 0.7626-1.4709 1.0646-0.8779 0.4482-1.6781 0.6549-2.9086 0.7514-0.5882 0.046-1.0864 0.055-2.9414 0.056l-1.8711 1e-4zm4.2969 5.4466c1.3457-0.1158 2.0914-0.3392 2.8864-0.865 1.1115-0.7351 1.7494-1.8146 1.9639-3.3238 0.063-0.4409 0.079-0.6925 0.079-1.2578 0-0.6538-0.033-1.0465-0.1336-1.5547-0.1627-0.8247-0.4863-1.5584-0.9336-2.1172-0.7135-0.8912-1.8707-1.5042-3.2135-1.7023-0.5276-0.078-1.0373-0.1021-2.1523-0.1023l-0.9023-1e-4v10.957l1.1054-0.01c0.608 0 1.1934-0.016 1.3008-0.025zm25.173 1.5182c-0.019-0.075-0.8353-3.2678-1.8144-7.0948-0.9791-3.8269-1.7802-6.9611-1.7802-6.9648 0 0 0.4352-0.01 0.9671-0.01h0.967l0.061 0.2539c0.5289 2.2031 2.7961 11.523 2.8018 11.517 0 0 0.6445-2.6525 1.4227-5.8853l1.4148-5.8778h1.9203l1.4289 5.9375c0.7859 3.2657 1.433 5.9375 1.438 5.9375 0.01 0 0.6405-2.6455 1.4122-5.8789 0.7717-3.2334 1.4098-5.9053 1.418-5.9375l0.015-0.059h0.9213c0.7269 0 0.9212 0 0.9208 0.019 0 0.011-0.8008 3.2047-1.7789 7.0977l-1.7783 7.0781h-1.0632c-0.8426 0-1.0646 0-1.0698-0.016 0-0.011-0.653-2.6578-1.443-5.8822-0.79-3.2245-1.4408-5.8577-1.446-5.8516-0.01 0.01-0.6335 2.6231-1.3959 5.8157-0.7625 3.1926-1.3936 5.8346-1.4025 5.8711l-0.016 0.066h-2.0862zm15.218-6.9648v-7.1016h2.6824l5.7004 11.223v-11.223h1.7656v14.203h-2.1172l-3.1328-6.1169-3.1328-6.117v12.235h-1.7656v-7.1016zm13.031 0v-7.1016h1.8906v12.531h6.3438v1.6719h-8.2344zm22.07 6.3868c0.1317-0.3932 1.207-3.586 2.3895-7.095 1.1826-3.509 2.1502-6.383 2.1502-6.3868 0 0 0.525-0.01 1.1667 0h1.1668l2.3803 7.0625c1.3092 3.8843 2.3846 7.0783 2.3897 7.0977l0.01 0.035h-1.9907l-0.5067-1.5625c-0.2786-0.8594-0.5665-1.7471-0.6396-1.9726l-0.133-0.4102h-5.4355l-0.133 0.4102c-0.073 0.2255-0.361 1.1132-0.6397 1.9726l-0.5067 1.5625h-1.9071zm7.8456-4.8907c-0.072-0.2251-2.1805-6.6494-2.1842-6.653 0 0-0.4929 1.4903-1.0891 3.3181-0.5963 1.8277-1.0873 3.3319-1.0913 3.3427-0.01 0.015 0.4374 0.019 2.183 0.019 2.0789 0 2.1898 0 2.1816-0.027zm5.1628-1.4961v-7.1016l1.8477 2e-4c2.1549 1e-4 2.5748 0.012 3.3476 0.095 0.9716 0.104 1.8238 0.3434 2.5904 0.7276 1.0305 0.5163 1.9298 1.3908 2.5207 2.4508 0.4941 0.8864 0.7695 1.8682 0.8679 3.0938 0.028 0.3424 0.023 1.1899-0.01 1.5208-0.1153 1.2306-0.4409 2.2536-1.0287 3.2317-0.2802 0.4663-0.5716 0.8396-0.9457 1.2117-0.4659 0.4634-0.8793 0.7626-1.4708 1.0646-0.878 0.4482-1.6781 0.6549-2.9086 0.7514-0.5882 0.046-1.0864 0.055-2.9414 0.056l-1.8711 1e-4zm4.2969 5.4466c1.3457-0.1158 2.0914-0.3392 2.8863-0.865 1.1116-0.7351 1.7494-1.8146 1.964-3.3238 0.063-0.4409 0.078-0.6925 0.079-1.2578 0-0.6538-0.033-1.0465-0.1336-1.5547-0.1627-0.8247-0.4863-1.5584-0.9337-2.1172-0.7134-0.8912-1.8707-1.5042-3.2134-1.7023-0.5277-0.078-1.0373-0.1021-2.1523-0.1023l-0.9024-1e-4v10.957l1.1055-0.01c0.608 0 1.1934-0.016 1.3008-0.025zm-46.113-21.424c-6.2471-0.1946-12.247-2.1901-17.356-5.7724-3.0341-2.1276-5.7241-4.8176-7.8517-7.8517-2.126-3.0319-3.6951-6.3756-4.6707-9.9531-1.0225-3.7499-1.3488-7.7394-0.9534-11.656 0.5818-5.7624 2.719-11.249 6.1864-15.883 1.8697-2.4985 4.0158-4.6446 6.516-6.516 3.2126-2.4045 6.8351-4.1718 10.727-5.233 3.7492-1.0223 7.74-1.3488 11.656-0.9534 5.4382 0.5491 10.626 2.48 15.109 5.6241 2.0821 1.4601 4.0301 3.2093 5.7162 5.133 2.3838 2.7196 4.3079 5.8542 5.6407 9.1891 0.6702 1.6769 1.2076 3.4422 1.5789 5.1859 1.0617 4.9866 0.9186 10.217-0.4132 15.109-0.8156 2.9956-2.0711 5.875-3.6995 8.4843-2.6095 4.1816-6.1103 7.6824-10.292 10.292-2.3559 1.4702-4.9974 2.6648-7.664 3.466-3.2887 0.988-6.7722 1.4426-10.23 1.3349zm2.3943-3.1392c0.6587-0.036 1.2162-0.081 1.7813-0.142 7.6168-0.8289 14.582-4.6694 19.401-10.697 5.1466-6.4377 7.2752-14.718 5.8877-22.904-1.6144-9.5254-8.0218-17.695-16.926-21.58-3.0026-1.3102-6.22-2.0973-9.5037-2.3249-0.7691-0.053-1.0641-0.062-2.0313-0.062s-1.2622 0.01-2.0312 0.062c-4.4596 0.3091-8.756 1.6415-12.609 3.9104-3.2839 1.9335-6.209 4.5551-8.4936 7.6123-3.3303 4.4563-5.278 9.6926-5.6695 15.242-0.052 0.738-0.063 1.0857-0.063 2.039s0.011 1.301 0.063 2.0391c0.1974 2.798 0.78 5.4811 1.7576 8.0946 2.7261 7.288 8.36 13.225 15.511 16.345 2.6504 1.1565 5.4849 1.9101 8.3631 2.2233 0.7661 0.083 1.2667 0.1183 2.336 0.1633 0.2565 0.011 1.9331-0.01 2.2265-0.021zm-18.062-10.993v-2.3828h33.328v4.7656h-33.328zm8.3282-15.484-8.336-8.3359h9.5235v-14.281h14.297v14.281h9.5157l-16.664 16.664z" fill="#fff" stroke-width=".015625"/>
</svg>
