<?xml version="1.0" encoding="UTF-8"?>
<svg width="118.73" height="12.624" version="1.1" viewBox="0 0 31.413 3.3401" xmlns="http://www.w3.org/2000/svg" xmlns:cc="http://creativecommons.org/ns#" xmlns:dc="http://purl.org/dc/elements/1.1/" xmlns:rdf="http://www.w3.org/1999/02/22-rdf-syntax-ns#">
<title>HADES BLACK Lettering</title>
<metadata>
<rdf:RDF>
<cc:Work rdf:about="">
<dc:format>image/svg+xml</dc:format>
<dc:type rdf:resource="http://purl.org/dc/dcmitype/StillImage"/>
<dc:title>HADES BLACK Lettering</dc:title>
<dc:creator>
<cc:Agent>
<dc:title>HADES BLACK</dc:title>
</cc:Agent>
</dc:creator>
<dc:publisher>
<cc:Agent>
<dc:title>HADES BLACK</dc:title>
</cc:Agent>
</dc:publisher>
<dc:description>Vectorized lettering graphic by HADES BLACK. Exclusively created for "hadesblack.github.io" website and other platforms, where used by HADES BLACK.</dc:description>
<dc:contributor>
<cc:Agent>
<dc:title>HADES BLACK</dc:title>
</cc:Agent>
</dc:contributor>
<dc:subject>
<rdf:Bag>
<rdf:li>hadesblack</rdf:li>
</rdf:Bag>
</dc:subject>
<dc:source>hadesblack.github.io</dc:source>
<dc:rights>
<cc:Agent>
<dc:title>All rights reserved</dc:title>
</cc:Agent>
</dc:rights>
</cc:Work>
</rdf:RDF>
</metadata>
<path d="M4.07 0c-.4445.0762-.78103.19686-1.0096.36196C2.89953.28576 2.7725.2413 2.67938.2286c.072.05503.12276.0995.1524.13336.0423.0635.0635.1418.0635.23495v.75565h-.5207V.69853c0-.1397.0614-.28154.18414-.42548-.0974.0127-.18414.04234-.26034.0889-.017.0127-.07.0593-.15875.13972L1.6062.28576c-.008-.01693.02-.09525.0825-.23495L1.2442.038c-.44873 0-.8657.04234-1.251.127.26247.01693.55245.05927.86995.127s.56938.13336.75565.20956v.69848c-.16087-.01693-.3387-.01693-.53342 0 .2286.0762.40642.18836.53342.33653l-.38734.01907c.1524.0635.2815.1545.38734.27304v.83185c0 .12277-.0826.26036-.24766.41276l.2921-.10162.0826.10162.78103-.0508c-.0847-.12277-.127-.23918-.127-.34924V1.778h.4953v.93983c0 .089-.0635.20743-.19053.3556.11007-.02963.20112-.06985.2731-.12065l.089.12065.8-.0762c-.1397-.15663-.20956-.2667-.20956-.3302V.7684c0-.19473.0297-.34715.089-.45722s.17146-.218.32386-.31114zm7.4423 0c-.4445.02117-.78315.07833-1.016.17146-.18203.07197-.34078.1905-.47625.3556.055-.02117.10583-.03174.1524-.03174.0593 0 .089.0254.089.0762v.71755c-.14394-.0085-.26672.002-.36832.03174.13547.06773.25825.17357.36832.3175-.093-.0127-.19264-.0042-.29847.0254.0974.05503.19687.14184.29847.26037v.7493c0 .04233-.0275.08676-.0826.13332s-.0995.06352-.14607.06352l.9652.1524c.216.038.32385.09526.32385.17146 0 .038-.019.08677-.0572.14604.51577-.1073.99474-.3534 1.437-.738.1302.08572.3125.17722.54725.27456.40217.16087.77046.24763 1.105.26033-.0296-.04233-.0444-.07618-.0444-.10158 0-.05927.0973-.0889.29207-.0889l.2413.0064h.29212a.045.045 0 0 1 .0127.03174c0 .04233-.0423.08888-.12697.13968.28787-.03387.42122-.18625.40006-.45718V2.3178c-.008-.14393.02-.21592.0825-.21592.034 0 .0804.0127.13972.038-.13123-.25823-.32175-.4572-.5715-.597-.127-.07197-.33867-.15028-.635-.23495.0847.07197.12276.12276.1143.1524L14.1314 1.289c-.11854-.038-.17782-.13548-.17782-.2921 0-.10583.0275-.23706.0825-.3937.0508-.02963.16088-.04445.3302-.04445.16087 0 .34926.0127.56516.038.1397.0127.3069.11853.50164.3175-.0974-.2667-.2921-.4678-.5842-.60326-.24553-.11007-.53764-.1651-.8763-.1651-.38947 0-.70485.0593-.94615.17782.0974.02963.15874.05503.18414.0762s.0445.0529.0445.10794v.56516c0 .089-.0296.13336-.089.13336-.0296 0-.0762-.01058-.1397-.03174.0593.13123.24766.24764.56516.34924l.51435.17778c.16087.07197.30904.165.4445.2794.0508.04657.0762.13758.0762.27304l-.006.12065a.2204.2204 0 0 1-.006.05081c0 .15663-.23494.23495-.70484.23495-.3933 0-.772-.0409-1.1362-.12247l.2188-.21406-.43556.16034-.006-.0016.003.0027c-.47452.16305-.83876.24495-1.0916.24495-.2032 0-.3048-.055-.3048-.16507l.006-.62868c.1905-.08467.41275-.15028.66675-.19685.1905-.038.48048-.07407.86994-.10794l-.7239-.17146c-.23283-.03387-.50162-.053-.80642-.05713l-.006-.75565h1.1494c.22014 0 .42756.12065.6223.36195-.0677-.24553-.1418-.4318-.22223-.5588s-.18416-.24553-.32386-.3556l.019.13968c0 .05503-.0233.08255-.07.08255h-1.0922c-.0296 0-.0445-.01694-.0445-.0508s.0254-.08253.0762-.13333.13335-.09526.23495-.13336zM7.1567.0064c-.45297 0-.79166.04022-1.016.12065.6096.02963.99483.12064 1.1557.27304l-.006.8636c-.15664-.01693-.3302-.01693-.5207 0 .089.03387.19053.09315.30483.17782s.18624.1524.21588.2032l-.4191.01903c.15664.05927.30056.1482.4318.26673v.80642c0 .08528-.0716.1747-.21452.26824-.1626-.06228-.2593-.1474-.28972-.25553L6.25914.8446c-.008-.02963-.0127-.05503-.0127-.0762 0-.1143.0995-.2053.29843-.27304a.9218.9218 0 0 0-.15239-.01271c-.20744 0-.41486.0508-.6223.1524L5.26855.46357l.0952-.21588c-.18627-.04233-.41488-.0635-.6858-.0635-.3683 0-.66886.03385-.9017.10158.292.0254.59478.08465.90804.17778.24977.0762.45723.15455.62233.235l-.22863.84452c-.165-.0042-.35137.0043-.5588.02542.1778.05927.34504.1439.50167.25398-.12276-.0085-.25824.00002-.4064.02542.127.0508.2434.1143.34925.1905l-.2286.66674c-.034.09313-.1143.18414-.2413.27304l-.18413.10162c.13546.0085.26032-.0085.37462-.0508l.13972.13968c.343-.02117.61594-.0614.81914-.12065-.14393-.07197-.21588-.1524-.21588-.2413 0-.02117.004-.0402.0127-.05713l.1143-.36195c.072-.18627.15665-.28573.25402-.29843.0847-.0085.15665.09312.2159.3048.0423.1524.0635.27726.0635.37463 0 .0635-.0487.1757-.14604.33657l.2286-.05717.1524.12065.9017-.12065-.0275-.0076.1571-.037.165.0889.51435-.038.37463-.04445c-.0958-.02395-.16675-.05577-.21328-.09538.40234-.00076.67082-.0218.80383-.06337.254-.08043.44027-.26246.5588-.5461.1397-.33443.21593-.85302.22863-1.5558 0-.04657.0952-.0741.28572-.08255C9.551.42115 8.9774.2984 8.3509.2984l-.22863.0063V.08883C7.85133.0338 7.52962.00628 7.1571.00628zm20.954.02538c-.3302 0-.63292.08468-.9081.25402.6223-.0042 1.05.07408 1.2827.23495v.77472l-.47246-.0077c.0308-.07657.0463-.15654.0463-.23995s-.017-.15877-.0508-.22227l.1143-.08255c.0254-.01693.0762-.0402.15244-.06984l-.19053-.0635c-.038-.0042-.093-.002-.16507.0064-.23283-.1016-.41277-.16513-.53977-.19053-.1524-.038-.3408-.05288-.56516-.04442 0-.10583.0593-.19688.1778-.27308-.28786.0508-.56727.16088-.8382.3302-.292.17357-.50377.37254-.635.597.11853-.0635.2138-.09947.28576-.10794-.1524.2286-.2286.508-.2286.8382 0 .3175.0677.60323.20316.85723-.0677.0085-.15025-.01268-.24762-.06348.16087.18627.40426.33232.73023.43815.29633.09737.60538.14604.9271.14604l.24766-.0064c-.0593-.05927-.0826-.11643-.07-.17146l.30483-.17778c.0593-.038.13333-.09947.22223-.18414.0466-.04233.1016-.06352.1651-.06352.072 0 .14395.02964.21592.0889-.038-.1397-.0826-.23708-.13337-.2921s-.12488-.091-.23494-.10794c-.038-.04233-.053-.1122-.0445-.20956-.10583.09737-.15875.18417-.15875.26037 0 .01693.004.03175.0127.04445l-.22863.19685c-.11006.0762-.216.1143-.3175.1143-.165 0-.29208-.01482-.38098-.04445-.1397-.04657-.24766-.13758-.32386-.27304s-.1143-.32385-.1143-.55245c0-.216.038-.4191.1143-.6096.034-.0762.0995-.15027.19685-.22224s.19263-.1249.28576-.14608c.0804-.0127.15242-.01903.21592-.01903.11853 0 .27936.04655.48256.13968.17345.10673.2717.2346.29533.3834l-.0406.004.043.01213c.004.03504.005.07116.00062.10848.02-.02985.037-.06027.0517-.09127.17444.06142.33525.1637.48234.3072-.165-.0042-.30266.0085-.41273.038.0677.02963.14392.07622.2286.13972s.1524.12275.1905.17778v.5842c-.004.08467-.0656.19475-.18413.3302-.0466.05503-.10586.11432-.17782.17782.1778-.02963.31327-.06352.4064-.10162l.14603.09526.3112.01267c.33866 0 .58418-.0296.73658-.08887-.22437-.01693-.33657-.09737-.33657-.2413v-.85092l.34293.29847c-.0762.0635-.1228.17354-.13972.33017.0974-.09313.1905-.13968.2794-.13968.0254 0 .0445.0042.0572.0127l.27305.29208c.017.02117.0254.0487.0254.08255 0 .08467-.0487.18205-.14604.2921.055 0 .11007-.0127.165-.038.0254-.01693.0508-.03176.0762-.04445l.1651.08255.92076-.038c-.32174-.11007-.54402-.2265-.6668-.34928l-1.0985-1.0858.25402-.23495c.18626.05503.3175.13335.3937.23495l-.0635-.1905c-.034-.05927-.093-.11855-.17778-.17782.0466 0 .0825.0042.10794.0127.0127.0085.053.03174.12065.06984.004-.04657-.002-.08466-.02-.1143l-.0444-.10794.48256-.4826c.0677-.06773.18206-.1376.34293-.20956l.34288-.13968c-.63076.11853-1.0096.21375-1.1366.28572-.089-.11007-.218-.1905-.38734-.2413l.12697.127c.0593.06773.089.12702.089.17782 0 .038-.017.07407-.0508.10794l-.64132.60326V.84464c0-.09737.02-.17356.057-.2286s.11852-.11855.2286-.17782c-.15664 0-.30056.02752-.4318.08255-.055.02117-.10582.04656-.1524.0762l-.3683-.2032c.0635-.12277.0995-.21378.10797-.27304-.3302-.05927-.56726-.0889-.7112-.0889zm-10.254.0064c-.38.004-.70246.06746-.9644.1905.089-.0127.19053-.01903.30483-.01903.4572 0 .68577.0762.68577.2286v.90804c-.21167-.0127-.37887-.0042-.50164.02542.165.0254.33018.1143.49528.2667l-.33653.0254c.2286.0762.3429.1524.3429.2286v.80003c0 .0762-.0465.15243-.13968.22863s-.19686.12276-.32386.1524c.61807 0 1.0054-.091 1.162-.27304l.0952.1143.673.10158c.35136-.16087.62444-.34926.81917-.56516-.038 0-.0783-.002-.12065-.0063-.0593-.0127-.089-.04022-.089-.08255V2.0003c0-.04233.0254-.06773.0762-.0762l.14603-.02542c-.12276-.11007-.27514-.21165-.45718-.3048s-.3556-.165-.5207-.2032l.74294-.3429.0127-.45086c-.0212-.0508-.055-.09947-.10158-.14604l-.10918-.1037c.48335.04744.89725.18127 1.2412.40215v.597c-.1778-.0085-.34288.00002-.49528.02542.18203.05503.345.13968.48892.25398-.11006-.0042-.22647.0127-.34924.0508.14393.0508.26034.12487.34924.22223v.6477c0 .12277-.055.216-.16506.2794-.072.04233-.15453.06985-.24766.08255l1.2065.08255c.0593.0042.089.03596.089.09523 0 .04233-.0148.0868-.0445.13336.5626-.03674 1.029-.1359 1.3998-.2972l-.073.0559-.18417.10162c.13546.0085.26036-.0085.37466-.0508l.1397.13968c.343-.02117.61597-.0614.81917-.12065-.14393-.07197-.21592-.1524-.21592-.2413 0-.02117.004-.0402.0127-.05713l.1143-.36195c.072-.18627.15665-.28573.25402-.29843.0847-.0085.1566.09312.21588.3048.0423.1524.0635.27726.0635.37463 0 .0635-.0487.1757-.14608.33657l.2286-.05717.15244.12065.90168-.12065c-.24553-.0635-.38733-.16296-.42543-.29843l-.53978-1.905c-.008-.02963-.0127-.05503-.0127-.0762 0-.1143.0995-.2053.29847-.27304a.9218.9218 0 0 0-.15239-.01271c-.20744 0-.415.0508-.62233.1524l-.50164-.17146.0953-.21588c-.18627-.04233-.41488-.0635-.6858-.0635-.3683 0-.66886.03385-.9017.10158.292.0254.59478.08465.90804.17778.24977.0762.4572.15455.6223.235l-.2286.84452c-.165-.0042-.35137.0043-.5588.02542.1778.05927.345.1439.50163.25398-.12276-.0085-.2582.00002-.40637.02542.127.0508.2434.1143.34925.1905l-.17108.49892-.18433.0408c-.31327.05927-.59267.0889-.8382.0889-.4318 0-.64772-.09526-.64772-.28576v-.45082c.0635-.05927.19265-.1355.38738-.22863-.093-.03387-.22228-.0487-.38738-.04445.0635-.06773.2138-.15025.45087-.24762-.22013-.04233-.37043-.06352-.45087-.06352v-.28576c0-.1397.034-.24553.10163-.3175.034-.03387.093-.06984.17778-.10794-.1905.0042-.36828.05927-.53338.1651L21.142.5461c.0423-.07197.0868-.16086.13337-.2667-.292-.04233-.56093-.0635-.80646-.0635-.25974 0-.50848.02197-.74636.0657.0136-.03244.0564-.0607.12864-.08476-.13547-.0085-.33656.00002-.60326.02542l-.64135.0825-.006-.18414C18.38055.06562 18.1583.038 17.93394.038c-.026-.00026-.0516-.00026-.077 0zm-9.328.4826c.22437 0 .35985.02752.4064.08255l.006.29843.006.32386c0 .42757-.0445.76626-.13336 1.016-.11652.33708-.32532.55933-.62593.66732-.0397-.03624-.06-.0787-.06-.1276V.55886c.14817-.0254.28152-.038.40005-.038zm10.582.0615c.0495-.002.09.01575.1243.0528.0423.038.0635.08677.0635.14604 0 .11007-.0614.1863-.18417.22863l-.4826.18414V.6478l.45722-.06352c.007-.001.0147-.0017.0217-.002zm-13.297.98l.0952.3556h-.18414zm18.655 0l.0953.3556h-.18414zM18.7 1.63572c.1315-.0014.26947.03123.41393.098.16933.0762.254.15455.254.235v.40637c0 .13547-.0868.2032-.26033.2032-.089 0-.24132-.0254-.45722-.0762l-.006-.8636.056-.0027z" fill="#fff"/>
</svg>
