<?xml version="1.0" encoding="UTF-8"?>
<svg width="118.73" height="12.624" version="1.1" viewBox="0 0 31.413 3.3401" xmlns="http://www.w3.org/2000/svg" xmlns:cc="http://creativecommons.org/ns#" xmlns:dc="http://purl.org/dc/elements/1.1/" xmlns:rdf="http://www.w3.org/1999/02/22-rdf-syntax-ns#">
<title>HADES BLACK Lettering</title>
<metadata>
<rdf:RDF>
<cc:Work rdf:about="">
<dc:format>image/svg+xml</dc:format>
<dc:type rdf:resource="http://purl.org/dc/dcmitype/StillImage"/>
<dc:title>HADES BLACK Lettering</dc:title>
</cc:Work>
</rdf:RDF>
</metadata>
<g transform="translate(-212.73 -63.555)">
<g aria-label="HADES BLACK">
<path d="m216.8 63.555c-0.4445 0.0762-0.78103 0.19686-1.0096 0.36196-0.16087-0.0762-0.28789-0.12066-0.38102-0.13336 0.072 0.05503 0.12276 0.0995 0.15239 0.13336 0.0423 0.0635 0.0635 0.14181 0.0635 0.23495v0.75565h-0.5207v-0.65403c0-0.1397 0.0614-0.28154 0.18414-0.42548-0.0974 0.0127-0.18414 0.04234-0.26034 0.08891-0.0169 0.0127-0.0699 0.05929-0.15875 0.13972l-0.53341-0.21592c-8e-3 -0.01693 0.019-0.09525 0.0825-0.23495-0.127-0.0085-0.27518-0.01271-0.44451-0.01271-0.44873 0-0.8657 0.04234-1.2509 0.12701 0.26247 0.01693 0.55245 0.05927 0.86995 0.12701 0.3175 0.0635 0.56938 0.13336 0.75565 0.20956v0.69848c-0.16087-0.01693-0.33869-0.01693-0.53342 0 0.2286 0.0762 0.40642 0.18836 0.53342 0.33653-0.18203 0-0.31114 0.0064-0.38734 0.01907 0.1524 0.0635 0.28151 0.15451 0.38734 0.27304v0.83185c0 0.12277-0.0826 0.26036-0.24766 0.41276 0.1397-0.04233 0.23708-0.07622 0.29211-0.10162l0.0826 0.10162c0.2921-0.01693 0.55243-0.03388 0.78103-0.05081-0.0847-0.12277-0.127-0.23918-0.127-0.34924v-0.89537h0.49531v0.93983c0 0.0889-0.0635 0.20743-0.19053 0.3556 0.11007-0.02963 0.20112-0.06985 0.27309-0.12065l0.0889 0.12065c0.3429-0.02117 0.6096-0.04656 0.8001-0.0762-0.1397-0.15663-0.20956-0.26671-0.20956-0.33021v-1.8986c0-0.19473 0.0297-0.34715 0.0889-0.45722 0.0635-0.1143 0.17146-0.21801 0.32386-0.31114zm7.4423 0c-0.4445 0.02117-0.78315 0.07833-1.016 0.17146-0.18203 0.07197-0.34078 0.1905-0.47625 0.3556 0.055-0.02117 0.10583-0.03174 0.1524-0.03174 0.0593 0 0.0889 0.0254 0.0889 0.0762v0.71755c-0.14394-0.0085-0.26672 0.0021-0.36832 0.03174 0.13547 0.06773 0.25825 0.17357 0.36832 0.3175-0.0931-0.0127-0.19264-0.0042-0.29847 0.02539 0.0974 0.05503 0.19687 0.14184 0.29847 0.26037v0.7493c0 0.04233-0.0275 0.08676-0.0826 0.13332-0.0508 0.04233-0.0995 0.06352-0.14607 0.06352 0.32173 0.0508 0.64347 0.10159 0.96521 0.15239 0.2159 0.0381 0.32385 0.09526 0.32385 0.17146 0 0.0381-0.0191 0.08677-0.0572 0.14604 0.51577-0.10731 0.99474-0.3534 1.4369-0.7381 0.1302 0.08572 0.31249 0.17722 0.54725 0.27456 0.40217 0.16087 0.77046 0.24763 1.1049 0.26033-0.0296-0.04233-0.0444-0.07618-0.0444-0.10158 0-0.05927 0.0973-0.08891 0.29207-0.08891 0.0339 0 0.1143 0.0021 0.2413 0.0064h0.29212c8e-3 0.0085 0.0127 0.01904 0.0127 0.03174 0 0.04233-0.0423 0.08888-0.12697 0.13968 0.28787-0.03387 0.42122-0.18625 0.40006-0.45718v-0.34924c-8e-3 -0.14393 0.019-0.21592 0.0825-0.21592 0.0339 0 0.0804 0.0127 0.13972 0.0381-0.13123-0.25823-0.32175-0.4572-0.57151-0.5969-0.127-0.07197-0.33867-0.15028-0.635-0.23495 0.0847 0.07197 0.12276 0.12276 0.11429 0.15239l-0.41908-0.17142c-0.11854-0.0381-0.17782-0.13548-0.17782-0.29211 0-0.10583 0.0275-0.23706 0.0825-0.3937 0.0508-0.02963 0.16088-0.04445 0.33021-0.04445 0.16087 0 0.34926 0.0127 0.56516 0.0381 0.1397 0.0127 0.30691 0.11853 0.50164 0.3175-0.0974-0.2667-0.29209-0.46779-0.58419-0.60326-0.24553-0.11007-0.53764-0.16511-0.8763-0.16511-0.38947 0-0.70485 0.05929-0.94615 0.17782 0.0974 0.02963 0.15874 0.05503 0.18414 0.0762 0.0296 0.01693 0.0445 0.05291 0.0445 0.10794v0.56516c0 0.0889-0.0296 0.13336-0.0889 0.13336-0.0296 0-0.0762-0.01058-0.13969-0.03174 0.0593 0.13123 0.24766 0.24764 0.56516 0.34924 0.24554 0.0762 0.41698 0.13545 0.51435 0.17778 0.16087 0.07197 0.30904 0.1651 0.44451 0.2794 0.0508 0.04657 0.0762 0.13758 0.0762 0.27304 0 0.04233-2e-3 0.08255-6e-3 0.12065 0 0.01693-2e-3 0.03388-6e-3 0.05081 0 0.15663-0.23494 0.23495-0.70484 0.23495-0.39329 0-0.772-0.04091-1.1362-0.12247 0.074-0.06746 0.14693-0.1387 0.21879-0.21406-0.15448 0.06029-0.29931 0.11347-0.43556 0.16034-2e-3 -5.42e-4 -4e-3 -1e-3 -6e-3 -0.0016 8.9e-4 8.81e-4 2e-3 0.0018 3e-3 0.0027-0.47452 0.16305-0.83876 0.24495-1.0916 0.24495-0.2032 0-0.30479-0.055-0.30479-0.16507l6e-3 -0.62868c0.1905-0.08467 0.41275-0.15028 0.66675-0.19685 0.1905-0.0381 0.48048-0.07407 0.86994-0.10794-0.2921-0.08043-0.53341-0.1376-0.72391-0.17146-0.23283-0.03387-0.50162-0.0529-0.80642-0.05713l-6e-3 -0.75565h1.1494c0.22014 0 0.42756 0.12065 0.62229 0.36195-0.0677-0.24553-0.1418-0.4318-0.22223-0.5588-0.0762-0.127-0.18416-0.24553-0.32386-0.3556 0.0127 0.06773 0.0191 0.11428 0.0191 0.13968 0 0.05503-0.0233 0.08255-0.0699 0.08255h-1.0922c-0.0296 0-0.0445-0.01694-0.0445-0.05081 0-0.0381 0.0254-0.08253 0.0762-0.13333 0.055-0.0508 0.13335-0.09526 0.23495-0.13336zm-4.3556 0.0064c-0.45297 0-0.79166 0.04022-1.016 0.12065 0.6096 0.02963 0.99483 0.12064 1.1557 0.27304l-6e-3 0.86359c-0.15664-0.01693-0.33021-0.01693-0.52071 0 0.0889 0.03387 0.19053 0.09315 0.30483 0.17782 0.1143 0.08467 0.18624 0.1524 0.21588 0.2032-0.14394 0-0.28362 0.0063-0.41909 0.01903 0.15664 0.05927 0.30056 0.1482 0.4318 0.26673v0.80642c0 0.08528-0.0716 0.17471-0.21452 0.26824-0.16259-0.06228-0.2593-0.14739-0.28972-0.25553l-0.53973-1.905c-8e-3 -0.02963-0.0127-0.05503-0.0127-0.0762 0-0.1143 0.0995-0.20531 0.29843-0.27304-0.0508-0.0085-0.10159-0.01271-0.15239-0.01271-0.20744 0-0.41486 0.05079-0.62229 0.15239l-0.50164-0.17146 0.0952-0.21588c-0.18627-0.04233-0.41488-0.06349-0.68581-0.06349-0.3683 0-0.66886 0.03385-0.90169 0.10158 0.2921 0.0254 0.59478 0.08465 0.90804 0.17778 0.24977 0.0762 0.45723 0.15455 0.62233 0.23499l-0.22863 0.84452c-0.1651-0.0042-0.35137 0.0043-0.5588 0.02542 0.1778 0.05927 0.34504 0.14391 0.50167 0.25398-0.12276-0.0085-0.25824 2e-5 -0.40641 0.02542 0.127 0.0508 0.24341 0.11429 0.34925 0.19049l-0.2286 0.66674c-0.0339 0.09313-0.1143 0.18414-0.2413 0.27304-0.055 0.03387-0.1164 0.06776-0.18413 0.10162 0.13546 0.0085 0.26032-0.0085 0.37462-0.05081l0.13972 0.13968c0.3429-0.02117 0.61594-0.06139 0.81914-0.12065-0.14393-0.07197-0.21588-0.1524-0.21588-0.2413 0-0.02117 4e-3 -0.04019 0.0127-0.05713 0.0381-0.12277 0.0762-0.24342 0.11429-0.36195 0.072-0.18627 0.15665-0.28573 0.25402-0.29843 0.0847-0.0085 0.15665 0.09312 0.21591 0.30479 0.0423 0.1524 0.0635 0.27726 0.0635 0.37463 0 0.0635-0.0487 0.1757-0.14604 0.33657l0.22859-0.05717 0.15239 0.12065c0.4318-0.0381 0.73236-0.07832 0.90169-0.12065-9e-3 -0.0024-0.0184-5e-3 -0.0275-0.0076 0.0479-0.01008 0.10008-0.02228 0.15709-0.0369l0.1651 0.08891c0.15664-0.0042 0.32809-0.01693 0.51435-0.0381 0.12277-0.0127 0.24763-0.02752 0.37463-0.04445-0.0958-0.02395-0.16675-0.05577-0.21328-0.09538 0.40234-7.56e-4 0.67082-0.0218 0.80383-0.06337 0.254-0.08043 0.44027-0.26246 0.5588-0.54609 0.1397-0.33443 0.21593-0.85302 0.22863-1.5558 0-0.04657 0.0952-0.07409 0.28572-0.08255-0.5207-0.24553-1.0943-0.36827-1.7208-0.36827-0.0762 0-0.15243 0.0021-0.22863 0.0063v-0.21588c-0.27093-0.05503-0.59264-0.08255-0.96517-0.08255zm20.954 0.02538c-0.3302 0-0.63292 0.08468-0.90809 0.25402 0.6223-0.0042 1.0499 0.07408 1.2827 0.23495v0.77472c-0.20506-9e-3 -0.36191-0.01155-0.47246-0.0077 0.0308-0.07657 0.0463-0.15654 0.0463-0.23995 0-0.08467-0.0169-0.15877-0.0508-0.22227l0.11429-0.08255c0.0254-0.01693 0.0762-0.04021 0.15244-0.06984-0.0931-0.03387-0.15667-0.05502-0.19053-0.06349-0.0381-0.0042-0.0931-0.0021-0.16507 0.0064-0.23283-0.1016-0.41277-0.16513-0.53977-0.19053-0.1524-0.0381-0.3408-0.05288-0.56516-0.04442 0-0.10583 0.0593-0.19688 0.17781-0.27308-0.28786 0.0508-0.56727 0.16088-0.8382 0.33021-0.2921 0.17357-0.50377 0.37254-0.635 0.5969 0.11853-0.0635 0.21379-0.09947 0.28576-0.10794-0.1524 0.2286-0.22859 0.508-0.22859 0.8382 0 0.3175 0.0677 0.60323 0.20316 0.85723-0.0677 0.0085-0.15025-0.01268-0.24762-0.06348 0.16087 0.18627 0.40426 0.33232 0.73023 0.43815 0.29633 0.09737 0.60538 0.14604 0.92711 0.14604 0.0847 0 0.16723-0.0021 0.24766-0.0064-0.0593-0.05927-0.0826-0.11643-0.0699-0.17146 0.16087-0.0889 0.2625-0.14815 0.30483-0.17778 0.0593-0.0381 0.13333-0.09947 0.22223-0.18414 0.0466-0.04233 0.10161-0.06352 0.16511-0.06352 0.072 0 0.14395 0.02964 0.21592 0.08891-0.0381-0.1397-0.0826-0.23708-0.13337-0.29211-0.0466-0.05503-0.12488-0.09101-0.23494-0.10794-0.0381-0.04233-0.0529-0.1122-0.0445-0.20956-0.10583 0.09737-0.15875 0.18417-0.15875 0.26037 0 0.01693 4e-3 0.03175 0.0127 0.04445l-0.22863 0.19685c-0.11006 0.0762-0.2159 0.1143-0.3175 0.1143-0.1651 0-0.29208-0.01482-0.38098-0.04445-0.1397-0.04657-0.24766-0.13758-0.32386-0.27304-0.0762-0.1397-0.11429-0.32385-0.11429-0.55245 0-0.2159 0.0381-0.41911 0.11429-0.60961 0.0339-0.0762 0.0995-0.15027 0.19685-0.22224 0.0974-0.0762 0.19263-0.12491 0.28576-0.14608 0.0804-0.0127 0.15242-0.01903 0.21592-0.01903 0.11853 0 0.27936 0.04655 0.48256 0.13968 0.17345 0.10673 0.27169 0.2346 0.29533 0.38339-0.0148 0.0012-0.0285 0.0025-0.0406 4e-3 0.0145 0.0038 0.0288 0.0078 0.0431 0.01213 4e-3 0.03504 5e-3 0.07116 6.2e-4 0.10848 0.0199-0.02985 0.037-0.06027 0.0517-0.09127 0.17444 0.06142 0.33525 0.1637 0.48234 0.30719-0.1651-0.0042-0.30266 0.0085-0.41273 0.0381 0.0677 0.02963 0.14392 0.07622 0.22859 0.13972 0.0889 0.0635 0.15239 0.12275 0.19049 0.17778v0.58419c-4e-3 0.08467-0.0656 0.19475-0.18413 0.33021-0.0466 0.05503-0.10586 0.11432-0.17782 0.17782 0.1778-0.02963 0.31327-0.06352 0.40641-0.10162l0.14603 0.09526c0.0974 0.0085 0.20112 0.01267 0.31119 0.01267 0.33866 0 0.58418-0.0296 0.73658-0.08887-0.22437-0.01693-0.33657-0.09737-0.33657-0.2413v-0.85092l0.34293 0.29847c-0.0762 0.0635-0.12279 0.17354-0.13972 0.33017 0.0974-0.09313 0.1905-0.13968 0.2794-0.13968 0.0254 0 0.0445 0.0042 0.0572 0.01271l0.27305 0.29208c0.0169 0.02117 0.0254 0.04869 0.0254 0.08255 0 0.08467-0.0487 0.18205-0.14604 0.29211 0.055 0 0.11007-0.0127 0.1651-0.0381 0.0254-0.01693 0.0508-0.03176 0.0762-0.04445l0.16511 0.08255c0.41486 0 0.72179-0.0127 0.92076-0.0381-0.32174-0.11007-0.54402-0.22651-0.66679-0.34928l-1.0985-1.0858 0.25402-0.23495c0.18626 0.05503 0.31749 0.13335 0.39369 0.23495-0.0339-0.10583-0.055-0.16933-0.0635-0.19049-0.0339-0.05927-0.0931-0.11855-0.17778-0.17782 0.0466 0 0.0825 0.0042 0.10794 0.01271 0.0127 0.0085 0.0529 0.03174 0.12065 0.06984 4e-3 -0.04657-2e-3 -0.08466-0.019-0.1143-0.0127-0.03387-0.0275-0.06984-0.0444-0.10794l0.48256-0.48261c0.0677-0.06773 0.18206-0.13759 0.34293-0.20956l0.34288-0.13968c-0.63076 0.11853-1.0096 0.21375-1.1366 0.28572-0.0889-0.11007-0.21801-0.1905-0.38734-0.2413 0.0423 0.04233 0.0846 0.08467 0.12697 0.12701 0.0593 0.06773 0.0889 0.12702 0.0889 0.17782 0 0.0381-0.017 0.07407-0.0508 0.10794l-0.64132 0.60326v-0.47625c0-0.09737 0.019-0.17356 0.0571-0.22859 0.0423-0.05927 0.11852-0.11855 0.22859-0.17782-0.15664 0-0.30056 0.02752-0.4318 0.08255-0.055 0.02117-0.10582 0.04656-0.15239 0.0762l-0.36831-0.2032c0.0635-0.12277 0.0995-0.21378 0.10797-0.27304-0.3302-0.05927-0.56726-0.08891-0.71119-0.08891zm-10.254 0.0064c-0.381 4e-3 -0.70246 0.06746-0.9644 0.19049 0.0889-0.0127 0.19053-0.01903 0.30483-0.01903 0.4572 0 0.68577 0.07619 0.68577 0.22859v0.90804c-0.21167-0.0127-0.37887-0.0042-0.50164 0.02542 0.1651 0.0254 0.33018 0.11429 0.49528 0.26669-0.1397 0.0127-0.25186 0.02115-0.33653 0.02539 0.2286 0.0762 0.34289 0.15239 0.34289 0.22859v0.80003c0 0.0762-0.0465 0.15243-0.13968 0.22863-0.0889 0.07197-0.19686 0.12276-0.32386 0.15239 0.61807 0 1.0054-0.09101 1.1621-0.27304l0.0952 0.1143 0.6731 0.10158c0.35136-0.16087 0.62444-0.34926 0.81917-0.56516-0.0381 0-0.0783-0.0021-0.12065-0.0063-0.0593-0.0127-0.0889-0.04022-0.0889-0.08255v-0.36195c0-0.04233 0.0254-0.06773 0.0762-0.0762 0.0508-0.0085 0.0995-0.01696 0.14603-0.02542-0.12276-0.11007-0.27514-0.21165-0.45718-0.30479-0.18203-0.09737-0.3556-0.1651-0.5207-0.2032l0.74294-0.34289 0.0127-0.45086c-0.0212-0.0508-0.055-0.09947-0.10158-0.14604-0.0109-0.01092-0.0545-0.05213-0.10918-0.10371 0.48335 0.04744 0.89725 0.18127 1.2412 0.40215v0.5969c-0.1778-0.0085-0.34288 2e-5 -0.49528 0.02542 0.18203 0.05503 0.34499 0.13968 0.48892 0.25398-0.11006-0.0042-0.22647 0.01271-0.34924 0.05081 0.14393 0.0508 0.26034 0.12487 0.34924 0.22223v0.64771c0 0.12277-0.055 0.2159-0.16506 0.2794-0.072 0.04233-0.15453 0.06985-0.24766 0.08255 0.2794 0.0127 0.68154 0.04022 1.2065 0.08255 0.0593 0.0042 0.0889 0.03596 0.0889 0.09523 0 0.04233-0.0148 0.0868-0.0445 0.13336 0.56259-0.03674 1.0291-0.13589 1.3998-0.29719-0.0224 0.01872-0.0464 0.03735-0.0729 0.05589-0.055 0.03387-0.11644 0.06776-0.18417 0.10162 0.13546 0.0085 0.26036-0.0085 0.37466-0.05081l0.13969 0.13968c0.3429-0.02117 0.61597-0.06139 0.81917-0.12065-0.14393-0.07197-0.21592-0.1524-0.21592-0.2413 0-0.02117 4e-3 -0.04019 0.0127-0.05713 0.0381-0.12277 0.0762-0.24342 0.11429-0.36195 0.072-0.18627 0.15665-0.28573 0.25402-0.29843 0.0847-0.0085 0.15661 0.09312 0.21588 0.30479 0.0423 0.1524 0.0635 0.27726 0.0635 0.37463 0 0.0635-0.0487 0.1757-0.14608 0.33657l0.22859-0.05717 0.15244 0.12065c0.4318-0.0381 0.73235-0.07832 0.90168-0.12065-0.24553-0.0635-0.38733-0.16296-0.42543-0.29843l-0.53978-1.905c-8e-3 -0.02963-0.0127-0.05503-0.0127-0.0762 0-0.1143 0.0995-0.20531 0.29847-0.27304-0.0508-0.0085-0.10159-0.01271-0.15239-0.01271-0.20744 0-0.4149 0.05079-0.62233 0.15239l-0.50164-0.17146 0.0953-0.21588c-0.18627-0.04233-0.41488-0.06349-0.68581-0.06349-0.3683 0-0.66886 0.03385-0.90169 0.10158 0.2921 0.0254 0.59478 0.08465 0.90804 0.17778 0.24977 0.0762 0.45719 0.15455 0.62229 0.23499l-0.22859 0.84452c-0.1651-0.0042-0.35137 0.0043-0.5588 0.02542 0.1778 0.05927 0.345 0.14391 0.50163 0.25398-0.12276-0.0085-0.2582 2e-5 -0.40637 0.02542 0.127 0.0508 0.24341 0.11429 0.34925 0.19049l-0.17108 0.49892c-0.0587 0.01391-0.11987 0.02754-0.18433 0.04081-0.31327 0.05927-0.59267 0.08891-0.8382 0.08891-0.4318 0-0.64772-0.09526-0.64772-0.28576v-0.45082c0.0635-0.05927 0.19265-0.1355 0.38738-0.22863-0.0931-0.03387-0.22228-0.04869-0.38738-0.04445 0.0635-0.06773 0.2138-0.15025 0.45087-0.24762-0.22013-0.04233-0.37043-0.06352-0.45087-0.06352v-0.28576c0-0.1397 0.0339-0.24553 0.10163-0.3175 0.0339-0.03387 0.0931-0.06984 0.17778-0.10794-0.1905 0.0042-0.36828 0.05927-0.53338 0.16511l-0.38103-0.25402c0.0423-0.07197 0.0868-0.16086 0.13337-0.26669-0.2921-0.04233-0.56093-0.06349-0.80646-0.06349-0.25974 0-0.50848 0.02197-0.74636 0.06569 0.0136-0.03244 0.0564-0.0607 0.12864-0.08476-0.13547-0.0085-0.33656 2e-5 -0.60326 0.02542-0.2667 0.02117-0.48049 0.04865-0.64135 0.08251l-6e-3 -0.18414c-0.22013-0.05503-0.44237-0.08255-0.66674-0.08255-0.0259-2.64e-4 -0.0516-2.64e-4 -0.077 0zm-9.328 0.48261c0.22437 0 0.35985 0.02752 0.40641 0.08255 0 0.04657 2e-3 0.14603 6e-3 0.29843 4e-3 0.13547 6e-3 0.24342 6e-3 0.32386 0 0.42757-0.0445 0.76626-0.13336 1.016-0.11652 0.33708-0.32532 0.55933-0.62593 0.66732-0.0397-0.03624-0.0599-0.07871-0.0599-0.12759v-2.2225c0.14817-0.0254 0.28152-0.0381 0.40005-0.0381zm10.582 0.06151c0.0495-0.0019 0.091 0.01575 0.12429 0.05279 0.0423 0.0381 0.0635 0.08677 0.0635 0.14604 0 0.11007-0.0614 0.1863-0.18417 0.22863l-0.48261 0.18414v-0.54609l0.45722-0.06352c7e-3 -0.0011 0.0147-0.0017 0.0217-2e-3zm-13.297 0.9799 0.0952 0.3556h-0.18414zm18.655 0 0.0953 0.3556h-0.18414zm-5.7686 0.07352c0.1315-0.0014 0.26947 0.03123 0.41393 0.0979 0.16933 0.0762 0.25401 0.15455 0.25401 0.23499v0.40637c0 0.13547-0.0868 0.2032-0.26033 0.2032-0.0889 0-0.24132-0.0254-0.45722-0.0762l-6e-3 -0.86359c0.0185-0.0016 0.0372-0.0025 0.056-0.0027z" fill="#fff" stroke-width=".019844"/>
</g>
</g>
</svg>
