<svg xmlns="http://www.w3.org/2000/svg" viewBox="0 0 31.413 3.34" xmlns:v="https://hadesblack.github.io"><path d="M4.07 0c-.445.076-.78.197-1 .362C2.9.286 2.773.24 2.68.23c.072.055.123.1.152.133.042.064.063.142.063.235v.756h-.52V.7c0-.14.06-.282.184-.425-.097.013-.184.042-.26.09-.017.013-.07.06-.16.14L1.606.286C1.598.27 1.626.19 1.69.05L1.244.038c-.45 0-.866.042-1.25.127a6.08 6.08 0 0 1 .87.127c.317.068.57.133.756.21V1.2a2.8 2.8 0 0 0-.533 0 1.17 1.17 0 0 1 .533.337l-.387.02c.152.063.28.155.387.273v.832c0 .123-.083.26-.248.413l.292-.102.083.102.78-.05c-.085-.123-.127-.24-.127-.35v-.895h.495v.94c0 .09-.063.207-.19.356.1-.03.2-.07.273-.12l.09.12.8-.076c-.14-.157-.2-.267-.2-.33v-1.9c0-.195.03-.347.09-.457s.17-.218.324-.31zm7.442 0c-.444.02-.783.078-1.016.17-.182.072-.34.19-.476.356.055-.02.106-.032.152-.032.06 0 .09.025.09.076v.718c-.144-.008-.267.002-.368.032.135.068.258.174.368.317-.093-.013-.193-.004-.298.025a1.16 1.16 0 0 1 .298.26v.75c0 .042-.027.087-.083.133s-.1.064-.146.064l.965.152c.216.038.324.095.324.17 0 .038-.02.087-.057.146.516-.107.995-.353 1.437-.738a3.38 3.38 0 0 0 .547.275c.402.16.77.248 1.105.26-.03-.042-.044-.076-.044-.102 0-.06.097-.09.292-.09l.24.006h.292a.045.045 0 0 1 .013.032c0 .042-.042.09-.127.14.288-.034.42-.186.4-.457v-.35c-.008-.144.02-.216.082-.216.034 0 .08.013.14.038a1.39 1.39 0 0 0-.572-.597c-.127-.072-.34-.15-.635-.235.085.072.123.123.114.152l-.42-.17c-.12-.038-.178-.135-.178-.292 0-.106.027-.237.082-.394.05-.03.16-.044.33-.044a4.94 4.94 0 0 1 .565.038c.14.013.307.12.502.318-.097-.267-.292-.468-.584-.603-.246-.11-.538-.165-.876-.165-.39 0-.705.06-.946.178a.63.63 0 0 1 .184.076c.025.02.044.053.044.108v.565c0 .09-.03.133-.09.133-.03 0-.076-.01-.14-.032.06.13.248.248.565.35l.514.178c.16.072.31.165.444.28.05.047.076.138.076.273l-.006.12a.22.22 0 0 1-.006.051c0 .157-.235.235-.705.235-.393 0-.772-.04-1.136-.122l.22-.214-.436.16-.006-.002.003.003c-.475.163-.84.245-1.092.245-.203 0-.305-.055-.305-.165l.006-.63c.19-.085.413-.15.667-.197.19-.038.48-.074.87-.108l-.724-.17a6.25 6.25 0 0 0-.806-.057l-.006-.756h1.15c.22 0 .428.12.622.362a2.14 2.14 0 0 0-.222-.559c-.08-.127-.184-.246-.324-.356l.02.14c0 .055-.023.083-.07.083h-1.092c-.03 0-.044-.017-.044-.05s.025-.083.076-.133.133-.095.235-.133zM7.157.006c-.453 0-.792.04-1.016.12.6.03.995.12 1.156.273l-.006.864a2.67 2.67 0 0 0-.521 0c.09.034.19.093.305.178s.186.152.216.203l-.42.02a1.36 1.36 0 0 1 .432.267v.806c0 .085-.072.175-.215.268-.163-.062-.26-.147-.3-.256L6.26.845C6.25.815 6.246.79 6.246.768c0-.114.1-.205.298-.273a.922.922 0 0 0-.152-.013c-.207 0-.415.05-.622.152L5.27.464l.095-.216a3.15 3.15 0 0 0-.686-.063c-.368 0-.67.034-.902.102.292.025.595.085.908.178.25.076.457.155.622.235l-.23.845c-.165-.004-.35.004-.56.025a1.93 1.93 0 0 1 .502.254c-.123-.008-.258 0-.406.025.127.05.243.114.35.19l-.23.667c-.034.093-.114.184-.24.273L4.3 3.08c.135.01.26-.01.375-.05l.14.14c.343-.02.616-.06.82-.12-.144-.072-.216-.152-.216-.24 0-.02.004-.04.013-.057l.114-.362c.072-.186.157-.286.254-.298.085-.01.157.093.216.305.042.152.064.277.064.375 0 .063-.05.176-.146.337l.23-.057.152.12.902-.12-.027-.008.157-.037.165.09.514-.038.375-.044c-.096-.024-.167-.056-.213-.095.402-.001.67-.022.804-.063.254-.08.44-.262.56-.546.14-.334.216-.853.23-1.556 0-.047.095-.074.286-.083C9.55.42 8.977.298 8.35.298l-.23.006V.09C7.85.034 7.53.006 7.157.006zM28.11.032a1.7 1.7 0 0 0-.908.254c.622-.004 1.05.074 1.283.235v.775l-.472-.008c.03-.077.046-.157.046-.24a.47.47 0 0 0-.051-.222l.114-.083c.025-.017.076-.04.152-.07l-.19-.063a.79.79 0 0 0-.165.006c-.233-.102-.413-.165-.54-.19-.152-.038-.34-.053-.565-.044 0-.106.06-.197.178-.273-.288.05-.567.16-.838.33-.292.174-.504.373-.635.597.12-.063.214-.1.286-.108-.152.23-.23.508-.23.838 0 .318.068.603.203.857-.068.01-.15-.013-.248-.063.16.186.404.332.73.438a2.95 2.95 0 0 0 .927.146l.248-.006c-.06-.06-.083-.116-.07-.17l.305-.178a1.6 1.6 0 0 0 .222-.184c.047-.042.102-.064.165-.064a.34.34 0 0 1 .216.089c-.038-.14-.083-.237-.133-.292s-.125-.09-.235-.108c-.038-.042-.053-.112-.044-.21-.106.097-.16.184-.16.26 0 .017.004.032.013.044l-.23.197c-.1.076-.216.114-.317.114-.165 0-.292-.015-.38-.044a.57.57 0 0 1-.324-.273c-.076-.135-.114-.324-.114-.552 0-.216.038-.42.114-.61.034-.076.1-.15.197-.222s.193-.125.286-.146a1.4 1.4 0 0 1 .216-.019c.12 0 .28.047.483.14.173.107.272.235.295.383l-.04.004.043.012a.47.47 0 0 1 .001.108.71.71 0 0 0 .052-.091c.174.06.335.164.482.307-.165-.004-.303.008-.413.038.068.03.144.076.23.14s.152.123.19.178v.584c-.004.085-.066.195-.184.33a1.76 1.76 0 0 1-.178.178c.178-.03.313-.064.406-.102l.146.095.31.013c.34 0 .584-.03.737-.09-.224-.017-.337-.097-.337-.24v-.85l.343.298c-.076.063-.123.174-.14.33.097-.093.19-.14.28-.14.025 0 .044.004.057.013l.273.292c.017.02.025.05.025.083 0 .085-.05.182-.146.292a.39.39 0 0 0 .165-.038.71.71 0 0 1 .076-.044l.165.083.92-.038c-.322-.11-.544-.227-.667-.35L29.64 1.6l.254-.235c.186.055.317.133.394.235l-.064-.19c-.034-.06-.093-.12-.178-.178.047 0 .082.004.108.013.013.008.053.032.12.07.004-.047-.002-.085-.02-.114l-.044-.108.483-.483c.068-.068.182-.138.343-.21l.343-.14c-.63.12-1 .214-1.137.286-.09-.11-.218-.19-.387-.24l.127.127c.06.068.09.127.09.178 0 .038-.017.074-.05.108l-.64.603V.845c0-.097.02-.174.057-.23s.12-.12.23-.178c-.157 0-.3.028-.432.083-.055.02-.106.047-.152.076l-.368-.203c.064-.123.1-.214.108-.273-.33-.06-.567-.09-.71-.09zM17.857.038c-.38.004-.702.067-.964.19.09-.013.19-.02.305-.02.457 0 .686.076.686.23v.908c-.212-.013-.38-.004-.502.025.165.025.33.114.495.267l-.337.025c.23.076.343.152.343.23v.8c0 .076-.047.152-.14.23s-.197.123-.324.152c.618 0 1.005-.09 1.162-.273l.095.114.673.102c.35-.16.624-.35.82-.565-.038 0-.078-.002-.12-.006-.06-.013-.09-.04-.09-.083V2c0-.042.025-.068.076-.076l.146-.025c-.123-.11-.275-.212-.457-.305s-.356-.165-.52-.203l.743-.343.013-.45c-.02-.05-.055-.1-.102-.146l-.11-.104c.483.047.897.18 1.24.402v.597c-.178-.008-.343 0-.495.025.182.055.345.14.49.254-.1-.004-.226.013-.35.05a.84.84 0 0 1 .349.222v.648c0 .123-.055.216-.165.28a.66.66 0 0 1-.248.083l1.206.083c.06.004.09.036.09.095a.25.25 0 0 1-.044.133c.563-.037 1.03-.136 1.4-.297l-.073.056-.184.102c.135.01.26-.01.375-.05l.14.14c.343-.02.616-.06.82-.12-.144-.072-.216-.152-.216-.24 0-.02.004-.04.013-.057l.114-.362c.072-.186.157-.286.254-.298.085-.01.157.093.216.305.042.152.064.277.064.375 0 .063-.05.176-.146.337l.23-.057.152.12.902-.12c-.246-.063-.387-.163-.425-.298l-.54-1.905C24.906.815 24.9.79 24.9.768c0-.114.1-.205.298-.273a.922.922 0 0 0-.152-.013c-.207 0-.415.05-.622.152l-.502-.17.095-.216a3.15 3.15 0 0 0-.686-.063c-.368 0-.67.034-.902.102.292.025.595.085.908.178.25.076.457.155.622.235l-.23.845c-.165-.004-.35.004-.56.025a1.93 1.93 0 0 1 .502.254c-.123-.008-.258 0-.406.025.127.05.243.114.35.19l-.17.5-.184.04c-.313.06-.593.09-.838.09-.432 0-.648-.095-.648-.286v-.45c.064-.06.193-.135.387-.23a1.09 1.09 0 0 0-.387-.044c.064-.068.214-.15.45-.248l-.45-.064V1.06c0-.14.034-.246.102-.317a.62.62 0 0 1 .178-.108c-.19.004-.368.06-.533.165l-.38-.254a2.6 2.6 0 0 0 .133-.267c-.292-.042-.56-.063-.806-.063a4.12 4.12 0 0 0-.746.066c.014-.032.056-.06.13-.085-.135-.01-.337 0-.603.025l-.64.083L18.6.12a2.74 2.74 0 0 0-.667-.083 3.8 3.8 0 0 0-.077 0zM8.53.52c.224 0 .36.028.406.083l.006.298.006.324c0 .428-.044.766-.133 1.016-.117.337-.325.56-.626.667-.04-.036-.06-.08-.06-.128V.56a2.39 2.39 0 0 1 .4-.038zM19.11.582c.05-.002.1.016.124.053.042.038.064.087.064.146 0 .11-.06.186-.184.23l-.483.184V.648l.457-.064.022-.002zm-13.297.98l.095.356h-.184zm18.655 0l.095.356h-.184zm-5.77.073a.96.96 0 0 1 .414.098c.17.076.254.155.254.235v.406c0 .135-.087.203-.26.203a2.34 2.34 0 0 1-.457-.076l-.006-.864.056-.003z" fill="#fff"/></svg>