<?xml version="1.0" encoding="UTF-8"?>
<svg version="1.1" viewBox="0 0 128 128" xmlns="http://www.w3.org/2000/svg" xmlns:cc="http://creativecommons.org/ns#" xmlns:dc="http://purl.org/dc/elements/1.1/" xmlns:rdf="http://www.w3.org/1999/02/22-rdf-syntax-ns#">
<title>HADES BLACK Social Button</title>
<metadata>
<rdf:RDF>
<cc:Work rdf:about="">
<dc:format>image/svg+xml</dc:format>
<dc:type rdf:resource="http://purl.org/dc/dcmitype/StillImage"/>
<dc:title>HADES BLACK Social Button</dc:title>
</cc:Work>
</rdf:RDF>
</metadata>
<path d="m48.43 107.7c-0.9855-0.07-1.7499-0.2636-2.4733-0.6255-1.8156-0.9084-2.955-2.7363-3.2758-5.2554-0.061-0.4753-0.084-0.8868-0.084-1.4922 0-0.7529 0.039-1.2975 0.1394-1.9141 0.2684-1.6519 1.0025-3.1228 2.0142-4.0359 0.3736-0.3371 0.7573-0.5963 1.231-0.8312 0.6665-0.3306 1.3425-0.5165 2.1987-0.6045 0.2543-0.026 1.1003-0.026 1.3672 1e-4 1.1909 0.1169 2.1891 0.4838 3.0482 1.1204 0.7238 0.5365 1.2622 1.1967 1.6943 2.0778 0.577 1.1765 0.8579 2.5386 0.8588 4.164 0 2.2544-0.5639 4.1139-1.6381 5.3899-0.9711 1.1534-2.2404 1.8009-3.8772 1.9779-0.2158 0.023-1.0122 0.042-1.2032 0.029zm1.1061-1.6609c1.0686-0.161 1.8967-0.6581 2.5456-1.5283 0.6022-0.8074 0.9427-1.843 1.0701-3.2542 0.028-0.3084 0.028-1.5512-3e-4 -1.8672-0.1251-1.4167-0.4936-2.5304-1.1087-3.3503-0.1563-0.2084-0.4546-0.5219-0.6362-0.6685-0.5235-0.4229-1.183-0.6974-1.9063-0.7937-0.2619-0.035-0.7352-0.047-1.0063-0.025-0.8659 0.069-1.5209 0.3095-2.0952 0.7685-0.5823 0.4655-1.0156 1.0689-1.3172 1.8345-0.2624 0.6661-0.4181 1.3897-0.4976 2.3125-0.026 0.3056-0.027 1.3901 0 1.7032 0.086 1.0275 0.2625 1.7844 0.5833 2.4983 0.4283 0.9532 1.1831 1.7255 2.0445 2.0919 0.3918 0.1667 0.8701 0.2811 1.3125 0.314 0.2143 0.016 0.8089 0 1.0123-0.036zm-13.598 1.6133c-0.6558-0.032-1.1941-0.097-1.6637-0.2023-0.6279-0.1403-1.5837-0.4797-2.262-0.8032l-0.1914-0.091v-2.3615h0.065c0.057 0 0.078 0.011 0.1662 0.09 0.6659 0.5891 1.3179 0.9932 2.0973 1.2996 0.5848 0.2299 1.0602 0.3522 1.6562 0.4262 0.2151 0.027 0.9341 0.026 1.1797 0 0.8623-0.095 1.4548-0.3404 1.9069-0.7914 0.4278-0.4266 0.619-0.9102 0.6183-1.5634 0-0.5977-0.1406-1.0385-0.4494-1.4162-0.2215-0.2708-0.6153-0.5204-1.068-0.6767-0.2141-0.074-0.8479-0.2465-1.3203-0.3595-1.6797-0.4017-2.0145-0.4978-2.539-0.7293-0.4928-0.2174-0.8709-0.4745-1.2243-0.8322-0.4427-0.4483-0.7612-1.0503-0.8924-1.6874-0.1164-0.5648-0.116-1.2618 0-1.7891 0.1946-0.8782 0.7032-1.632 1.5174-2.2491 0.8281-0.6276 1.9225-0.9542 3.2-0.9549 1.4133 0 2.7525 0.2737 3.9804 0.8159l0.2149 0.095v2.2609h-0.07c-0.065 0-0.081-0.01-0.2242-0.1289-0.3606-0.3013-0.7498-0.5491-1.2449-0.7929-0.7022-0.3456-1.2522-0.5111-1.9844-0.597-0.2584-0.03-0.9514-0.025-1.1953 0.01-0.4269 0.059-0.7632 0.1592-1.0881 0.3229-0.5752 0.2898-0.9583 0.7016-1.1303 1.2152-0.073 0.2187-0.097 0.3846-0.096 0.683 0 0.5191 0.1172 0.9326 0.3581 1.2735 0.098 0.1383 0.3123 0.3465 0.4809 0.4666 0.1699 0.1209 0.5477 0.3074 0.7782 0.3841 0.2051 0.068 0.7152 0.2 1.6661 0.4303 0.8132 0.197 1.3459 0.3404 1.6718 0.4502 1.5431 0.5194 2.3712 1.4428 2.5878 2.886 0.033 0.2216 0.046 0.7864 0.023 1.0164-0.079 0.7831-0.378 1.5465-0.8499 2.1711-0.1174 0.1554-0.4739 0.5141-0.651 0.6549-0.3692 0.2938-0.9239 0.6083-1.3474 0.764-0.4586 0.1686-0.9637 0.2658-1.5979 0.3074-0.2114 0.014-0.8396 0.017-1.0781 0.01zm26.297-0.01c-1.9862-0.1364-3.5889-1.0243-4.5943-2.5452-0.6927-1.048-1.1105-2.4086-1.2091-3.9375-0.082-1.2781 0.023-2.5235 0.2966-3.5234 0.1537-0.5605 0.3989-1.1549 0.6832-1.6563 0.1095-0.1932 0.3774-0.5914 0.5216-0.7755 0.8452-1.0787 1.9955-1.7992 3.3358-2.0894 0.9563-0.207 2.0526-0.2102 3.099-0.01 0.8926 0.1716 1.5443 0.4028 2.4766 0.8784l0.3281 0.1674v2.2891h-0.076c-0.074 0-0.082 0-0.2228-0.1299-0.6324-0.561-1.056-0.8595-1.624-1.1441-0.6077-0.3045-1.1999-0.4828-1.8504-0.5571-0.2588-0.03-0.989-0.025-1.2001 0.01-0.5401 0.083-1.0307 0.2501-1.4599 0.4963-0.6004 0.3445-1.1272 0.8667-1.4935 1.4808-0.6544 1.0967-0.9645 2.6352-0.8697 4.3151 0.062 1.0935 0.2552 1.8847 0.6633 2.711 0.2545 0.5152 0.5252 0.9012 0.8825 1.2586 0.3073 0.3075 0.6008 0.522 0.9723 0.7109 0.4122 0.2096 0.8137 0.3354 1.3019 0.408 0.2291 0.034 0.9199 0.039 1.1875 0.01 1.1648-0.1335 2.2109-0.5919 3.1686-1.3885 0.1156-0.096 0.2701-0.2315 0.3433-0.3008 0.1269-0.1201 0.1363-0.1259 0.2052-0.1259h0.072v2.2525l-0.3125 0.1483c-0.8324 0.3951-0.9575 0.4489-1.3872 0.5971-0.5894 0.2032-1.2152 0.36-1.6597 0.4157-0.411 0.052-1.1278 0.069-1.5781 0.038zm6.1641-0.9592v-0.7266h1.8125v-11.297h-1.8125v-1.4531h5.5156v1.4531h-1.8125v11.297h1.8125v1.4531h-5.5156zm6.554 0.012c0.1317-0.3932 1.2071-3.586 2.3896-7.095 1.1826-3.509 2.1501-6.383 2.1501-6.3868 0 0 0.5251-0.01 1.1668 0h1.1667l2.3804 7.0625c1.3092 3.8843 2.3845 7.0783 2.3896 7.0977l0.01 0.035h-1.9908l-0.5066-1.5625c-0.2787-0.8594-0.5665-1.7471-0.6397-1.9726l-0.133-0.4102h-5.4355l-0.133 0.4102c-0.073 0.2255-0.361 1.1132-0.6396 1.9726l-0.5067 1.5625h-1.9071zm7.8457-4.8907c-0.072-0.2251-2.1806-6.6494-2.1842-6.653 0 0-0.4929 1.4903-1.0891 3.3181-0.5963 1.8277-1.0874 3.3319-1.0913 3.3427-0.01 0.015 0.4374 0.019 2.183 0.019 2.0788 0 2.1898 0 2.1816-0.027zm5.1472-1.4961v-7.1016h1.8906v12.531h6.3437v1.6718h-8.2343zm-24.941-16.024c-6.2472-0.1945-12.247-2.1901-17.356-5.7724-3.0342-2.1276-5.7241-4.8175-7.8517-7.8517-2.126-3.0318-3.6952-6.3756-4.6707-9.9531-1.0226-3.7499-1.3489-7.7393-0.9534-11.656 0.5817-5.7624 2.7189-11.249 6.1863-15.883 1.8697-2.4985 4.0159-4.6446 6.516-6.5159 3.2126-2.4046 6.8351-4.1718 10.727-5.233 3.7492-1.0224 7.7401-1.3488 11.656-0.9534 5.4381 0.549 10.626 2.4799 15.109 5.6241 2.0821 1.46 4.0301 3.2092 5.7163 5.1329 2.3837 2.7197 4.3078 5.8542 5.6406 9.1891 0.6702 1.6769 1.2077 3.4422 1.5789 5.1859 1.0617 4.9866 0.9187 10.218-0.4132 15.109-0.8155 2.9956-2.0711 5.8751-3.6994 8.4844-2.6095 4.1815-6.1104 7.6824-10.292 10.292-2.3559 1.4702-4.9974 2.6648-7.6641 3.466-3.2886 0.9881-6.7721 1.4426-10.23 1.3349zm2.3943-3.1392c0.6586-0.036 1.2161-0.081 1.7812-0.142 7.6168-0.8288 14.582-4.6694 19.401-10.697 5.1466-6.4377 7.2752-14.718 5.8878-22.904-1.6145-9.5255-8.0219-17.695-16.926-21.58-3.0027-1.3102-6.22-2.0972-9.5038-2.3249-0.7691-0.053-1.064-0.062-2.0312-0.062-0.9673 0-1.2622 0.01-2.0313 0.062-4.4595 0.3092-8.7559 1.6416-12.609 3.9104-3.2838 1.9335-6.2089 4.5551-8.4936 7.6123-3.3303 4.4564-5.278 9.6926-5.6695 15.242-0.052 0.7381-0.063 1.0857-0.063 2.0391 0 0.9533 0.011 1.3009 0.063 2.039 0.1974 2.798 0.78 5.4811 1.7576 8.0946 2.7261 7.2881 8.3601 13.225 15.511 16.345 2.6504 1.1565 5.485 1.91 8.3632 2.2232 0.766 0.083 1.2666 0.1184 2.3359 0.1634 0.2565 0.011 1.9331-0.01 2.2266-0.021zm4.0781-8.8588c-0.013-0.01-0.087-0.017-0.1641-0.022-0.1398-0.01-0.2243-0.019-0.5078-0.067-0.1776-0.03-0.4803-0.094-0.5781-0.1227-0.039-0.011-0.102-0.029-0.1406-0.04-0.039-0.01-0.098-0.028-0.1328-0.039-0.034-0.011-0.1047-0.032-0.1563-0.047-0.052-0.015-0.1004-0.033-0.1086-0.041-0.01-0.01-0.025-0.014-0.037-0.014s-0.044-0.01-0.071-0.021c-0.027-0.012-0.074-0.031-0.1039-0.041-0.2212-0.08-0.642-0.2783-0.9134-0.4302-0.078-0.043-0.1653-0.093-0.1946-0.1093-0.2513-0.1428-0.6003-0.4035-0.9258-0.6915-0.6615-0.5852-1.1602-1.2199-1.5653-1.9921-0.3523-0.6716-0.64-1.6387-0.691-2.3225 0-0.056-0.014-0.1797-0.023-0.2742-0.019-0.2207-0.019-0.549-2e-4 -0.7578 0.01-0.09 0.019-0.2133 0.023-0.2735 0.03-0.397 0.1356-0.8681 0.3235-1.4423 0.068-0.209 0.1221-0.3912 0.1194-0.405 0-0.023-0.035-0.046-0.1377-0.102-0.049-0.027-0.1817-0.1014-0.3046-0.171-0.052-0.029-0.1043-0.058-0.1172-0.065-0.013-0.01-0.037-0.02-0.055-0.031-0.017-0.011-0.088-0.051-0.1561-0.089-0.069-0.038-0.139-0.078-0.1563-0.089-0.017-0.01-0.042-0.024-0.054-0.03-0.012-0.01-0.1496-0.082-0.3047-0.1694-0.1551-0.087-0.2925-0.1632-0.3054-0.1696-0.013-0.01-0.037-0.02-0.055-0.03-0.017-0.01-0.088-0.05-0.1562-0.089-0.069-0.038-0.1368-0.077-0.1514-0.086-0.015-0.01-0.071-0.04-0.125-0.069s-0.1247-0.07-0.1568-0.09c-0.032-0.02-0.061-0.037-0.064-0.037 0 0-0.065-0.034-0.1378-0.076-0.073-0.042-0.1738-0.099-0.2249-0.1275-0.051-0.028-0.114-0.064-0.1398-0.08-0.026-0.016-0.061-0.035-0.078-0.043-0.017-0.01-0.077-0.04-0.1329-0.072-0.056-0.032-0.1367-0.077-0.1796-0.101-0.043-0.024-0.1063-0.059-0.1407-0.078-0.034-0.019-0.099-0.056-0.1446-0.08-0.045-0.024-0.11-0.062-0.1442-0.084-0.034-0.022-0.065-0.039-0.068-0.039-0.01 0-0.217-0.1179-0.2989-0.1668-0.017-0.01-0.059-0.033-0.094-0.051-0.034-0.018-0.084-0.046-0.1093-0.061-0.042-0.025-0.1535-0.088-0.2787-0.1573-0.024-0.014-0.056-0.032-0.07-0.04-0.014-0.01-0.093-0.053-0.1745-0.098-0.082-0.045-0.159-0.089-0.1719-0.097-0.049-0.03-0.6125-0.3436-0.6189-0.3436 0 0-0.033-0.017-0.065-0.037s-0.1004-0.06-0.152-0.088c-0.052-0.029-0.1148-0.064-0.1406-0.08-0.026-0.015-0.089-0.05-0.1406-0.078-0.052-0.028-0.12-0.067-0.1521-0.087-0.032-0.02-0.062-0.037-0.067-0.037 0 0-0.035-0.016-0.067-0.037-0.032-0.02-0.1005-0.059-0.152-0.087-0.052-0.028-0.1184-0.065-0.1485-0.082-0.087-0.051-0.5927-0.3342-0.8125-0.4553-0.047-0.026-0.107-0.06-0.1328-0.075-0.026-0.015-0.089-0.05-0.1406-0.078-0.052-0.028-0.1184-0.066-0.1485-0.084-0.03-0.019-0.065-0.039-0.078-0.045-0.013-0.01-0.044-0.023-0.07-0.039s-0.089-0.052-0.1406-0.081c-0.052-0.029-0.1149-0.065-0.1406-0.08-0.026-0.015-0.075-0.043-0.1094-0.061-0.034-0.018-0.098-0.053-0.1406-0.079-0.043-0.026-0.117-0.067-0.1645-0.092-0.097-0.051-0.073-0.055-0.2887 0.057-0.1572 0.082-0.3606 0.1761-0.3802 0.1761-0.01 0-0.031 0.01-0.046 0.014-0.025 0.013-0.073 0.032-0.2185 0.086-0.032 0.012-0.09 0.03-0.1289 0.041-0.039 0.011-0.098 0.028-0.1328 0.039-0.2755 0.087-0.7927 0.188-1.2422 0.2415-0.2506 0.03-0.4739 0.039-0.9297 0.039-0.5935 0-0.7157-0.01-1.1328-0.08-0.1871-0.032-0.6368-0.1343-0.709-0.1612-0.018-0.01-0.072-0.024-0.1191-0.037-0.1939-0.057-0.4561-0.1491-0.4758-0.1679-0.01-0.01-0.025-0.014-0.037-0.014s-0.048-0.011-0.079-0.025-0.075-0.032-0.096-0.041c-0.088-0.035-0.1433-0.061-0.3594-0.1674-0.6739-0.3317-1.1919-0.6985-1.7319-1.2267-0.8401-0.8216-1.4292-1.8313-1.792-3.0714-0.072-0.2449-0.094-0.3451-0.135-0.6094-0.03-0.1934-0.033-0.2779-0.034-1.0156 0-0.8721 0.01-0.9594 0.093-1.336 0.04-0.1706 0.176-0.6374 0.2169-0.7422 0.012-0.03 0.054-0.1425 0.094-0.25 0.448-1.2045 1.2134-2.2037 2.2813-2.9781 0.2268-0.1644 0.5032-0.3461 0.6484-0.4262 0.064-0.035 0.1278-0.071 0.1406-0.079 0.078-0.05 0.5374-0.2663 0.6329-0.2987 0.034-0.012 0.076-0.03 0.093-0.041s0.043-0.02 0.059-0.02c0.015 0 0.04-0.01 0.055-0.014 0.07-0.035 0.1479-0.064 0.173-0.064 0.015 0 0.034-0.01 0.042-0.014 0.01-0.01 0.096-0.036 0.1945-0.064 0.099-0.028 0.1973-0.056 0.2188-0.064 0.058-0.02 0.4094-0.098 0.5547-0.1227 0.5633-0.097 0.8064-0.1187 1.3594-0.1187 0.3622 0 0.6477 0.013 0.8359 0.038 0.2284 0.031 0.443 0.065 0.5018 0.08 0.031 0.01 0.071 0.015 0.088 0.015s0.066 0.01 0.1075 0.022c0.042 0.012 0.1147 0.03 0.162 0.04 0.047 0.01 0.114 0.027 0.1484 0.038 0.034 0.011 0.1012 0.032 0.1484 0.046 0.1257 0.037 0.2213 0.068 0.2657 0.086 0.021 0.01 0.071 0.028 0.1093 0.042 0.09 0.035 0.1323 0.051 0.1758 0.069 0.055 0.023 0.4076 0.1897 0.4336 0.2058 0.013 0.01 0.034 0.019 0.047 0.024 0.013 0 0.045 0.02 0.071 0.033 0.046 0.023 0.052 0.022 0.1406-0.028 0.051-0.028 0.1138-0.064 0.1396-0.08 0.026-0.016 0.057-0.033 0.07-0.039 0.013-0.01 0.048-0.026 0.078-0.045s0.097-0.057 0.1484-0.084c0.052-0.028 0.1289-0.071 0.1719-0.097 0.043-0.025 0.092-0.053 0.1094-0.062 0.017-0.01 0.052-0.028 0.078-0.044s0.089-0.052 0.1406-0.081c0.052-0.029 0.1149-0.064 0.1407-0.08 0.026-0.015 0.096-0.054 0.1562-0.085 0.06-0.032 0.1164-0.063 0.125-0.07 0.016-0.012 0.082-0.05 0.21-0.1194 0.039-0.021 0.094-0.052 0.1216-0.068 0.028-0.016 0.091-0.052 0.1407-0.078 0.05-0.027 0.1113-0.061 0.1371-0.076 0.026-0.015 0.089-0.051 0.1406-0.08 0.052-0.029 0.1149-0.064 0.1406-0.08 0.026-0.015 0.072-0.041 0.1016-0.058 0.03-0.017 0.079-0.044 0.1094-0.061 0.03-0.017 0.097-0.054 0.1484-0.083 0.052-0.029 0.1149-0.065 0.1406-0.081 0.026-0.016 0.058-0.033 0.07-0.039 0.013-0.01 0.048-0.026 0.078-0.044 0.03-0.019 0.1074-0.062 0.1718-0.097 0.064-0.035 0.2186-0.1206 0.3424-0.1903 0.1239-0.07 0.2275-0.1267 0.2302-0.1267 0 0 0.051-0.028 0.1071-0.062 0.056-0.034 0.105-0.062 0.1084-0.062 0 0 0.065-0.034 0.1365-0.075 0.072-0.041 0.1407-0.08 0.1536-0.086 0.013-0.01 0.044-0.024 0.07-0.04s0.089-0.052 0.1406-0.081c0.052-0.029 0.1149-0.064 0.1406-0.08 0.026-0.015 0.072-0.041 0.1016-0.058 0.03-0.017 0.079-0.044 0.1094-0.061 0.03-0.017 0.097-0.054 0.1484-0.083 0.052-0.029 0.1149-0.065 0.1406-0.081 0.026-0.016 0.057-0.033 0.068-0.039 0.012-0.01 0.081-0.044 0.1531-0.086 0.072-0.042 0.1349-0.076 0.1389-0.076 0 0 0.034-0.016 0.066-0.036s0.1146-0.067 0.1833-0.1047c0.069-0.037 0.1531-0.084 0.1875-0.1039 0.034-0.02 0.073-0.041 0.086-0.047 0.013-0.01 0.048-0.026 0.078-0.045s0.097-0.057 0.1484-0.084c0.052-0.028 0.1149-0.063 0.1406-0.078 0.026-0.015 0.089-0.051 0.1407-0.08 0.052-0.029 0.1183-0.066 0.1484-0.083 0.03-0.017 0.081-0.046 0.1142-0.064 0.033-0.018 0.071-0.04 0.086-0.049 0.015-0.01 0.1214-0.068 0.2374-0.1327 0.116-0.064 0.225-0.1253 0.2422-0.1356 0.017-0.01 0.059-0.033 0.094-0.051 0.034-0.018 0.098-0.053 0.1407-0.078 0.043-0.025 0.096-0.056 0.1171-0.068 0.043-0.024 0.1961-0.1089 0.2813-0.1568 0.03-0.017 0.1426-0.08 0.25-0.1405 0.3029-0.1701 0.3135-0.1761 0.429-0.2417 0.06-0.034 0.1154-0.072 0.1236-0.085 0.011-0.017-0.015-0.1115-0.088-0.3265-0.2181-0.6424-0.3261-1.1032-0.363-1.5495 0-0.053-0.015-0.178-0.024-0.2768-0.019-0.2289-0.02-0.4746 0-0.7204 0.01-0.1066 0.019-0.2359 0.023-0.2875 0.013-0.1623 0.067-0.5191 0.1027-0.6718 0.072-0.3082 0.1219-0.4918 0.1967-0.7188 0.4118-1.2507 1.1517-2.3066 2.202-3.1424 0.2899-0.2307 0.4363-0.3311 0.8516-0.584 0.013-0.01 0.073-0.04 0.1328-0.072 0.06-0.032 0.1445-0.077 0.1875-0.1 0.09-0.048 0.386-0.1813 0.5391-0.2421 0.039-0.015 0.091-0.037 0.1172-0.048 0.026-0.011 0.096-0.035 0.1562-0.054 0.06-0.019 0.134-0.044 0.1641-0.055 0.055-0.02 0.1649-0.052 0.2968-0.087 0.039-0.01 0.102-0.027 0.1407-0.038 0.2758-0.076 0.8042-0.168 1.0903-0.1893 0.08-0.01 0.1487-0.017 0.1533-0.024 0.011-0.018 0.9649-0.017 0.9837 0 0.01 0.01 0.08 0.018 0.1596 0.023 0.1417 0.01 0.2193 0.019 0.4881 0.066 0.2697 0.047 0.6213 0.1274 0.7155 0.1643 0.02 0.01 0.048 0.014 0.062 0.014 0.015 0 0.047 0.011 0.071 0.024s0.056 0.023 0.071 0.023c0.014 0 0.064 0.014 0.1115 0.032 0.047 0.018 0.1033 0.038 0.1248 0.046 0.054 0.018 0.2323 0.086 0.2891 0.1094 0.026 0.011 0.061 0.025 0.078 0.032 0.099 0.039 0.55 0.256 0.6172 0.297 0.013 0.01 0.094 0.054 0.1797 0.1023 0.8048 0.4532 1.5742 1.1422 2.127 1.9048 0.3993 0.5508 0.7211 1.1891 0.9454 1.875 0.1945 0.595 0.2827 1.347 0.248 2.1144-0.029 0.6507-0.032 0.6972-0.056 0.8778-0.031 0.2394-0.034 0.2587-0.087 0.4798-0.1625 0.6766-0.4798 1.4035-0.8853 2.028-0.6899 1.0627-1.731 1.9359-2.9562 2.4795-0.074 0.033-0.089 0.039-0.2031 0.083-0.039 0.015-0.084 0.033-0.1016 0.041-0.195 0.086-0.6401 0.2226-0.9765 0.3009-0.4561 0.1061-0.6612 0.126-1.2891 0.125-0.9342 0-1.8943-0.098-2.1763-0.2183-0.028-0.012-0.061-0.022-0.074-0.022-0.024 0-0.2469-0.084-0.2927-0.1095-0.015-0.01-0.036-0.015-0.048-0.015-0.011 0-0.057-0.017-0.1017-0.039-0.044-0.022-0.087-0.039-0.094-0.039-0.01 0-0.048-0.017-0.09-0.037s-0.1123-0.053-0.1552-0.072c-0.1536-0.068-0.471-0.2276-0.5999-0.3009-0.072-0.041-0.1333-0.075-0.1359-0.075 0 0-0.049-0.026-0.1033-0.059-0.054-0.032-0.1106-0.065-0.1255-0.074-0.1257-0.073-0.3106-0.1987-0.5761-0.3908-0.2932-0.212-0.3582-0.2482-0.3806-0.2119-0.01 0.01-0.028 0.024-0.052 0.037-0.023 0.012-0.099 0.053-0.1677 0.092-0.1995 0.1123-0.2685 0.1509-0.3476 0.1942-0.041 0.023-0.081 0.046-0.09 0.053-0.01 0.01-0.065 0.038-0.125 0.07s-0.1304 0.07-0.1562 0.085c-0.026 0.015-0.089 0.051-0.1406 0.08-0.2027 0.1124-0.2361 0.1311-0.2813 0.1578-0.026 0.015-0.071 0.041-0.1016 0.058-0.03 0.017-0.079 0.044-0.1093 0.061-0.03 0.017-0.097 0.054-0.1485 0.082-0.052 0.028-0.1008 0.057-0.1093 0.063-0.01 0.01-0.054 0.032-0.1016 0.058-0.047 0.026-0.1141 0.063-0.1484 0.082-0.034 0.019-0.1012 0.057-0.1485 0.082-0.047 0.025-0.093 0.052-0.1015 0.058-0.01 0.01-0.065 0.038-0.125 0.07s-0.1305 0.07-0.1563 0.085c-0.043 0.025-0.083 0.048-0.3047 0.1707-0.039 0.022-0.097 0.055-0.1286 0.075-0.032 0.02-0.062 0.037-0.067 0.037 0 0-0.035 0.016-0.067 0.037-0.032 0.02-0.1005 0.059-0.152 0.087-0.052 0.028-0.1149 0.063-0.1407 0.078-0.026 0.015-0.086 0.049-0.1328 0.075-0.047 0.026-0.1193 0.066-0.1601 0.089-0.041 0.023-0.1077 0.06-0.1485 0.082-0.041 0.023-0.081 0.046-0.09 0.053-0.01 0.01-0.065 0.038-0.125 0.07s-0.1375 0.075-0.1719 0.096c-0.034 0.021-0.084 0.049-0.1094 0.062-0.026 0.013-0.057 0.03-0.07 0.038-0.04 0.026-0.3011 0.1719-0.3072 0.1719 0 0-0.032 0.016-0.064 0.037-0.032 0.02-0.1005 0.059-0.152 0.087-0.052 0.028-0.1184 0.065-0.1485 0.082-0.03 0.018-0.09 0.052-0.1328 0.075-0.095 0.052-0.202 0.1113-0.3008 0.1667-0.2118 0.119-0.2902 0.1615-0.2978 0.1615 0 0-0.02 0.01-0.033 0.021-0.013 0.012-0.067 0.044-0.1184 0.071-0.052 0.027-0.1043 0.056-0.1172 0.064-0.05 0.031-0.3016 0.1713-0.3072 0.1713 0 0-0.032 0.017-0.064 0.037s-0.1004 0.059-0.152 0.087c-0.052 0.028-0.1184 0.065-0.1484 0.083s-0.09 0.052-0.1328 0.075c-0.1 0.054-0.2085 0.1148-0.293 0.1624-0.037 0.021-0.1684 0.094-0.293 0.1641-0.1246 0.07-0.2371 0.1334-0.25 0.1416-0.013 0.01-0.067 0.038-0.1211 0.066-0.064 0.034-0.098 0.061-0.098 0.079 0 0.015 0.048 0.1 0.1072 0.1878 0.2013 0.3002 0.4358 0.7553 0.6615 1.2843 0.1855 0.4345 0.2883 0.7451 0.3338 1.0085 0.1226 0.7092 0.1323 1.9188 0.021 2.6796-0.04 0.2718-0.086 0.449-0.188 0.7235-0.2392 0.6415-0.5427 1.2619-0.8295 1.6959-0.067 0.1017-0.1222 0.1898-0.1222 0.1958 0 0.013 0.214 0.1433 0.4922 0.2991 0.069 0.039 0.139 0.079 0.1562 0.089 0.017 0.011 0.042 0.024 0.055 0.03 0.013 0.01 0.1 0.056 0.1934 0.11 0.093 0.054 0.1725 0.099 0.1755 0.099 0 0 0.052 0.028 0.1077 0.062 0.056 0.034 0.1056 0.062 0.1099 0.062 0 0 0.034 0.017 0.066 0.037s0.1004 0.06 0.152 0.088c0.052 0.028 0.1184 0.066 0.1484 0.082 0.03 0.017 0.076 0.043 0.1016 0.058 0.026 0.015 0.086 0.049 0.1349 0.075 0.048 0.026 0.1622 0.09 0.253 0.1427 0.091 0.052 0.1681 0.095 0.1718 0.095 0 0 0.086 0.046 0.1825 0.1016 0.097 0.056 0.1774 0.1016 0.1794 0.1016 0 0 0.066 0.036 0.1426 0.08 0.076 0.044 0.1917 0.1086 0.2561 0.1434 0.064 0.035 0.1418 0.078 0.1719 0.097 0.03 0.019 0.065 0.038 0.078 0.044 0.013 0.01 0.044 0.023 0.07 0.039s0.089 0.052 0.1407 0.081c0.2094 0.1162 0.2362 0.1314 0.2812 0.1587 0.026 0.016 0.057 0.034 0.07 0.04 0.013 0.01 0.08 0.043 0.1485 0.083 0.069 0.04 0.1355 0.077 0.1484 0.083 0.013 0.01 0.052 0.027 0.086 0.047s0.1328 0.075 0.2188 0.1226c0.086 0.048 0.1808 0.1003 0.2109 0.1172 0.03 0.017 0.097 0.054 0.1485 0.083 0.052 0.029 0.1148 0.064 0.1406 0.08 0.026 0.015 0.089 0.05 0.1406 0.078 0.052 0.028 0.12 0.067 0.152 0.087s0.062 0.037 0.067 0.037c0 0 0.075 0.039 0.1571 0.086 0.082 0.047 0.1523 0.086 0.1564 0.086 0 0 0.034 0.017 0.066 0.037s0.1004 0.059 0.152 0.087c0.052 0.028 0.1148 0.063 0.1406 0.078 0.026 0.015 0.089 0.051 0.1407 0.08 0.052 0.029 0.1148 0.064 0.1406 0.08 0.026 0.015 0.075 0.043 0.1094 0.062 0.034 0.019 0.1152 0.062 0.1796 0.097 0.064 0.035 0.1435 0.08 0.1755 0.1s0.061 0.037 0.065 0.037c0 0 0.056 0.028 0.1166 0.062 0.06 0.034 0.1331 0.075 0.1615 0.091 0.1137 0.064 0.2413 0.1348 0.2783 0.1551 0.045 0.025 0.1376 0.077 0.2266 0.1284 0.034 0.02 0.1008 0.057 0.1477 0.082 0.047 0.026 0.1336 0.074 0.1929 0.1074l0.1078 0.061 0.307-0.2239c0.3873-0.2824 0.657-0.4637 0.768-0.5161 0.013-0.01 0.073-0.039 0.1328-0.073 0.1087-0.061 0.5652-0.2898 0.625-0.3126 0.017-0.01 0.07-0.029 0.1172-0.051 0.047-0.022 0.1176-0.051 0.1563-0.066 0.039-0.015 0.091-0.036 0.1172-0.047 0.026-0.011 0.075-0.029 0.1093-0.04 0.034-0.011 0.07-0.025 0.078-0.031 0.01-0.01 0.058-0.023 0.1093-0.037 0.052-0.015 0.1184-0.036 0.1485-0.048 0.1158-0.043 0.4465-0.1269 0.6406-0.1617 0.047-0.01 0.1457-0.026 0.2187-0.04 0.2479-0.045 0.4348-0.057 0.8937-0.057 0.4382-1e-4 0.7501 0.013 1.1063 0.048 0.09 0.01 0.1993 0.019 0.2422 0.023 0.1046 0.01 0.2726 0.035 0.4063 0.062 0.06 0.012 0.1515 0.03 0.2031 0.04 0.09 0.017 0.1475 0.032 0.3047 0.078 0.039 0.011 0.083 0.022 0.099 0.023 0.015 0 0.044 0.01 0.062 0.019 0.019 0.01 0.09 0.035 0.1591 0.058 0.1128 0.037 0.2643 0.096 0.4141 0.1605 0.1149 0.05 0.4969 0.2398 0.6015 0.2997 0.06 0.034 0.1199 0.068 0.1328 0.074 0.075 0.036 0.4398 0.2767 0.6062 0.4001 0.995 0.738 1.7858 1.715 2.2214 2.7445 0.074 0.1737 0.2203 0.5896 0.2514 0.7123 0.01 0.026 0.034 0.1312 0.061 0.2343 0.061 0.2344 0.1162 0.5335 0.1587 0.8672 0.044 0.3438 0.047 1.0785 0.01 1.4219-0.068 0.5793-0.2041 1.1551-0.3845 1.625-0.018 0.047-0.049 0.1281-0.069 0.1797-0.125 0.3252-0.3829 0.8141-0.6098 1.1562-0.5376 0.8106-1.2603 1.5071-2.0783 2.0029-0.2465 0.1494-0.3451 0.2018-0.6641 0.3529-0.1263 0.06-0.1712 0.08-0.2695 0.1192-0.024 0.01-0.059 0.024-0.078 0.033-0.1838 0.081-0.7393 0.256-0.9961 0.313-0.4333 0.096-0.7627 0.1502-1.0123 0.1657-0.084 0.01-0.1636 0.015-0.1781 0.023-0.034 0.018-0.935 0.017-0.9659 0z" fill="#fff" stroke-width=".015625"/>
</svg>
