<?xml version="1.0" encoding="UTF-8"?>
<svg version="1.1" viewBox="0 0 128 128" xmlns="http://www.w3.org/2000/svg" xmlns:cc="http://creativecommons.org/ns#" xmlns:dc="http://purl.org/dc/elements/1.1/" xmlns:rdf="http://www.w3.org/1999/02/22-rdf-syntax-ns#">
<title>HADES BLACK - Stream Button</title>
<metadata>
<rdf:RDF>
<cc:Work rdf:about="">
<dc:format>image/svg+xml</dc:format>
<dc:type rdf:resource="http://purl.org/dc/dcmitype/StillImage"/>
<dc:title>HADES BLACK - Stream Button</dc:title>
</cc:Work>
</rdf:RDF>
</metadata>
<path d="m33.141 107.67c-0.65585-0.0319-1.1941-0.0974-1.6637-0.2023-0.62798-0.1403-1.5838-0.47965-2.2621-0.80315l-0.19142-0.0913v-2.3615h0.0647c0.0565 0 0.0774 0.0113 0.16623 0.0899 0.66587 0.58913 1.3179 0.99315 2.0972 1.2996 0.58483 0.2299 1.0602 0.35223 1.6562 0.4262 0.21513 0.0267 0.93405 0.0263 1.1797 0 0.8623-0.0945 1.4548-0.3404 1.9069-0.79132 0.42775-0.42665 0.619-0.91028 0.61825-1.5634 0-0.59772-0.14058-1.0386-0.44943-1.4162-0.22145-0.2708-0.6153-0.52035-1.068-0.67668-0.21412-0.0739-0.84795-0.24652-1.3203-0.35947-1.6797-0.40173-2.0145-0.49788-2.5391-0.72935-0.4927-0.21743-0.87088-0.4745-1.2242-0.83222-0.44275-0.44822-0.76117-1.0503-0.89242-1.6874-0.11635-0.56483-0.11603-1.2618 0-1.7892 0.19465-0.87815 0.70322-1.6319 1.5174-2.249 0.82807-0.62762 1.9226-0.95425 3.2-0.95495 1.4134 0 2.7526 0.27375 3.9805 0.81593l0.21482 0.0949v2.2609h-0.0699c-0.0647 0-0.0814-0.01-0.2242-0.1289-0.3606-0.30125-0.7498-0.54912-1.2449-0.79285-0.70217-0.34562-1.2522-0.51112-1.9844-0.59702-0.25848-0.0303-0.95148-0.0254-1.1953 9e-3 -0.42695 0.0594-0.76325 0.1592-1.0882 0.3229-0.57517 0.2898-0.95822 0.7016-1.1303 1.2152-0.0733 0.21875-0.0966 0.38467-0.0961 0.6831 0 0.51902 0.11725 0.93257 0.35812 1.2734 0.0978 0.13833 0.3123 0.34648 0.48093 0.46658 0.16982 0.12095 0.54767 0.3075 0.77815 0.38417 0.2051 0.0682 0.71525 0.19998 1.6661 0.4303 0.81328 0.19703 1.3459 0.34043 1.6719 0.45015 1.5431 0.5194 2.3711 1.4428 2.5878 2.886 0.0333 0.22163 0.0458 0.7864 0.0225 1.0164-0.0792 0.78313-0.37805 1.5465-0.84993 2.171-0.11742 0.1554-0.47395 0.51413-0.65102 0.65498-0.36918 0.2937-0.9239 0.60822-1.3474 0.76395-0.45855 0.16862-0.9637 0.2658-1.5979 0.3074-0.21138 0.0137-0.83958 0.017-1.0781 5e-3zm10.805-6.5052v-6.2656h-4.7812v-1.6719h11.438v1.6719h-4.7812v12.531h-1.875zm8.0781-0.83593v-7.1016l2.043 1.7e-4c2.3258 1.5e-4 2.6836 0.0102 3.3789 0.0945 0.74055 0.0898 1.2961 0.29003 1.883 0.67858 0.78135 0.51727 1.2932 1.2377 1.4821 2.0862 0.14145 0.6353 0.13575 1.4482-0.0147 2.1214-0.16217 0.72475-0.46585 1.3004-0.97632 1.8509-0.4318 0.46558-1.0714 0.89258-1.7059 1.1388-0.0752 0.0291-0.13667 0.0566-0.1367 0.061 0 5e-3 1.1337 1.3931 2.5195 3.086l2.5196 3.0779-1.217 4e-3c-0.73055 2e-3 -1.224-2e-3 -1.2345-0.0105-0.01-8e-3 -1.0228-1.277-2.2517-2.82l-2.2343-2.8055h-2.1641v5.6406h-1.8906v-7.1016zm4.0625-0.13337c0.46912-0.0328 0.89475-0.1018 1.1719-0.18988 0.7755-0.24646 1.3548-0.89732 1.5688-1.7627 0.12453-0.50347 0.14743-1.1672 0.0555-1.6093-0.0911-0.43848-0.26365-0.77043-0.54405-1.047-0.3848-0.37952-0.87047-0.58922-1.5724-0.679-0.34983-0.0447-0.6854-0.0552-1.7695-0.0553h-1.082v5.3594l0.97268-1.5e-4c0.53495-1.5e-4 1.0746-7e-3 1.1992-0.016zm8.0469 0.13337v-7.1016h8.875v1.6719h-6.9844v3.9062h6.5156v1.6719h-6.5156v5.2812h6.9844v1.6719h-8.875zm9.6791 6.3868c0.1317-0.39323 1.207-3.586 2.3896-7.0949 1.1826-3.509 2.1501-6.3831 2.1501-6.3868 0-4e-3 0.52505-5e-3 1.1668-3e-3l1.1668 4e-3 2.3804 7.0625c1.3092 3.8844 2.3846 7.0784 2.3896 7.0978l9e-3 0.0353-1.9908-8e-3 -0.50665-1.5625c-0.27865-0.85937-0.5665-1.7471-0.63965-1.9726l-0.13303-0.41017h-5.4355l-0.13303 0.41017c-0.0731 0.22558-0.361 1.1133-0.63965 1.9726l-0.50665 1.5625-1.9071 8e-3zm7.8456-4.8907c-0.0714-0.22505-2.1805-6.6493-2.1841-6.6529-3e-3 -3e-3 -0.49292 1.4903-1.0892 3.3181-0.59625 1.8277-1.0873 3.3319-1.0913 3.3427-6e-3 0.0155 0.43742 0.0195 2.183 0.0195 2.0788 0 2.1898-2e-3 2.1815-0.0273zm5.1472-1.4962v-7.1016l2.5813 8e-3 1.7672 3.9414c0.97195 2.1678 1.7713 3.9414 1.7763 3.9414 5e-3 0 0.77668-1.7736 1.7148-3.9414l1.7056-3.9414 2.6266-8e-3v14.203h-1.8906l-4e-3 -6.1084-4e-3 -6.1085-1.8438 4.155-1.8438 4.155-0.57553-3e-3 -0.57555-4e-3 -3.6614-8.3086-4e-3 6.1113-4e-3 6.1113h-1.7656zm-23.816-16.024c-6.2472-0.19455-12.247-2.19-17.356-5.7724-3.0342-2.1276-5.7241-4.8176-7.8517-7.8517-2.126-3.0318-3.6951-6.3756-4.6707-9.9531-1.0226-3.7499-1.3489-7.7393-0.95343-11.656 0.58178-5.7624 2.719-11.249 6.1864-15.883 1.8697-2.4986 4.0159-4.6446 6.516-6.516 3.2126-2.4046 6.8351-4.1718 10.727-5.233 3.7492-1.0224 7.7401-1.3488 11.656-0.9534 5.4382 0.54905 10.626 2.4799 15.109 5.6241 2.0821 1.46 4.0301 3.2092 5.7162 5.133 2.3838 2.7196 4.3078 5.8542 5.6406 9.1891 0.67018 1.6769 1.2076 3.4422 1.5789 5.1859 1.0617 4.9866 0.91865 10.217-0.41317 15.109-0.81558 2.9956-2.0711 5.8751-3.6994 8.4844-2.6095 4.1815-6.1104 7.6824-10.292 10.292-2.3559 1.4702-4.9974 2.6648-7.664 3.466-3.2886 0.98805-6.7722 1.4426-10.23 1.3349zm2.3943-3.1392c0.65868-0.0361 1.2162-0.0806 1.7812-0.14202 7.6168-0.82883 14.582-4.6694 19.401-10.697 5.1466-6.4377 7.2752-14.718 5.8878-22.904-1.6145-9.5255-8.0218-17.695-16.926-21.58-3.0026-1.3102-6.22-2.0973-9.5038-2.3249-0.76908-0.0533-1.064-0.0624-2.0312-0.0624-0.96723 0-1.2622 9e-3 -2.0312 0.0624-4.4595 0.30915-8.7559 1.6416-12.609 3.9104-3.2838 1.9335-6.209 4.5551-8.4936 7.6122-3.3303 4.4564-5.278 9.6926-5.6695 15.242-0.0521 0.73807-0.0628 1.0858-0.0628 2.039 0 0.95332 0.0108 1.301 0.0628 2.0391 0.1974 2.798 0.77998 5.4811 1.7576 8.0946 2.7262 7.288 8.3601 13.225 15.511 16.345 2.6504 1.1565 5.485 1.91 8.3632 2.2232 0.76605 0.0833 1.2666 0.11835 2.336 0.16337 0.2565 0.0107 1.9331-5e-3 2.2266-0.0213zm-13.031-28.835v-20.103l0.0586 0.0307c0.17605 0.0922 34.742 20.058 34.744 20.069 2e-3 9e-3 -34.065 19.693-34.705 20.052l-0.0977 0.0549z" fill="#fff" stroke-width=".015625"/>
</svg>
